SplineFontDB: 3.0
FontName: Radley
FullName: Radley
FamilyName: Radley
Weight: Regular
Copyright: Copyright (c) 2010 by vernon adams. All rights reserved.
Version: 1.000
ItalicAngle: 0
UnderlinePosition: -205
UnderlineWidth: 102
Ascent: 1638
Descent: 410
sfntRevision: 0x00010000
LayerCount: 2
Layer: 0 1 "Back"  1
Layer: 1 1 "Fore"  0
XUID: [1021 496 529952750 1582862]
FSType: 0
OS2Version: 3
OS2_WeightWidthSlopeOnly: 0
OS2_UseTypoMetrics: 1
CreationTime: 1291666120
ModificationTime: 1291758002
PfmFamily: 17
TTFWeight: 400
TTFWidth: 5
LineGap: 54
VLineGap: 0
Panose: 2 0 5 3 8 0 0 2 0 0
OS2TypoAscent: -324
OS2TypoAOffset: 1
OS2TypoDescent: 50
OS2TypoDOffset: 1
OS2TypoLinegap: 107
OS2WinAscent: -844
OS2WinAOffset: 1
OS2WinDescent: -159
OS2WinDOffset: 1
HheadAscent: -844
HheadAOffset: 1
HheadDescent: 151
HheadDOffset: 1
OS2SubXSize: 1331
OS2SubYSize: 1433
OS2SubXOff: 0
OS2SubYOff: 286
OS2SupXSize: 1331
OS2SupYSize: 1433
OS2SupXOff: 0
OS2SupYOff: 983
OS2StrikeYSize: 102
OS2StrikeYPos: 512
OS2Vendor: 'PfEd'
OS2CodePages: 00000093.00000000
OS2UnicodeRanges: a00002af.4000004a.00000000.00000000
Lookup: 4 0 1 "'liga' Standard Ligatures in Latin lookup 0"  {"'liga' Standard Ligatures in Latin lookup 0 subtable"  } ['liga' ('latn' <'dflt' > ) ]
Lookup: 1 0 0 "'smcp' Lowercase to Small Capitals in Latin lookup 1"  {"'smcp' Lowercase to Small Capitals in Latin lookup 1 subtable"  } ['smcp' ('latn' <'dflt' > ) ]
MarkAttachClasses: 1
DEI: 91125
TtTable: prep
PUSHW_1
 511
SCANCTRL
PUSHB_1
 4
SCANTYPE
EndTTInstrs
LangName: 1033 "" "" "Regular" "vernonadams: Radley: 2010" "" "Version 1.000" "" "Radley is a trademark of vernon adams." "vernon adams" "vernon adams" "Copyright (c) 2010 by vernon adams. All rights reserved." "" "" "" "http://scripts.sil.org/OFL" "" "" "" "Radley" 
Encoding: UnicodeBmp
UnicodeInterp: none
NameList: Adobe Glyph List
DisplaySize: -48
AntiAlias: 1
FitToEm: 1
WinInfo: 58 29 11
BeginPrivate: 5
BlueValues 35 [-28 0 868 902 1176 1202 1297 1333]

StartChar: .notdef
Encoding: 65536 -1 0
Width: 1496
Flags: HW
LayerCount: 2
Fore
SplineSet
136 0 m 1,0,-1
 136 2730 l 1,1,-1
 1224 2730 l 1,2,-1
 1224 0 l 1,3,-1
 136 0 l 1,0,-1
272 136 m 1,4,-1
 1088 136 l 1,5,-1
 1088 2594 l 1,6,-1
 272 2594 l 1,7,-1
 272 136 l 1,4,-1
EndSplineSet
EndChar

StartChar: exclam
Encoding: 33 33 2
Width: 702
GlyphClass: 2
Flags: HW
LayerCount: 2
Fore
SplineSet
277 1165.5 m 0,0,1
 303 1176 303 1176 343.5 1176 c 128,-1,2
 384 1176 384 1176 410.501 1165 c 128,-1,3
 437.001 1154 437.001 1154 452.001 1135 c 0,4,5
 481.374 1097.79 481.374 1097.79 473 1035 c 1,6,-1
 448 871.997 l 1,7,8
 443 829.997 443 829.997 434.5 775.997 c 2,9,-1
 398 558.497 l 2,10,11
 382.617 468.763 382.617 468.763 371.501 382.997 c 0,12,13
 368.001 355.997 368.001 355.997 349.001 355.997 c 128,-1,14
 329.87 355.997 329.87 355.997 325.435 372.998 c 128,-1,15
 321.001 389.999 321.001 389.999 319.001 407.499 c 2,16,-1
 314.001 449.999 l 1,17,18
 306.001 508 306.001 508 296.001 569.499 c 2,19,-1
 258.501 793.499 l 2,20,21
 250 841.999 250 841.999 246 874.999 c 1,22,-1
 222 1026 l 1,23,24
 205.72 1136.71 205.72 1136.71 277 1165.5 c 0,0,1
228.001 91.9971 m 128,-1,26
 228.001 117.997 228.001 117.997 237.501 140.497 c 128,-1,27
 247 162.997 247 162.997 263.001 179.997 c 128,-1,28
 279.001 196.997 279.001 196.997 301.002 206.496 c 128,-1,29
 323.002 215.996 323.002 215.996 349.002 215.996 c 128,-1,30
 375.001 215.996 375.001 215.996 398.001 206.496 c 128,-1,31
 421 196.997 421 196.997 437.501 179.997 c 128,-1,32
 454.001 162.998 454.001 162.998 463.501 140.497 c 128,-1,33
 473 117.997 473 117.997 473.001 91.9971 c 128,-1,34
 473.001 65.9976 473.001 65.9976 463.501 43.9971 c 128,-1,35
 454.001 21.9966 454.001 21.9966 437.501 5.99609 c 128,-1,36
 421.001 -10.0044 421.001 -10.0044 398.001 -19.5039 c 128,-1,37
 375.001 -29.0034 375.001 -29.0034 349.002 -29.0039 c 128,-1,38
 323.002 -29.0039 323.002 -29.0039 301.002 -19.5039 c 128,-1,39
 279.001 -10.0044 279.001 -10.0044 263.001 5.99609 c 128,-1,40
 247 21.9966 247 21.9966 237.501 43.9971 c 128,-1,25
 228.001 65.9976 228.001 65.9976 228.001 91.9971 c 128,-1,26
EndSplineSet
EndChar

StartChar: quotedbl
Encoding: 34 34 3
Width: 702
GlyphClass: 2
Flags: HW
LayerCount: 2
Fore
SplineSet
224 676 m 128,-1,1
 213.998 676 213.998 676 207.498 679.5 c 128,-1,2
 200.999 683 200.999 683 195.999 693.999 c 0,3,4
 188.132 711.308 188.132 711.308 174 786 c 2,5,-1
 124 1055 l 1,6,7
 117 1115 117 1115 138.499 1145.5 c 128,-1,8
 159.999 1176 159.999 1176 223.999 1176 c 128,-1,9
 288 1176 288 1176 309.499 1145.5 c 128,-1,10
 330.999 1115 330.999 1115 323.998 1055 c 1,11,-1
 273.998 786 l 2,12,13
 255.362 687.502 255.362 687.502 244.681 681.751 c 128,-1,0
 234 676 234 676 224 676 c 128,-1,1
481.998 676 m 128,-1,15
 471.997 676 471.997 676 465.496 679.5 c 128,-1,16
 458.997 683 458.997 683 453.997 693.999 c 0,17,18
 446.13 711.308 446.13 711.308 431.998 786 c 2,19,-1
 381.998 1055 l 1,20,21
 374.998 1115 374.998 1115 396.497 1145.5 c 128,-1,22
 417.997 1176 417.997 1176 481.997 1176 c 128,-1,23
 545.998 1176 545.998 1176 567.497 1145.5 c 128,-1,24
 588.997 1115 588.997 1115 581.996 1055 c 1,25,-1
 531.996 786 l 2,26,27
 513.36 687.502 513.36 687.502 502.679 681.751 c 128,-1,14
 491.999 676 491.999 676 481.998 676 c 128,-1,15
EndSplineSet
EndChar

StartChar: numbersign
Encoding: 35 35 4
Width: 1230
GlyphClass: 2
Flags: HW
LayerCount: 2
Fore
SplineSet
570.002 1316 m 1,0,1
 570.002 1362 570.002 1362 644.501 1362 c 128,-1,2
 719 1362 719 1362 719.002 1309 c 0,3,4
 719.002 1295 719.002 1295 720.502 1283.5 c 128,-1,5
 722.002 1272 722.002 1272 710.502 1237.5 c 2,6,-1
 625.002 993.502 l 2,7,8
 594.001 905.002 594.001 905.002 558.002 785.002 c 1,9,-1
 827.002 785.002 l 1,10,-1
 869.002 961.502 l 2,11,12
 888.002 1043 888.002 1043 901.502 1106.5 c 2,13,-1
 923.502 1213 l 2,14,15
 932.002 1256 932.002 1256 934.502 1273 c 128,-1,16
 937.001 1290 937.001 1290 940.501 1305 c 128,-1,17
 944 1320 944 1320 953.001 1333 c 0,18,19
 973.077 1362 973.077 1362 1013.54 1362 c 128,-1,20
 1054 1362 1054 1362 1069 1354 c 128,-1,21
 1084 1346 1084 1346 1091 1334.5 c 128,-1,22
 1098 1323 1098 1323 1099.5 1309 c 128,-1,23
 1101 1295 1101 1295 1102.5 1283.5 c 0,24,25
 1104.89 1265.2 1104.89 1265.2 1061 1132.5 c 1,26,-1
 949.002 785.004 l 1,27,-1
 1015 785.004 l 2,28,29
 1132.8 785.004 1132.8 785.004 1149 758.004 c 0,30,31
 1155 748.003 1155 748.003 1155 730.503 c 128,-1,32
 1155 713.002 1155 713.002 1149.5 701.502 c 128,-1,33
 1144 690.001 1144 690.001 1128.5 684.002 c 0,34,35
 1102.67 674.003 1102.67 674.003 1015 674.002 c 2,36,-1
 916.002 674.002 l 1,37,-1
 868.002 501.002 l 1,38,-1
 960.002 501.002 l 2,39,40
 1077 501.002 1077 501.002 1095 468.002 c 0,41,42
 1101 457.002 1101 457.002 1101 439.502 c 128,-1,43
 1101 422.001 1101 422.001 1095.5 412.001 c 128,-1,44
 1090 402 1090 402 1074 397.001 c 0,45,46
 1051.59 390 1051.59 390 960.001 390.001 c 2,47,-1
 840.001 390.001 l 1,48,49
 766.361 97.8229 766.361 97.8229 723.001 -148.999 c 0,50,51
 706.335 -239.004 706.335 -239.004 631 -239.001 c 0,52,53
 603.5 -239.001 603.5 -239.001 587.25 -213 c 0,54,55
 558.332 -166.731 558.332 -166.731 570 -122 c 1,56,-1
 723 390 l 1,57,-1
 450.005 389.999 l 1,58,-1
 391.005 137.999 l 1,59,60
 361.005 3.99951 361.005 3.99951 344.005 -87.0002 c 128,-1,61
 327.005 -178 327.005 -178 318.005 -195.5 c 128,-1,62
 309.005 -213 309.005 -213 298.005 -222.5 c 128,-1,63
 287.005 -232 287.005 -232 274.506 -235.499 c 128,-1,64
 262.006 -238.999 262.006 -238.999 249.006 -238.999 c 128,-1,65
 236.005 -238.999 236.005 -238.999 222.506 -228.999 c 128,-1,66
 209.006 -218.999 209.006 -218.999 199.506 -202.998 c 0,67,68
 176.836 -164.814 176.836 -164.814 188.006 -121.998 c 2,69,-1
 332.006 390.002 l 1,70,-1
 288.006 390.002 l 2,71,72
 200.67 390.002 200.67 390.002 179.338 398.002 c 128,-1,73
 158.005 406.002 158.005 406.002 152.505 417.002 c 128,-1,74
 147.004 428.001 147.004 428.001 147.005 445.502 c 128,-1,75
 147.005 463.002 147.005 463.002 152.505 473.502 c 128,-1,76
 158.005 484.002 158.005 484.002 173.505 490.002 c 0,77,78
 201.923 501.003 201.923 501.003 285.005 501.002 c 2,79,-1
 363.005 501.002 l 1,80,-1
 411.005 674.002 l 1,81,-1
 343.005 674.002 l 2,82,83
 255.669 674.002 255.669 674.002 234.337 682.002 c 128,-1,84
 213.004 690.002 213.004 690.002 207.504 701.002 c 128,-1,85
 202.003 712.001 202.003 712.001 202.004 729.502 c 128,-1,86
 202.004 747.002 202.004 747.002 207.504 757.502 c 128,-1,87
 213.004 768.002 213.004 768.002 228.504 774.002 c 0,88,89
 256.922 785.003 256.922 785.003 340.004 785.002 c 2,90,-1
 442.004 785.002 l 1,91,-1
 525.004 1079 l 2,92,93
 560.651 1203.77 560.651 1203.77 570.002 1316 c 1,0,1
525.005 673.999 m 1,94,-1
 478.005 500.999 l 1,95,-1
 754.005 500.999 l 1,96,-1
 799.005 673.999 l 1,97,-1
 525.005 673.999 l 1,94,-1
EndSplineSet
EndChar

StartChar: dollar
Encoding: 36 36 5
Width: 1040
GlyphClass: 2
Flags: HW
LayerCount: 2
Fore
SplineSet
559.002 1136 m 1,0,1
 552.605 937.784 552.605 937.784 550 732 c 1,2,-1
 704 641 l 2,3,4
 842.177 559.261 842.177 559.261 892.499 489 c 0,5,6
 939.999 422.68 939.999 422.68 939.999 326.34 c 128,-1,7
 939.999 230 939.999 230 907.999 166 c 128,-1,8
 876 102 876 102 821.5 60.499 c 0,9,10
 718.103 -18.2363 718.103 -18.2363 544.999 -27.001 c 1,11,-1
 544.999 -125.001 l 2,12,13
 544.999 -195.067 544.999 -195.067 518.499 -214.5 c 0,14,15
 510.999 -220 510.999 -220 498.499 -227.5 c 128,-1,16
 486 -235 486 -235 467.5 -213 c 128,-1,17
 449 -191 449 -191 448 -141 c 1,18,-1
 450 -26 l 1,19,20
 234.962 -13.4736 234.962 -13.4736 82.001 80.001 c 1,21,-1
 103.001 366.001 l 1,22,23
 120 371 120 371 126.501 371.001 c 128,-1,24
 133.001 371.001 133.001 371.001 140.501 362.001 c 128,-1,25
 148.001 353.001 148.001 353.001 153.501 339.501 c 0,26,27
 162.586 317.204 162.586 317.204 168.293 276.602 c 128,-1,28
 174 236 174 236 199.5 197.001 c 128,-1,29
 225 158.001 225 158.001 264 127.501 c 0,30,31
 342.22 66.3303 342.22 66.3303 451 45.001 c 1,32,-1
 458 502.001 l 1,33,-1
 319 581.001 l 2,34,35
 104 702.182 104 702.182 104 885.999 c 0,36,37
 104 1035.19 104 1035.19 213.501 1116.5 c 0,38,39
 311.415 1189.21 311.415 1189.21 469.001 1200 c 1,40,41
 468 1261 468 1261 468.001 1303.5 c 128,-1,42
 468.001 1346 468.001 1346 472.501 1372.5 c 0,43,44
 480.907 1422 480.907 1422 516.002 1422 c 0,45,46
 538.745 1422 538.745 1422 546.874 1401 c 0,47,48
 561.003 1364.5 561.003 1364.5 561.003 1278 c 2,49,-1
 561.003 1239 l 2,50,51
 561.003 1220 561.003 1220 560.003 1201 c 1,52,53
 713.513 1192.81 713.513 1192.81 840.003 1138 c 1,54,-1
 870.003 880.998 l 1,55,56
 837.32 871.92 837.32 871.92 826.161 882.459 c 128,-1,57
 815.003 892.999 815.003 892.999 807.503 905.999 c 0,58,59
 793.824 929.71 793.824 929.71 785.914 964.855 c 128,-1,60
 778.003 999.999 778.003 999.999 756.504 1030 c 128,-1,61
 735.004 1060 735.004 1060 704.004 1082 c 0,62,63
 646.378 1122.89 646.378 1122.89 559.002 1136 c 1,0,1
547.001 452.001 m 1,64,65
 545.004 276.339 545.004 276.339 545.003 36.001 c 1,66,67
 697.001 36.001 697.001 36.001 748.503 139.001 c 0,68,69
 766.003 174 766.003 174 766.003 216.001 c 128,-1,70
 766.003 258.001 766.003 258.001 753.503 286.001 c 128,-1,71
 741.003 314.001 741.003 314.001 714.503 340.001 c 0,72,73
 673.985 379.753 673.985 379.753 547.001 452.001 c 1,64,65
469.003 1136 m 1,74,-1
 469.002 1138 l 1,75,76
 330.375 1128.1 330.375 1128.1 278.002 1048 c 0,77,78
 237.73 986.407 237.73 986.407 287.003 912.501 c 0,79,80
 312.003 875.001 312.003 875.001 368.003 842.001 c 2,81,-1
 463.003 785.001 l 1,82,-1
 469.003 1136 l 1,74,-1
EndSplineSet
EndChar

StartChar: percent
Encoding: 37 37 6
Width: 1500
GlyphClass: 2
Flags: HW
LayerCount: 2
Fore
SplineSet
1146 1362 m 0,0,1
 1226.46 1362 1226.46 1362 1224.5 1303 c 0,2,3
 1224 1288 1224 1288 1224 1275.5 c 128,-1,4
 1224 1263 1224 1263 1199.5 1211 c 2,5,-1
 1030 857 l 1,6,-1
 904.5 578 l 1,7,8
 750.397 224.135 750.397 224.135 620 -157.999 c 0,9,10
 603.2 -208.399 603.2 -208.399 581.6 -221.199 c 128,-1,11
 560 -233.999 560 -233.999 546.5 -236.499 c 128,-1,12
 533 -239 533 -239 520 -238.999 c 128,-1,13
 507 -238.999 507 -238.999 496 -228.999 c 128,-1,14
 485 -218.999 485 -218.999 479 -202.499 c 128,-1,15
 473 -185.999 473 -185.999 473 -164.499 c 128,-1,16
 473 -143 473 -143 482 -120 c 1,17,-1
 996 1044 l 1,18,-1
 1014 1093.5 l 1,19,20
 1054.46 1208.8 1054.46 1208.8 1061.23 1257.9 c 128,-1,21
 1068 1307 1068 1307 1076.5 1322.5 c 0,22,23
 1098.16 1362 1098.16 1362 1146 1362 c 0,0,1
489 1106 m 128,-1,25
 454 1138 454 1138 412 1138 c 128,-1,26
 370 1138 370 1138 340.501 1111.5 c 128,-1,27
 311 1085 311 1085 291.501 1041 c 0,28,29
 252 951.875 252 951.875 252 855.94 c 128,-1,30
 252.001 760.005 252.001 760.005 263.501 699.005 c 128,-1,31
 275.001 638.004 275.001 638.004 298.502 589.004 c 0,32,33
 350.778 480.004 350.778 480.004 442.002 480.004 c 0,34,35
 552.74 480.004 552.74 480.004 585.5 664.503 c 0,36,37
 606.132 780.703 606.132 780.703 588.566 875.852 c 128,-1,38
 571 971.002 571 971.002 547.5 1022.5 c 128,-1,24
 524 1074 524 1074 489 1106 c 128,-1,25
438.501 407.505 m 0,39,40
 357.001 406.005 357.001 406.005 292.502 441.507 c 128,-1,41
 228.002 477.007 228.002 477.007 185.002 534.507 c 0,42,43
 99.003 649.503 99.003 649.503 99.002 815.007 c 0,44,45
 99.002 971.817 99.002 971.817 178.501 1081.51 c 0,46,47
 265.836 1202.01 265.836 1202.01 415 1202.01 c 0,48,49
 568.745 1202.01 568.745 1202.01 662 1071.01 c 0,50,51
 746.999 951.604 746.999 951.604 747 787.005 c 0,52,53
 747 632.61 747 632.61 672.001 528.005 c 0,54,55
 587.572 410.249 587.572 410.249 438.501 407.505 c 0,39,40
1378 683.007 m 128,-1,57
 1343 715.006 1343 715.006 1301 715.007 c 128,-1,58
 1259 715.007 1259 715.007 1229.5 688.511 c 128,-1,59
 1200 662.01 1200 662.01 1180.5 618.011 c 0,60,61
 1141 528.881 1141 528.881 1141 432.946 c 128,-1,62
 1141 337.011 1141 337.011 1152.5 276.011 c 128,-1,63
 1164 215.01 1164 215.01 1187.5 166.01 c 0,64,65
 1239.78 57.0097 1239.78 57.0097 1331 57.0098 c 0,66,67
 1441.74 57.0098 1441.74 57.0098 1474.5 241.509 c 0,68,69
 1495.13 357.708 1495.13 357.708 1477.57 452.858 c 128,-1,70
 1460 548.008 1460 548.008 1436.5 599.508 c 128,-1,56
 1413 651.007 1413 651.007 1378 683.007 c 128,-1,57
1327.5 -15.4893 m 0,71,72
 1246 -16.9893 1246 -16.9893 1181.5 18.5127 c 128,-1,73
 1117 54.0132 1117 54.0132 1074 111.513 c 0,74,75
 988.005 226.509 988.005 226.509 988.004 392.013 c 0,76,77
 988.004 548.823 988.004 548.823 1067.5 658.512 c 0,78,79
 1154.84 779.012 1154.84 779.012 1304 779.012 c 0,80,81
 1457.75 779.012 1457.75 779.012 1551 648.012 c 0,82,83
 1636 528.609 1636 528.609 1636 364.011 c 0,84,85
 1636 209.616 1636 209.616 1561 105.011 c 0,86,87
 1476.57 -12.7457 1476.57 -12.7457 1327.5 -15.4893 c 0,71,72
EndSplineSet
EndChar

StartChar: ampersand
Encoding: 38 38 7
Width: 1309
GlyphClass: 2
Flags: HW
LayerCount: 2
Fore
SplineSet
1203.14 170.283 m 0,0,1
 1271.28 171.57 1271.28 171.57 1278 221.997 c 1,2,-1
 1301 205.997 l 1,3,4
 1301 46.1052 1301 46.1052 1189.5 -10.501 c 0,5,6
 1066.08 -73.1628 1066.08 -73.1628 830.002 79.499 c 0,7,8
 601.456 227.291 601.456 227.291 405.502 494.499 c 0,9,10
 282.961 661.602 282.961 661.602 231.503 818.999 c 0,11,12
 206.003 896.999 206.003 896.999 206.003 957.499 c 128,-1,13
 206.003 1018 206.003 1018 224.003 1062.5 c 128,-1,14
 242.003 1107 242.003 1107 281.503 1139 c 0,15,16
 365.441 1207 365.441 1207 534.001 1207 c 0,17,18
 653.12 1207 653.12 1207 724.5 1147 c 128,-1,19
 795.999 1086.9 795.999 1086.9 796 976 c 0,20,21
 796 867.519 796 867.519 624 774.5 c 2,22,-1
 524.5 721 l 2,23,24
 393.318 650.864 393.318 650.864 346.659 605.432 c 0,25,26
 252.998 514.234 252.998 514.234 252.999 408.999 c 0,27,28
 252.999 166.99 252.999 166.99 427.499 92 c 0,29,30
 487.999 66.0005 487.999 66.0005 566.999 66.0002 c 128,-1,31
 646 66 646 66 711.5 111.5 c 128,-1,32
 777 157 777 157 832.5 246.5 c 0,33,34
 946.618 430.53 946.618 430.53 1006 769 c 1,35,36
 1012 778.003 1012 778.003 1012 786.999 c 0,37,38
 1012 800.663 1012 800.663 964.502 816.495 c 2,39,-1
 924.002 829.995 l 2,40,41
 887.002 842.329 887.002 842.329 887.002 854.997 c 0,42,43
 887.002 855.998 887.002 855.998 890.002 867.997 c 1,44,-1
 1270 867.997 l 1,45,46
 1272 862.998 1272 862.998 1272 858.997 c 2,47,-1
 1272 852.997 l 2,48,49
 1272 839.403 1272 839.403 1228.5 829.996 c 2,50,-1
 1187.5 821.496 l 2,51,52
 1099.54 803.903 1099.54 803.903 1088 766.996 c 2,53,-1
 1013.5 522.996 l 1,54,55
 940.294 294.089 940.294 294.089 858.504 169.996 c 0,56,57
 728.662 -27.0053 728.662 -27.0053 461.005 -27.0039 c 0,58,59
 284.823 -27.0039 284.823 -27.0039 174.005 53.4961 c 0,60,61
 62.0039 134.857 62.0039 134.857 62.0049 271.996 c 0,62,63
 62.0049 485.126 62.0049 485.126 253.004 615.996 c 0,64,65
 307.004 652.997 307.004 652.997 364.004 684.996 c 2,66,-1
 475.004 745.996 l 1,67,68
 666.002 848.567 666.002 848.567 666.003 974.995 c 0,69,70
 666.003 1144 666.003 1144 534.003 1144 c 0,71,72
 384.005 1144 384.005 1144 384.004 1017 c 0,73,74
 384.004 866.882 384.004 866.882 562.505 629.997 c 0,75,76
 738.717 396.149 738.717 396.149 941.505 263.497 c 0,77,78
 1087.34 168.097 1087.34 168.097 1203.14 170.283 c 0,0,1
EndSplineSet
EndChar

StartChar: quotesingle
Encoding: 39 39 8
Width: 702
GlyphClass: 2
Flags: HW
LayerCount: 2
Fore
SplineSet
374 676 m 128,-1,1
 363.998 676 363.998 676 357.498 679.5 c 128,-1,2
 350.999 683 350.999 683 345.999 693.999 c 0,3,4
 338.132 711.308 338.132 711.308 324 786 c 2,5,-1
 274 1055 l 1,6,7
 267 1115 267 1115 288.499 1145.5 c 128,-1,8
 309.999 1176 309.999 1176 373.999 1176 c 128,-1,9
 438 1176 438 1176 459.499 1145.5 c 128,-1,10
 480.999 1115 480.999 1115 473.998 1055 c 1,11,-1
 423.998 786 l 2,12,13
 405.362 687.502 405.362 687.502 394.681 681.751 c 128,-1,0
 384 676 384 676 374 676 c 128,-1,1
EndSplineSet
EndChar

StartChar: parenleft
Encoding: 40 40 9
Width: 657
GlyphClass: 2
Flags: HW
LayerCount: 2
Fore
SplineSet
544 -113.5 m 128,-1,1
 533 -124 533 -124 489 -113 c 128,-1,2
 445 -102 445 -102 385.999 -63.499 c 128,-1,3
 327 -24.9985 327 -24.9985 280 30.501 c 128,-1,4
 233 86.001 233 86.001 198.001 155.001 c 128,-1,5
 163.001 224.001 163.001 224.001 139.501 302.501 c 128,-1,6
 116 381 116 381 104.5 465.5 c 128,-1,7
 92.9995 550 92.9995 550 93 635.999 c 128,-1,8
 93 721.999 93 721.999 104.5 806.498 c 128,-1,9
 116 890.998 116 890.998 139.501 968.998 c 128,-1,10
 163.001 1047 163.001 1047 198.001 1116.5 c 128,-1,11
 233 1186 233 1186 280 1241.5 c 0,12,13
 379.034 1358.44 379.034 1358.44 515 1391 c 0,14,15
 533 1396 533 1396 544 1385.5 c 128,-1,16
 555 1375 555 1375 555 1358.5 c 128,-1,17
 555 1342 555 1342 552 1335 c 128,-1,18
 549 1328 549 1328 544.5 1324.5 c 128,-1,19
 540 1321 540 1321 533.5 1319 c 0,20,21
 459.378 1296.2 459.378 1296.2 399.189 1221.1 c 128,-1,22
 339 1146 339 1146 302.501 1054.5 c 128,-1,23
 266.001 962.999 266.001 962.999 248.001 854.999 c 128,-1,24
 230.001 746.999 230.001 746.999 230.001 635.999 c 128,-1,25
 230.001 524.999 230.001 524.999 248.001 416.999 c 128,-1,26
 266.001 308.999 266.001 308.999 302.501 217.499 c 0,27,28
 381.453 19.575 381.453 19.575 520 -42 c 0,29,30
 527 -45 527 -45 533.5 -47 c 128,-1,31
 540 -48.9995 540 -48.9995 544.5 -53 c 0,32,33
 555 -62.3345 555 -62.3345 555 -82.667 c 128,-1,0
 555 -103 555 -103 544 -113.5 c 128,-1,1
EndSplineSet
EndChar

StartChar: parenright
Encoding: 41 41 10
Width: 657
GlyphClass: 2
Flags: HW
LayerCount: 2
Fore
SplineSet
262 -63.5 m 128,-1,1
 203 -102 203 -102 159 -113 c 128,-1,2
 115 -124 115 -124 104 -113.501 c 128,-1,3
 93.0005 -103.001 93.0005 -103.001 93.0002 -86.5007 c 128,-1,4
 93 -70.0005 93 -70.0005 96 -63.501 c 128,-1,5
 99 -57.0015 99 -57.0015 103.5 -53.001 c 128,-1,6
 108 -49.0005 108 -49.0005 114.5 -47.001 c 0,7,8
 188.622 -24.1982 188.622 -24.1982 248.811 50.8997 c 128,-1,9
 309 125.998 309 125.998 345.499 217.498 c 128,-1,10
 381.999 308.998 381.999 308.998 399.999 416.998 c 128,-1,11
 417.999 524.998 417.999 524.998 417.999 635.998 c 128,-1,12
 417.999 746.998 417.999 746.998 399.999 854.998 c 128,-1,13
 381.999 962.998 381.999 962.998 345.499 1054.5 c 0,14,15
 266.547 1252.42 266.547 1252.42 128 1314 c 0,16,17
 121 1317 121 1317 114.5 1319 c 128,-1,18
 108 1321 108 1321 103.5 1324.5 c 0,19,20
 93 1332.66 93 1332.66 93 1353.83 c 128,-1,21
 93 1375 93 1375 104 1385.5 c 128,-1,22
 115 1396 115 1396 159 1385 c 128,-1,23
 203 1374 203 1374 262 1335.5 c 128,-1,24
 321 1297 321 1297 367.999 1241.5 c 128,-1,25
 414.999 1186 414.999 1186 449.998 1116.5 c 128,-1,26
 484.998 1047 484.998 1047 508.498 968.997 c 128,-1,27
 531.999 890.997 531.999 890.997 543.499 806.497 c 128,-1,28
 555 721.998 555 721.998 554.999 635.998 c 128,-1,29
 554.999 549.999 554.999 549.999 543.499 465.499 c 128,-1,30
 531.999 381 531.999 381 508.498 302.5 c 128,-1,31
 484.998 224 484.998 224 449.998 155 c 128,-1,32
 414.999 86 414.999 86 367.999 30.5 c 128,-1,0
 321 -25 321 -25 262 -63.5 c 128,-1,1
EndSplineSet
EndChar

StartChar: asterisk
Encoding: 42 42 11
Width: 1227
GlyphClass: 2
Flags: HW
LayerCount: 2
Fore
SplineSet
535.998 1087 m 0,0,1
 535.998 1176 535.998 1176 617.998 1176 c 0,2,3
 686.267 1176 686.267 1176 695.5 1128 c 0,4,5
 700.281 1103.14 700.281 1103.14 693.641 1059.07 c 128,-1,6
 687.001 1015 687.001 1015 680.001 960.497 c 0,7,8
 661.187 814.03 661.187 814.03 658.002 684.997 c 1,9,-1
 852.002 800.997 l 1,10,-1
 947.002 864.997 l 1,11,12
 1017.07 917.547 1017.07 917.547 1068 864.497 c 0,13,14
 1096 835.332 1096 835.332 1096 807.666 c 128,-1,15
 1096 779.999 1096 779.999 1089 769.499 c 0,16,17
 1077.01 751.51 1077.01 751.51 1016.5 730.999 c 2,18,-1
 942.001 705.499 l 2,19,20
 821.967 664.155 821.967 664.155 690 603.001 c 1,21,-1
 844.5 438.501 l 1,22,-1
 933 354.001 l 1,23,24
 974 318.857 974 318.857 974 278.001 c 0,25,26
 974 250.309 974 250.309 952 229.155 c 0,27,28
 884.063 163.833 884.063 163.833 843.5 213.001 c 0,29,30
 827 233 827 233 802.5 276.001 c 0,31,32
 720.344 420.198 720.344 420.198 612.999 552.001 c 1,33,34
 495.512 407.913 495.512 407.913 423.5 275.502 c 0,35,36
 391.563 216.777 391.563 216.777 374.781 204.889 c 128,-1,37
 358 193.001 358 193.001 342.5 193.002 c 128,-1,38
 327 193.002 327 193.002 312 200.502 c 128,-1,39
 297 208.002 297 208.002 284 220.502 c 0,40,41
 253 250.307 253 250.307 253 275.654 c 0,42,43
 253 318.861 253 318.861 294 354.002 c 1,44,-1
 381.5 439.002 l 1,45,-1
 536 603.002 l 1,46,47
 401.131 665.501 401.131 665.501 285 705.5 c 2,48,-1
 210.5 731 l 2,49,50
 149.992 751.512 149.992 751.512 140.496 765.756 c 128,-1,51
 131 780 131 780 131 799 c 128,-1,52
 131 818 131 818 139 834.999 c 128,-1,53
 147 851.999 147 851.999 159 864.498 c 0,54,55
 209.928 917.546 209.928 917.546 279.999 864.998 c 1,56,-1
 319.499 836.998 l 2,57,58
 340.999 821.998 340.999 821.998 373.499 801.998 c 2,59,-1
 564.999 686.998 l 1,60,61
 563.154 860.353 563.154 860.353 549.576 962.177 c 128,-1,62
 535.998 1064 535.998 1064 535.998 1087 c 0,0,1
EndSplineSet
EndChar

StartChar: plus
Encoding: 43 43 12
Width: 705
GlyphClass: 2
Flags: HW
LayerCount: 2
Fore
SplineSet
404 498 m 1,0,-1
 533.995 497.997 l 2,1,2
 643.281 497.997 643.281 497.997 651.995 467.498 c 0,3,4
 654.995 456.998 654.995 456.998 654.995 440.998 c 128,-1,5
 654.995 424.999 654.995 424.999 652.495 415.499 c 128,-1,6
 649.995 406 649.995 406 637.995 401.499 c 0,7,8
 620.659 394.998 620.659 394.998 533.995 394.999 c 2,9,-1
 403.995 394.999 l 1,10,-1
 403.995 263.999 l 2,11,12
 403.995 154.713 403.995 154.713 373.496 145.999 c 0,13,14
 362.996 142.999 362.996 142.999 346.996 142.999 c 128,-1,15
 330.997 142.999 330.997 142.999 321.497 145.499 c 128,-1,16
 311.998 148 311.998 148 307.497 159.999 c 0,17,18
 300.996 177.335 300.996 177.335 300.997 263.999 c 2,19,-1
 300.997 394.999 l 1,20,-1
 170.997 394.999 l 2,21,22
 87.7225 394.999 87.7225 394.999 71.3598 402.499 c 128,-1,23
 54.9971 410 54.9971 410 52.4971 420 c 128,-1,24
 49.9966 430 49.9966 430 49.9968 446.5 c 128,-1,25
 49.9971 463 49.9971 463 52.4971 472.5 c 128,-1,26
 54.9976 482 54.9976 482 66.498 487.5 c 0,27,28
 88.4556 498.002 88.4556 498.002 167.998 498.001 c 2,29,-1
 300.998 498.001 l 1,30,-1
 300.998 627.001 l 2,31,32
 300.998 710.275 300.998 710.275 308.498 726.638 c 128,-1,33
 315.999 743.001 315.999 743.001 325.999 745.501 c 128,-1,34
 336 748.001 336 748.001 352.499 748.001 c 128,-1,35
 368.999 748.001 368.999 748.001 378.499 745.501 c 128,-1,36
 387.999 743 387.999 743 393.499 731.5 c 0,37,38
 404.001 709.543 404.001 709.543 404 630 c 2,39,-1
 404 498 l 1,0,-1
EndSplineSet
EndChar

StartChar: comma
Encoding: 44 44 13
Width: 702
GlyphClass: 2
Flags: HW
LayerCount: 2
Fore
SplineSet
350.999 280 m 0,0,1
 516.996 280 516.996 280 516.998 58 c 0,2,3
 516.998 -58.1176 516.998 -58.1176 434.998 -136.5 c 0,4,5
 370.534 -198.12 370.534 -198.12 296.998 -206 c 0,6,7
 245.679 -212.415 245.679 -212.415 238.998 -174 c 0,8,9
 236.02 -151.657 236.02 -151.657 267.499 -136.501 c 2,10,-1
 297.999 -122.501 l 1,11,12
 364.001 -93.3816 364.001 -93.3816 364 -16.001 c 1,13,14
 243.89 -16.001 243.89 -16.001 208.5 75 c 0,15,16
 198 102 198 102 198 131 c 128,-1,17
 198 160 198 160 209 187 c 128,-1,18
 220 214 220 214 239.999 234.5 c 0,19,20
 284.386 279.999 284.386 279.999 350.999 280 c 0,0,1
EndSplineSet
EndChar

StartChar: hyphen
Encoding: 45 45 14
Width: 0
GlyphClass: 2
Flags: HW
LayerCount: 2
Fore
SplineSet
714 487 m 2,0,1
 825.631 487 825.631 487 842.999 459.5 c 0,2,3
 848.999 450 848.999 450 848.999 436 c 128,-1,4
 848.999 422 848.999 422 843.499 413.5 c 128,-1,5
 837.999 405 837.999 405 822.999 400.999 c 0,6,7
 800.494 394.997 800.494 394.997 713.999 394.998 c 2,8,-1
 401.999 394.998 l 2,9,10
 285.525 394.998 285.525 394.998 272.499 417.498 c 0,11,12
 258.443 441.774 258.443 441.774 268.221 456.887 c 128,-1,13
 278 472 278 472 292.5 477.5 c 0,14,15
 317.542 486.999 317.542 486.999 399 487 c 2,16,-1
 714 487 l 2,0,1
EndSplineSet
EndChar

StartChar: period
Encoding: 46 46 15
Width: 702
GlyphClass: 2
Flags: HW
LayerCount: 2
Fore
SplineSet
210 75 m 128,-1,1
 198 102 198 102 198 131 c 128,-1,2
 198 160 198 160 209.998 187 c 128,-1,3
 221.998 214 221.998 214 242.498 234.5 c 128,-1,4
 262.999 255 262.999 255 290.999 267.5 c 128,-1,5
 319 280 319 280 350.999 280 c 128,-1,6
 382.999 280 382.999 280 410.999 267.5 c 128,-1,7
 439 255 439 255 459.5 234.5 c 128,-1,8
 480 214 480 214 492 187 c 128,-1,9
 504 160 504 160 504 132 c 128,-1,10
 504 104 504 104 492 77.499 c 128,-1,11
 480 50.9985 480 50.9985 459.5 29.999 c 128,-1,12
 439 8.99902 439 8.99902 410.999 -3.50098 c 128,-1,13
 382.999 -16.0005 382.999 -16.0005 350.999 -16.001 c 128,-1,14
 319 -16.001 319 -16.001 291.5 -4.50098 c 128,-1,15
 264 6.99951 264 6.99951 243 27.5 c 128,-1,0
 222 48.0005 222 48.0005 210 75 c 128,-1,1
EndSplineSet
EndChar

StartChar: slash
Encoding: 47 47 16
Width: 822
GlyphClass: 2
Flags: HW
LayerCount: 2
Fore
SplineSet
832.499 1309 m 0,0,1
 832 1295 832 1295 831.999 1283 c 128,-1,2
 831.999 1271 831.999 1271 815.999 1240 c 2,3,-1
 688.999 991.501 l 1,4,5
 497.08 597.452 497.08 597.452 271.999 -58.001 c 0,6,7
 249.975 -124.072 249.975 -124.072 195 -128.001 c 0,8,9
 181 -129.001 181 -129.001 168 -129.001 c 128,-1,10
 155 -129.001 155 -129.001 143 -119.001 c 128,-1,11
 131 -109 131 -109 124 -93 c 0,12,13
 107.797 -55.9658 107.797 -55.9658 125 -12 c 1,14,-1
 595 1079 l 2,15,16
 603 1100 603 1100 616.999 1133.5 c 128,-1,17
 630.999 1167 630.999 1167 643.999 1202.5 c 0,18,19
 675.998 1289.88 675.998 1289.88 675.999 1305.44 c 128,-1,20
 675.999 1321 675.999 1321 678.999 1328.5 c 128,-1,21
 681.999 1336 681.999 1336 691.999 1343.5 c 0,22,23
 716.668 1362 716.668 1362 775.529 1362 c 128,-1,24
 834.39 1362 834.39 1362 832.499 1309 c 0,0,1
EndSplineSet
EndChar

StartChar: zero
Encoding: 48 48 17
Width: 1116
GlyphClass: 2
Flags: HW
LayerCount: 2
Fore
SplineSet
531.5 1140 m 0,0,1
 475 1140 475 1140 427.5 1096.5 c 128,-1,2
 380 1053 380 1053 347.499 981.502 c 0,3,4
 281.999 837.403 281.999 837.403 281.999 628 c 0,5,6
 281.999 401.468 281.999 401.468 358.5 243.5 c 0,7,8
 444.461 65.9991 444.461 65.9991 593 66 c 0,9,10
 713.521 66 713.521 66 782 214 c 0,11,12
 843.999 347.997 843.999 347.997 844 548 c 0,13,14
 844 775.528 844 775.528 765.5 951 c 0,15,16
 680.947 1140 680.947 1140 531.5 1140 c 0,0,1
526.5 -14.998 m 0,17,18
 424 -12.9976 424 -12.9976 334.998 38.001 c 128,-1,19
 245.999 89.001 245.999 89.001 185.998 170.001 c 0,20,21
 65.998 332.001 65.998 332.001 65.998 566.002 c 0,22,23
 65.998 819.999 65.998 819.999 193.499 1001.5 c 0,24,25
 334.346 1202 334.346 1202 568.998 1202 c 0,26,27
 797.609 1202 797.609 1202 933.498 1017.5 c 0,28,29
 1058 848.462 1058 848.462 1058 609 c 0,30,31
 1058 356.605 1058 356.605 931.498 179.502 c 0,32,33
 788.914 -20.1196 788.914 -20.1196 526.5 -14.998 c 0,17,18
EndSplineSet
EndChar

StartChar: one
Encoding: 49 49 18
Width: 664
GlyphClass: 2
Flags: HW
LayerCount: 2
Fore
SplineSet
431 129 m 2,0,1
 431 62.7367 431 62.7367 533.5 55.0029 c 0,2,3
 601.723 49.8554 601.723 49.8554 618.862 42.4294 c 128,-1,4
 636 35.0034 636 35.0034 636 25.0029 c 128,-1,5
 636 15.0024 636 15.0024 631 0.00292969 c 1,6,-1
 43 0.00292969 l 1,7,8
 33.8615 29.7005 33.8615 29.7005 50.931 37.3519 c 128,-1,9
 68.0005 45.0034 68.0005 45.0034 90.5 48.5029 c 128,-1,10
 113 52.0024 113 52.0024 138.5 55.502 c 128,-1,11
 164 59.0015 164 59.0015 186.5 66.502 c 0,12,13
 238.001 83.6689 238.001 83.6689 238 130.002 c 2,14,-1
 238 930.002 l 2,15,16
 238 991.617 238 991.617 138 1007 c 128,-1,17
 38 1022.39 38 1022.39 38 1048 c 0,18,19
 38 1054 38 1054 43 1066 c 1,20,-1
 409 1172 l 2,21,22
 431.001 1178 431.001 1178 431 1159 c 2,23,-1
 431 129 l 2,0,1
EndSplineSet
EndChar

StartChar: two
Encoding: 50 50 19
Width: 782
GlyphClass: 2
Flags: HW
LayerCount: 2
Fore
SplineSet
108.5 1053 m 0,0,1
 78.9995 1039 78.9995 1039 60.5 1025.5 c 0,2,3
 14.0029 991.569 14.0029 991.569 14.001 1039 c 0,4,5
 14.001 1053 14.001 1053 21 1060 c 1,6,7
 81 1134 81 1134 168 1170.5 c 128,-1,8
 255 1207 255 1207 336 1207 c 128,-1,9
 417 1207 417 1207 483 1185 c 128,-1,10
 549 1163 549 1163 600.5 1119 c 0,11,12
 714.001 1022.03 714.001 1022.03 714 851.999 c 0,13,14
 714 651.043 714 651.043 449 359 c 1,15,16
 332 233 332 233 184 114 c 1,17,-1
 529 132 l 2,18,19
 584.511 134.136 584.511 134.136 603.258 147.065 c 0,20,21
 633.788 168.121 633.788 168.121 644.397 212.558 c 128,-1,22
 655.006 256.995 655.006 256.995 662.506 277.495 c 128,-1,23
 670.006 297.996 670.006 297.996 678.506 313.996 c 0,24,25
 697.632 349.998 697.632 349.998 714.005 349.997 c 1,26,-1
 734.003 345.997 l 1,27,-1
 711.003 0.99707 l 1,28,29
 704.002 -1.00244 704.002 -1.00244 700.002 -0.50293 c 128,-1,30
 696.001 -0.00341797 696.001 -0.00341797 693.002 -0.00292969 c 2,31,-1
 566.502 0.99707 l 1,32,-1
 303.002 1.99707 l 1,33,-1
 162.002 1.99707 l 2,34,35
 93.002 1.99707 93.002 1.99707 38.002 -0.00292969 c 1,36,-1
 23.002 51.9971 l 1,37,38
 397.709 456.792 397.709 456.792 491.001 749.997 c 0,39,40
 512.001 815.997 512.001 815.997 512.001 876.997 c 128,-1,41
 512.001 937.998 512.001 937.998 495.001 981.997 c 128,-1,42
 478.001 1026 478.001 1026 449.501 1052.5 c 0,43,44
 396.264 1102 396.264 1102 305.001 1102 c 0,45,46
 211.751 1102 211.751 1102 108.5 1053 c 0,0,1
EndSplineSet
EndChar

StartChar: three
Encoding: 51 51 20
Width: 918
GlyphClass: 2
Flags: HW
LayerCount: 2
Fore
SplineSet
471.996 1113 m 0,0,1
 392.808 1113 392.808 1113 319.902 1080.5 c 128,-1,2
 246.997 1048 246.997 1048 219.497 1030 c 128,-1,3
 191.998 1012 191.998 1012 177.998 1012 c 128,-1,4
 163.999 1012 163.999 1012 163.999 1031 c 0,5,6
 163.998 1053.17 163.998 1053.17 180.998 1073.58 c 128,-1,7
 197.997 1094 197.997 1094 234.497 1121.5 c 128,-1,8
 270.997 1149 270.997 1149 313.997 1168 c 0,9,10
 402.263 1207 402.263 1207 483.63 1207 c 128,-1,11
 564.998 1207 564.998 1207 616.497 1188.5 c 128,-1,12
 667.997 1170 667.997 1170 701.997 1139 c 0,13,14
 767.999 1078.82 767.999 1078.82 767.998 983.999 c 0,15,16
 767.998 877.536 767.998 877.536 688.998 795.499 c 0,17,18
 601.235 704.36 601.235 704.36 462.998 692.999 c 1,19,-1
 483.998 692.999 l 2,20,21
 651.999 692.999 651.999 692.999 751.998 602.999 c 0,22,23
 857.999 507.597 857.999 507.597 857.998 329.998 c 0,24,25
 857.998 187.164 857.998 187.164 752.998 87.998 c 0,26,27
 630.174 -28.0028 630.174 -28.0028 411.998 -28.002 c 0,28,29
 224.861 -28.002 224.861 -28.002 121.997 44.999 c 0,30,31
 51.9971 94.6768 51.9971 94.6768 51.9971 171 c 0,32,33
 51.9971 212.415 51.9971 212.415 74.9978 236.207 c 0,34,35
 152.067 315.93 152.067 315.93 219.499 248.501 c 0,36,37
 246.999 221.001 246.999 221.001 246.999 191.501 c 128,-1,38
 246.999 162 246.999 162 236.999 141.5 c 128,-1,39
 226.999 121 226.999 121 226.999 103.5 c 128,-1,40
 226.999 86 226.999 86 244.999 72 c 128,-1,41
 262.999 58.0005 262.999 58.0005 288.499 48 c 0,42,43
 339.493 28.0013 339.493 28.0013 401.246 28.0006 c 128,-1,44
 463 28 463 28 513.996 56.501 c 128,-1,45
 564.996 85.001 564.996 85.001 596.996 129.001 c 0,46,47
 657.997 212.878 657.997 212.878 657.996 327.001 c 0,48,49
 657.996 533.685 657.996 533.685 522.496 605.001 c 0,50,51
 436.76 650.126 436.76 650.126 308.996 617.001 c 1,52,-1
 263.996 669.001 l 1,53,54
 461.69 735.572 461.69 735.572 558.996 846.5 c 0,55,56
 613.996 909.199 613.996 909.199 613.996 979.999 c 0,57,58
 613.996 1113 613.996 1113 471.996 1113 c 0,0,1
EndSplineSet
EndChar

StartChar: four
Encoding: 52 52 21
Width: 909
GlyphClass: 2
Flags: HW
LayerCount: 2
Fore
SplineSet
504 283 m 1,0,-1
 33.001 283.001 l 1,1,-1
 19.001 330.001 l 1,2,-1
 493.001 1185 l 1,3,4
 590.743 1202 590.743 1202 697.001 1202 c 1,5,-1
 697.001 396.002 l 1,6,-1
 830.001 396.002 l 2,7,8
 858.187 396.002 858.187 396.002 859.5 339.502 c 0,9,10
 860 318.002 860 318.002 855.5 300.502 c 128,-1,11
 851 283.001 851 283.001 845 283.002 c 2,12,-1
 697 283.002 l 1,13,-1
 698 110.002 l 2,14,15
 698 59.7273 698 59.7273 784 48.002 c 0,16,17
 839.136 40.4836 839.136 40.4836 855.068 33.7425 c 0,18,19
 878.841 23.684 878.841 23.684 867 0.00292969 c 1,20,-1
 329 0.00292969 l 1,21,22
 320.116 26.652 320.116 26.652 336.058 34.3272 c 128,-1,23
 352 42.0024 352 42.0024 371.5 45.502 c 128,-1,24
 391 49.0015 391 49.0015 414.5 52.501 c 128,-1,25
 438 56.0005 438 56.0005 457.5 62.5 c 0,26,27
 504 77.9988 504 77.9988 504 115 c 2,28,-1
 504 283 l 1,0,-1
504.001 1048 m 1,29,-1
 130.001 396.001 l 1,30,-1
 504.001 396.001 l 1,31,-1
 504.001 1048 l 1,29,-1
EndSplineSet
EndChar

StartChar: five
Encoding: 53 53 22
Width: 1112
GlyphClass: 2
Flags: HW
LayerCount: 2
Fore
SplineSet
343.003 657.002 m 1,0,1
 472.997 735 472.997 735 603.499 735 c 128,-1,2
 734.001 735.001 734.001 735.001 811.001 705.001 c 128,-1,3
 888 675.001 888 675.001 937.001 624.001 c 0,4,5
 1032 525.126 1032 525.126 1032 363.001 c 0,6,7
 1032 219.803 1032 219.803 927.5 105.001 c 0,8,9
 807.346 -26.9976 807.346 -26.9976 585.999 -26.999 c 0,10,11
 398.862 -26.999 398.862 -26.999 295.998 46.002 c 0,12,13
 225.998 95.6797 225.998 95.6797 225.998 172.003 c 0,14,15
 225.998 213.418 225.998 213.418 248.999 237.21 c 0,16,17
 326.068 316.933 326.068 316.933 393.5 249.504 c 0,18,19
 421 222.004 421 222.004 421 192.504 c 128,-1,20
 421 163.003 421 163.003 411 142.503 c 128,-1,21
 401 122.002 401 122.002 401 104.503 c 128,-1,22
 401 87.0029 401 87.0029 419 73.0029 c 128,-1,23
 437 59.0034 437 59.0034 462.5 49.0029 c 0,24,25
 513.494 29.0042 513.494 29.0042 575.247 29.0036 c 128,-1,26
 637 29.0029 637 29.0029 688.001 62.5029 c 128,-1,27
 739.001 96.0024 739.001 96.0024 771.001 146.002 c 0,28,29
 832.002 241.317 832.002 241.317 832.001 360.001 c 0,30,31
 832.001 551.518 832.001 551.518 690.001 613.999 c 0,32,33
 549.58 675.786 549.58 675.786 358.001 580 c 0,34,35
 306.334 554.168 306.334 554.168 298.168 553.585 c 128,-1,36
 290.001 553.002 290.001 553.002 283.502 554.502 c 0,37,38
 267.004 558.31 267.004 558.31 267.003 576.002 c 2,39,-1
 267.003 1201 l 1,40,-1
 924.003 1201 l 1,41,-1
 888.003 1066 l 1,42,-1
 342.003 1066 l 1,43,-1
 343.003 657.002 l 1,0,1
EndSplineSet
EndChar

StartChar: six
Encoding: 54 54 23
Width: 1112
GlyphClass: 2
Flags: HW
LayerCount: 2
Fore
SplineSet
736.001 1250 m 0,0,1
 764.002 1250 764.002 1250 764.002 1222 c 0,2,3
 764.002 1202.67 764.002 1202.67 744.002 1196 c 1,4,5
 611.778 1159.94 611.778 1159.94 490.501 995.004 c 0,6,7
 368.723 829.386 368.723 829.386 336.001 639.002 c 1,8,9
 496.001 699.002 496.001 699.002 615.001 699.002 c 128,-1,10
 734.002 699.002 734.002 699.002 811.002 671.502 c 128,-1,11
 888.001 644.002 888.001 644.002 937.002 596.002 c 0,12,13
 1032 502.943 1032 502.943 1032 343.002 c 0,14,15
 1032 200.969 1032 200.969 932.502 99.501 c 0,16,17
 818.261 -17 818.261 -17 618.002 -16.999 c 0,18,19
 372.484 -16.999 372.484 -16.999 237.003 130.501 c 0,20,21
 115.003 263.325 115.003 263.325 115.003 475.001 c 0,22,23
 115.003 737.906 115.003 737.906 282.503 974.001 c 0,24,25
 390.786 1126.63 390.786 1126.63 540.502 1200 c 0,26,27
 616.001 1237 616.001 1237 700.002 1246 c 0,28,29
 708.001 1247 708.001 1247 717.501 1248.5 c 128,-1,30
 727 1250 727 1250 736.001 1250 c 0,0,1
690.002 614.505 m 0,31,32
 640.002 636.004 640.002 636.004 583.502 636.005 c 128,-1,33
 527.001 636.005 527.001 636.005 489.001 627.003 c 128,-1,34
 451.001 618.003 451.001 618.003 419.501 606.003 c 128,-1,35
 388.001 594.003 388.001 594.003 364.001 582.003 c 128,-1,36
 340.001 570.003 340.001 570.003 327.001 564.003 c 1,37,38
 326 553.003 326 553.003 326.001 543.504 c 2,39,-1
 326.001 524.004 l 2,40,41
 326.001 207.463 326.001 207.463 474.501 95.0049 c 0,42,43
 526 56.0049 526 56.0049 593.001 56.0049 c 128,-1,44
 660.001 56.0049 660.001 56.0049 704.001 85.0049 c 128,-1,45
 748 114.004 748 114.004 776.501 159.005 c 0,46,47
 833 248.214 833 248.214 833.001 364.005 c 0,48,49
 833.001 553.016 833.001 553.016 690.002 614.505 c 0,31,32
EndSplineSet
EndChar

StartChar: seven
Encoding: 55 55 24
Width: 870
GlyphClass: 2
Flags: HW
LayerCount: 2
Fore
SplineSet
572.499 1199 m 2,0,1
 745.052 1199 745.052 1199 854.999 1201 c 1,2,-1
 869.999 1149 l 1,3,4
 754.462 915.105 754.462 915.105 654.5 591.5 c 1,5,-1
 600 409 l 1,6,7
 542 205 542 205 495 0 c 1,8,-1
 285 0 l 1,9,10
 343 207 343 207 412.997 407.003 c 1,11,-1
 477.997 584.003 l 1,12,13
 601.76 909.326 601.76 909.326 725.996 1097 c 1,14,-1
 293.996 1069 l 1,15,16
 236.837 1066.88 236.837 1066.88 218.917 1053.44 c 0,17,18
 188.687 1030.77 188.687 1030.77 177.842 987.384 c 128,-1,19
 166.997 944 166.997 944 159.996 923.5 c 128,-1,20
 152.996 903 152.996 903 143.996 886.999 c 0,21,22
 123.746 850.997 123.746 850.997 108.996 850.998 c 1,23,-1
 88.998 854.998 l 1,24,-1
 111.998 1200 l 1,25,26
 117.998 1202 117.998 1202 121.998 1201.5 c 128,-1,27
 125.999 1201 125.999 1201 129.999 1201 c 2,28,-1
 414.999 1199 l 1,29,-1
 572.499 1199 l 2,0,1
EndSplineSet
EndChar

StartChar: eight
Encoding: 56 56 25
Width: 953
GlyphClass: 2
Flags: HW
LayerCount: 2
Fore
SplineSet
68.5 157 m 128,-1,1
 40 212 40 212 40 271.997 c 128,-1,2
 40 331.993 40 331.993 62.001 380.493 c 128,-1,3
 84.0015 428.993 84.0015 428.993 121.002 470.993 c 0,4,5
 179.024 536.855 179.024 536.855 307.002 622.993 c 1,6,7
 208.835 695.451 208.835 695.451 168.918 748.222 c 0,8,9
 95.0019 845.94 95.0019 845.94 95.001 942.993 c 0,10,11
 95.001 1058.75 95.001 1058.75 192.001 1130.49 c 0,12,13
 295.439 1207 295.439 1207 474 1206.99 c 0,14,15
 637.399 1206.99 637.399 1206.99 726.5 1126 c 0,16,17
 798.999 1060.09 798.999 1060.09 799 971.996 c 0,18,19
 799 842.639 799 842.639 678.5 736.997 c 0,20,21
 642 704.998 642 704.998 600 672.998 c 1,22,23
 738.819 586.237 738.819 586.237 790.909 524.618 c 0,24,25
 893.001 403.851 893.001 403.851 893 263.999 c 0,26,27
 893 67.5316 893 67.5316 663 -2.00195 c 0,28,29
 577 -28.0015 577 -28.0015 465.5 -28.0017 c 128,-1,30
 354 -28.002 354 -28.002 279 -4.50195 c 128,-1,31
 204 18.9985 204 18.9985 150.5 60.499 c 128,-1,0
 96.9995 102 96.9995 102 68.5 157 c 128,-1,1
530.001 487.994 m 2,32,-1
 432.001 551.994 l 1,33,-1
 333.001 486.494 l 1,34,35
 172.001 375.162 172.001 375.162 172.001 272.077 c 128,-1,36
 172.001 168.993 172.001 168.993 245.501 104.993 c 128,-1,37
 319.001 40.9927 319.001 40.9927 451.353 40.9929 c 128,-1,38
 583.706 40.9932 583.706 40.9932 638.353 111.106 c 128,-1,39
 693 181.219 693 181.219 693 280.851 c 128,-1,40
 693.001 380.483 693.001 380.483 530.001 487.994 c 2,32,-1
671.002 977.993 m 0,41,42
 671.002 1143.99 671.002 1143.99 474 1143.99 c 0,43,44
 377 1143.99 377 1143.99 324.999 1104.99 c 128,-1,45
 272.999 1065.99 272.999 1065.99 272.999 1010.99 c 128,-1,46
 272.999 955.994 272.999 955.994 289.504 921.992 c 128,-1,47
 306.004 887.992 306.004 887.992 335.004 857.992 c 0,48,49
 383.874 807.436 383.874 807.436 484.002 745.992 c 1,50,51
 578.101 807.266 578.101 807.266 611.551 844.13 c 0,52,53
 671.003 909.648 671.003 909.648 671.002 977.993 c 0,41,42
EndSplineSet
EndChar

StartChar: nine
Encoding: 57 57 26
Width: 1052
GlyphClass: 2
Flags: HW
LayerCount: 2
Fore
SplineSet
728.999 534.999 m 1,0,1
 603.009 486 603.009 486 468.004 485.999 c 128,-1,2
 332.999 485.998 332.999 485.998 255.999 513.498 c 128,-1,3
 179 540.998 179 540.998 129.999 588.998 c 0,4,5
 35.0001 682.057 35.0001 682.057 34.999 841.998 c 0,6,7
 34.999 984.031 34.999 984.031 134.499 1085.5 c 0,8,9
 248.74 1202 248.74 1202 448.999 1202 c 0,10,11
 716.798 1202 716.798 1202 845.999 1029 c 0,12,13
 955.999 881.709 955.999 881.709 955.999 626.999 c 0,14,15
 955.999 402.181 955.999 402.181 788 207.999 c 0,16,17
 633.506 29.4277 633.506 29.4277 380 -67.501 c 0,18,19
 343.203 -81.809 343.203 -81.809 337.101 -67.4026 c 128,-1,20
 330.999 -52.9962 330.999 -52.9962 332.498 -43.502 c 128,-1,21
 333.998 -34.0024 333.998 -34.0024 337.998 -27.002 c 0,22,23
 344.798 -15.1018 344.798 -15.1018 352.998 -11 c 0,24,25
 469.859 32.8234 469.859 32.8234 579.999 188.5 c 0,26,27
 693.831 349.395 693.831 349.395 728.999 534.999 c 1,0,1
376.498 570.498 m 0,28,29
 425.998 548.999 425.998 548.999 485.998 548.998 c 128,-1,30
 545.999 548.998 545.999 548.998 586 555.999 c 128,-1,31
 626 563 626 563 656.5 572.499 c 128,-1,32
 687 581.999 687 581.999 706.999 590.999 c 128,-1,33
 726.999 599.999 726.999 599.999 737.998 603.999 c 1,34,35
 740.998 632 740.998 632 740.998 692 c 128,-1,36
 740.998 752 740.998 752 725.498 836.499 c 128,-1,37
 709.999 920.999 709.999 920.999 676.998 985.998 c 0,38,39
 604.398 1129 604.398 1129 467.998 1129 c 0,40,41
 355.732 1129 355.732 1129 290.498 1026 c 0,42,43
 233.999 936.789 233.999 936.789 233.998 820.998 c 0,44,45
 233.998 632.39 233.998 632.39 376.498 570.498 c 0,28,29
EndSplineSet
EndChar

StartChar: colon
Encoding: 58 58 27
Width: 702
GlyphClass: 2
Flags: HW
LayerCount: 2
Fore
SplineSet
210 960 m 128,-1,1
 198 987 198 987 198 1016 c 128,-1,2
 198 1045 198 1045 209.998 1072 c 128,-1,3
 221.998 1099 221.998 1099 242.498 1119.5 c 128,-1,4
 262.999 1140 262.999 1140 290.999 1152.5 c 128,-1,5
 319 1165 319 1165 350.999 1165 c 128,-1,6
 382.999 1165 382.999 1165 410.999 1152.5 c 128,-1,7
 439 1140 439 1140 459.5 1119.5 c 128,-1,8
 480 1099 480 1099 492 1072 c 128,-1,9
 504 1045 504 1045 504 1017 c 128,-1,10
 504 989 504 989 492 962.499 c 128,-1,11
 480 935.999 480 935.999 459.5 914.999 c 128,-1,12
 439 893.999 439 893.999 410.999 881.499 c 128,-1,13
 382.999 869 382.999 869 350.999 868.999 c 128,-1,14
 319 868.999 319 868.999 291.5 880.499 c 128,-1,15
 264 892 264 892 243 912.5 c 128,-1,0
 222 933 222 933 210 960 c 128,-1,1
209.998 75 m 128,-1,17
 197.998 102 197.998 102 197.998 131 c 128,-1,18
 197.998 160 197.998 160 209.996 187 c 128,-1,19
 221.996 214 221.996 214 242.496 234.5 c 128,-1,20
 262.997 255 262.997 255 290.997 267.5 c 128,-1,21
 318.998 280 318.998 280 350.997 280 c 128,-1,22
 382.997 280 382.997 280 410.997 267.5 c 128,-1,23
 438.998 255 438.998 255 459.498 234.5 c 128,-1,24
 479.999 214 479.999 214 491.998 187 c 128,-1,25
 503.998 160 503.998 160 503.998 132 c 128,-1,26
 503.998 104 503.998 104 491.998 77.499 c 128,-1,27
 479.998 50.9985 479.998 50.9985 459.498 29.999 c 128,-1,28
 438.998 8.99902 438.998 8.99902 410.997 -3.50098 c 128,-1,29
 382.997 -16.0005 382.997 -16.0005 350.997 -16.001 c 128,-1,30
 318.998 -16.001 318.998 -16.001 291.498 -4.50098 c 128,-1,31
 263.999 6.99951 263.999 6.99951 242.998 27.5 c 128,-1,16
 221.998 48.0005 221.998 48.0005 209.998 75 c 128,-1,17
EndSplineSet
EndChar

StartChar: semicolon
Encoding: 59 59 28
Width: 702
GlyphClass: 2
Flags: HW
LayerCount: 2
Fore
SplineSet
350.999 280 m 0,0,1
 516.996 280 516.996 280 516.998 58 c 0,2,3
 516.998 -58.1176 516.998 -58.1176 434.998 -136.5 c 0,4,5
 370.534 -198.12 370.534 -198.12 296.998 -206 c 0,6,7
 245.679 -212.415 245.679 -212.415 238.998 -174 c 0,8,9
 236.02 -151.657 236.02 -151.657 267.499 -136.501 c 2,10,-1
 297.999 -122.501 l 1,11,12
 364.001 -93.3816 364.001 -93.3816 364 -16.001 c 1,13,14
 243.89 -16.001 243.89 -16.001 208.5 75 c 0,15,16
 198 102 198 102 198 131 c 128,-1,17
 198 160 198 160 209 187 c 128,-1,18
 220 214 220 214 239.999 234.5 c 0,19,20
 284.386 279.999 284.386 279.999 350.999 280 c 0,0,1
210 960 m 128,-1,22
 198 987 198 987 198 1016 c 128,-1,23
 198 1045 198 1045 209.998 1072 c 128,-1,24
 221.998 1099 221.998 1099 242.498 1119.5 c 128,-1,25
 262.999 1140 262.999 1140 290.999 1152.5 c 128,-1,26
 319 1165 319 1165 350.999 1165 c 128,-1,27
 382.999 1165 382.999 1165 410.999 1152.5 c 128,-1,28
 439 1140 439 1140 459.5 1119.5 c 128,-1,29
 480 1099 480 1099 492 1072 c 128,-1,30
 504 1045 504 1045 504 1017 c 128,-1,31
 504 989 504 989 492 962.499 c 128,-1,32
 480 935.999 480 935.999 459.5 914.999 c 128,-1,33
 439 893.999 439 893.999 410.999 881.499 c 128,-1,34
 382.999 869 382.999 869 350.999 868.999 c 128,-1,35
 319 868.999 319 868.999 291.5 880.499 c 128,-1,36
 264 892 264 892 243 912.5 c 128,-1,21
 222 933 222 933 210 960 c 128,-1,22
EndSplineSet
EndChar

StartChar: less
Encoding: 60 60 29
Width: 938
GlyphClass: 2
Flags: HW
LayerCount: 2
Fore
SplineSet
539.999 68.999 m 0,0,1
 539.999 18.001 539.999 18.001 495 18 c 0,2,3
 473 18 473 18 455.998 24.001 c 128,-1,4
 438.999 30.001 438.999 30.001 418.999 59.001 c 2,5,-1
 79.999 553.001 l 1,6,-1
 434.999 1024 l 1,7,8
 466.059 1068 466.059 1068 492.529 1068 c 128,-1,9
 519 1068 519 1068 538.499 1049.5 c 128,-1,10
 557.999 1031 557.999 1031 557.999 1018 c 0,11,12
 557.999 992.334 557.999 992.334 529.999 955.001 c 1,13,-1
 210.999 553.001 l 1,14,-1
 519.999 124.001 l 2,15,16
 539.999 94.9079 539.999 94.9079 539.999 68.999 c 0,0,1
EndSplineSet
EndChar

StartChar: equal
Encoding: 61 61 30
Width: 0
GlyphClass: 2
Flags: HW
LayerCount: 2
Fore
SplineSet
714 729 m 2,0,1
 825.631 729 825.631 729 842.999 701.5 c 0,2,3
 848.999 692 848.999 692 848.999 678 c 128,-1,4
 848.999 664 848.999 664 843.499 655.5 c 128,-1,5
 837.999 647 837.999 647 822.999 642.999 c 0,6,7
 800.494 636.997 800.494 636.997 713.999 636.998 c 2,8,-1
 401.999 636.998 l 2,9,10
 285.525 636.998 285.525 636.998 272.499 659.498 c 0,11,12
 258.443 683.774 258.443 683.774 268.221 698.887 c 128,-1,13
 278 714 278 714 292.5 719.5 c 0,14,15
 317.542 728.999 317.542 728.999 399 729 c 2,16,-1
 714 729 l 2,0,1
713.998 487 m 2,17,18
 825.629 487 825.629 487 842.997 459.5 c 0,19,20
 848.997 450 848.997 450 848.997 436 c 128,-1,21
 848.997 422 848.997 422 843.497 413.5 c 128,-1,22
 837.997 405 837.997 405 822.997 400.999 c 0,23,24
 800.492 394.997 800.492 394.997 713.997 394.998 c 2,25,-1
 401.997 394.998 l 2,26,27
 285.523 394.998 285.523 394.998 272.497 417.498 c 0,28,29
 258.441 441.774 258.441 441.774 268.219 456.887 c 128,-1,30
 277.998 472 277.998 472 292.498 477.5 c 0,31,32
 317.54 486.999 317.54 486.999 398.998 487 c 2,33,-1
 713.998 487 l 2,17,18
EndSplineSet
EndChar

StartChar: greater
Encoding: 62 62 31
Width: 938
GlyphClass: 2
Flags: HW
LayerCount: 2
Fore
SplineSet
463 18 m 0,0,1
 418 18 418 18 417.999 68.998 c 0,2,3
 417.999 94.9082 417.999 94.9082 437.999 124 c 2,4,-1
 746.999 553 l 1,5,-1
 427.999 955 l 1,6,7
 400.001 992.335 400.001 992.335 400 1011.67 c 128,-1,8
 399.999 1031 399.999 1031 419.499 1049.5 c 128,-1,9
 438.999 1068 438.999 1068 459.999 1068 c 0,10,11
 491.94 1068 491.94 1068 522.999 1024 c 1,12,-1
 877.999 553 l 1,13,-1
 538.999 59 l 2,14,15
 519 30.0005 519 30.0005 502 24 c 128,-1,16
 485 18 485 18 463 18 c 0,0,1
EndSplineSet
EndChar

StartChar: question
Encoding: 63 63 32
Width: 856
GlyphClass: 2
Flags: HW
LayerCount: 2
Fore
SplineSet
316.001 358.001 m 1,0,1
 254.029 452.783 254.029 452.783 307.502 551.001 c 0,2,3
 348.355 626.039 348.355 626.039 419.678 699.019 c 128,-1,4
 491.001 772 491.001 772 527.501 817 c 0,5,6
 612.999 922.41 612.999 922.41 613 1008 c 0,7,8
 613 1078.05 613 1078.05 546.5 1117.5 c 0,9,10
 463.514 1166.73 463.514 1166.73 349.5 1146 c 0,11,12
 293.18 1135.76 293.18 1135.76 274.09 1114.38 c 128,-1,13
 255 1093 255 1093 255 1075.5 c 128,-1,14
 255 1058 255 1058 265.002 1037.5 c 128,-1,15
 275.002 1017 275.002 1017 275.002 996 c 128,-1,16
 275.002 975 275.002 975 267.502 959 c 128,-1,17
 260.002 943 260.002 943 247.502 930.5 c 0,18,19
 202.003 885.001 202.003 885.001 145.002 910.501 c 0,20,21
 106.523 927.716 106.523 927.716 88.5 968.001 c 0,22,23
 79.9995 987.001 79.9995 987.001 79.9998 1022 c 128,-1,24
 80 1057 80 1057 106 1093.5 c 128,-1,25
 132 1130 132 1130 175 1154 c 0,26,27
 261.001 1202 261.001 1202 360.501 1202 c 128,-1,28
 460 1202 460 1202 529 1186.5 c 128,-1,29
 598 1171 598 1171 653 1141 c 0,30,31
 776.002 1073.91 776.002 1073.91 776.001 964 c 0,32,33
 776.001 797.695 776.001 797.695 585.501 663.001 c 0,34,35
 466.495 578.856 466.495 578.856 430.748 528.429 c 0,36,37
 375.956 451.136 375.956 451.136 407.001 358.001 c 1,38,-1
 316.001 358.001 l 1,0,1
249.002 121.001 m 128,-1,40
 249.002 147 249.002 147 258.502 169.501 c 128,-1,41
 268.001 192.001 268.001 192.001 284.002 209.001 c 128,-1,42
 300.002 226 300.002 226 322.003 235.5 c 128,-1,43
 344.003 245 344.003 245 370.003 245 c 128,-1,44
 396.002 245 396.002 245 419.002 235.5 c 128,-1,45
 442.001 226 442.001 226 458.502 209.001 c 128,-1,46
 475.002 192.001 475.002 192.001 484.502 169.501 c 128,-1,47
 494.001 147.001 494.001 147.001 494.002 121.001 c 128,-1,48
 494.002 95.0015 494.002 95.0015 484.502 73.001 c 128,-1,49
 475.002 51.0005 475.002 51.0005 458.502 35 c 128,-1,50
 442.002 18.9995 442.002 18.9995 419.002 9.5 c 128,-1,51
 396.002 0.000488281 396.002 0.000488281 370.003 0 c 128,-1,52
 344.003 0 344.003 0 322.003 9.5 c 128,-1,53
 300.002 18.9995 300.002 18.9995 284.002 35 c 128,-1,54
 268.001 51.0005 268.001 51.0005 258.502 73.001 c 128,-1,39
 249.002 95.0015 249.002 95.0015 249.002 121.001 c 128,-1,40
EndSplineSet
EndChar

StartChar: at
Encoding: 64 64 33
Width: 1816
GlyphClass: 2
Flags: HW
LayerCount: 2
Fore
SplineSet
1155 -69.999 m 1,0,1
 1008 -118.999 1008 -118.999 886.501 -118.999 c 128,-1,2
 764.999 -118.999 764.999 -118.999 676.999 -99.499 c 128,-1,3
 588.999 -79.999 588.999 -79.999 511.999 -42.499 c 128,-1,4
 435 -4.99902 435 -4.99902 371.5 49.501 c 128,-1,5
 308 104 308 104 262.501 175 c 0,6,7
 166.001 325.583 166.001 325.583 166.001 517.999 c 0,8,9
 166.001 836.158 166.001 836.158 364.5 1066 c 0,10,11
 501.715 1224.88 501.715 1224.88 719 1288.5 c 0,12,13
 830 1321 830 1321 964 1321 c 128,-1,14
 1098 1321 1098 1321 1206 1292 c 128,-1,15
 1314 1263 1314 1263 1398.5 1212.5 c 128,-1,16
 1483 1162 1483 1162 1543.5 1093.5 c 128,-1,17
 1604 1025 1604 1025 1643.5 947.499 c 0,18,19
 1721 795.437 1721 795.437 1721 619.999 c 0,20,21
 1721 414.3 1721 414.3 1604.5 264.999 c 0,22,23
 1553 198.999 1553 198.999 1488.5 161.499 c 128,-1,24
 1424 123.999 1424 123.999 1359.5 123.999 c 128,-1,25
 1295 123.999 1295 123.999 1237.5 169.499 c 128,-1,26
 1180 214.999 1180 214.999 1146 314.999 c 1,27,28
 1097 244 1097 244 1024 209.999 c 128,-1,29
 951.001 175.999 951.001 175.999 882.002 175.999 c 128,-1,30
 813.002 175.999 813.002 175.999 755.502 196.499 c 128,-1,31
 698.002 217 698.002 217 653.502 257.499 c 0,32,33
 555.002 347.144 555.002 347.144 555.002 496.999 c 0,34,35
 555.002 709.747 555.002 709.747 661.503 868.998 c 0,36,37
 782.549 1050 782.549 1050 986.003 1050 c 0,38,39
 1127.09 1050 1127.09 1050 1211 949.499 c 0,40,41
 1303 839.316 1303 839.316 1303 630.998 c 2,42,-1
 1303 310.998 l 2,43,44
 1303 246.998 1303 246.998 1327 210.498 c 128,-1,45
 1351 173.999 1351 173.999 1379.5 173.998 c 128,-1,46
 1408 173.998 1408 173.998 1433.5 195.498 c 128,-1,47
 1459 216.998 1459 216.998 1479.5 264.498 c 0,48,49
 1527 374.558 1527 374.558 1527 559.279 c 128,-1,50
 1527 744 1527 744 1478.5 875.5 c 128,-1,51
 1430 1007 1430 1007 1350.5 1094.5 c 0,52,53
 1192.86 1268 1192.86 1268 960.003 1268 c 0,54,55
 726.899 1268 726.899 1268 558.502 1090.5 c 0,56,57
 376.003 898.138 376.003 898.138 376.002 566.001 c 0,58,59
 376.002 396.936 376.002 396.936 408.501 302.969 c 128,-1,60
 441 209.002 441 209.002 480.5 152.502 c 128,-1,61
 520 96.0015 520 96.0015 580 54.501 c 0,62,63
 706.503 -32.9981 706.503 -32.9981 914 -32.999 c 0,64,65
 1033 -32.999 1033 -32.999 1153 3.00098 c 1,66,-1
 1155 -69.999 l 1,0,1
1140 633.001 m 2,67,68
 1140 818.602 1140 818.602 1088.51 920.501 c 0,69,70
 1042.77 1011 1042.77 1011 969.004 1011 c 0,71,72
 876.658 1011 876.658 1011 805.503 879 c 0,73,74
 727.002 733.374 727.002 733.374 727.003 512.999 c 0,75,76
 727.003 332.615 727.003 332.615 824.003 267 c 0,77,78
 895.127 218.889 895.127 218.889 1017 270 c 0,79,80
 1082.51 297.469 1082.51 297.469 1140 351.001 c 1,81,-1
 1140 633.001 l 2,67,68
EndSplineSet
EndChar

StartChar: A
Encoding: 65 65 34
Width: 1319
GlyphClass: 2
Flags: HW
LayerCount: 2
Fore
SplineSet
490.002 28.002 m 1,0,1
 497.469 22.4025 497.469 22.4025 490.002 0.00195312 c 1,2,-1
 19.002 0.00195312 l 1,3,4
 0.669694 36.6598 0.669694 36.6598 54.502 50.502 c 0,5,6
 72.0024 55.002 72.0024 55.002 93.502 59.502 c 128,-1,7
 115.001 64.002 115.001 64.002 135.001 72.002 c 0,8,9
 182.425 90.9708 182.425 90.9708 196.001 130.002 c 2,10,-1
 555.001 1098 l 1,11,12
 591.507 1204.71 591.507 1204.71 617.001 1220 c 0,13,14
 627.001 1226 627.001 1226 635.501 1226 c 128,-1,15
 644.001 1226 644.001 1226 649.001 1225 c 128,-1,16
 654 1224 654 1224 663.001 1214 c 0,17,18
 684.333 1190.3 684.333 1190.3 714 1117 c 2,19,-1
 1108 124 l 2,20,21
 1128.48 71.666 1128.48 71.666 1219.5 57.5068 c 0,22,23
 1275.55 48.7896 1275.55 48.7896 1289.77 39.8982 c 128,-1,24
 1304 31.0068 1304 31.0068 1304 22.0066 c 128,-1,25
 1304 13.0063 1304 13.0063 1300 0.00585938 c 1,26,-1
 706.001 0.00585938 l 1,27,28
 701.001 10.0063 701.001 10.0063 701.001 19.5059 c 128,-1,29
 701.001 29.0054 701.001 29.0054 722.001 37.0049 c 128,-1,30
 743.001 45.0044 743.001 45.0044 770.501 51.5039 c 128,-1,31
 798 58.0034 798 58.0034 824.501 63.0029 c 128,-1,32
 851.001 68.0024 851.001 68.0024 866.001 75.0022 c 0,33,34
 892.125 87.1926 892.125 87.1926 875.001 130.002 c 1,35,-1
 748.001 514.002 l 1,36,-1
 419.001 514.002 l 1,37,-1
 276.001 124.002 l 2,38,39
 260.202 80.5608 260.202 80.5608 294.001 67.502 c 0,40,41
 316.001 59.0015 316.001 59.0015 348.502 55.502 c 0,42,43
 454.645 44.0729 454.645 44.0729 490.002 28.002 c 1,0,1
439.001 574.006 m 1,44,-1
 725.001 574.006 l 1,45,-1
 573.001 981.006 l 1,46,-1
 439.001 574.006 l 1,44,-1
EndSplineSet
EndChar

StartChar: B
Encoding: 66 66 35
Width: 1286
GlyphClass: 2
Flags: HW
LayerCount: 2
Fore
SplineSet
442 582 m 1,0,-1
 441.997 130 l 2,1,2
 441.997 68.1538 441.997 68.1538 497.997 66 c 2,3,-1
 654.997 60 l 2,4,5
 826.835 54.335 826.835 54.335 919.999 128 c 0,6,7
 1004 194.42 1004 194.42 1004 298 c 0,8,9
 1004 405.592 1004 405.592 919.5 485 c 0,10,11
 826.717 572.193 826.717 572.193 682 576 c 2,12,-1
 442 582 l 1,0,-1
730.496 1093.5 m 0,13,14
 639.997 1116 639.997 1116 559.997 1116 c 128,-1,15
 479.998 1116 479.998 1116 468.494 1112.5 c 128,-1,16
 456.994 1109 456.994 1109 450.994 1100.5 c 0,17,18
 441.994 1087.75 441.994 1087.75 441.994 1040 c 2,19,-1
 441.994 636 l 1,20,-1
 679.994 642 l 2,21,22
 810.182 645.885 810.182 645.885 890.996 712.5 c 0,23,24
 966.996 775.147 966.996 775.147 966.996 862 c 0,25,26
 966.996 1034.7 966.996 1034.7 730.496 1093.5 c 0,13,14
549.994 1176 m 2,27,28
 1138.99 1176 1138.99 1176 1138.99 863 c 0,29,30
 1138.99 773.839 1138.99 773.839 1062.99 704 c 0,31,32
 984.384 631.763 984.384 631.763 849.994 612 c 1,33,34
 1021.81 594.819 1021.81 594.819 1124.99 506.999 c 0,35,36
 1219.99 426.146 1219.99 426.146 1219.99 317.998 c 0,37,38
 1219.99 101.85 1219.99 101.85 927.994 27.498 c 0,39,40
 819.994 -0.00146484 819.994 -0.00146484 657.994 -0.00195312 c 2,41,-1
 15.9941 -0.00195312 l 1,42,43
 1.14969 29.6913 1.14969 29.6913 22.0722 38.8454 c 128,-1,44
 42.9946 47.9995 42.9946 47.9995 66.9941 50.5 c 128,-1,45
 90.9941 53.0005 90.9941 53.0005 118.994 55 c 128,-1,46
 146.995 56.9995 146.995 56.9995 170.994 64 c 0,47,48
 226.995 80.3347 226.995 80.3347 226.994 130 c 2,49,-1
 226.994 1020 l 2,50,51
 226.994 1079.64 226.994 1079.64 119.494 1107 c 2,52,-1
 67.9941 1120.5 l 2,53,54
 11.9934 1135.67 11.9934 1135.67 11.9941 1159 c 0,55,56
 11.9941 1161 11.9941 1161 15.9941 1176 c 1,57,-1
 549.994 1176 l 2,27,28
EndSplineSet
EndChar

StartChar: C
Encoding: 67 67 36
Width: 1168
GlyphClass: 2
Flags: HW
LayerCount: 2
Fore
SplineSet
1098 868.001 m 1,0,1
 1075.99 864.001 1075.99 864.001 1065.5 864.001 c 0,2,3
 1045.17 864.001 1045.17 864.001 1012 938.001 c 1,4,-1
 986.999 996.001 l 2,5,6
 965.649 1047.6 965.649 1047.6 900.999 1088 c 0,7,8
 817.798 1140 817.798 1140 716.899 1140 c 128,-1,9
 616 1140 616 1140 539 1104.5 c 128,-1,10
 462 1069 462 1069 403.5 1003.5 c 0,11,12
 276 860.743 276 860.743 276 636 c 0,13,14
 276 362.102 276 362.102 417.499 226.004 c 0,15,16
 542.262 106.004 542.262 106.004 760 106.004 c 0,17,18
 916.069 106.004 916.069 106.004 1094 166.003 c 1,19,20
 1107 166.003 1107 166.003 1107 148.003 c 0,21,22
 1107 141.002 1107 141.002 1102 138.003 c 0,23,24
 893.488 -27.9971 893.488 -27.9971 637 -27.9971 c 0,25,26
 395.431 -27.9971 395.431 -27.9971 237 123.503 c 0,27,28
 61.9991 290.849 61.9991 290.849 62 590.002 c 0,29,30
 62 886.478 62 886.478 269.5 1051.5 c 0,31,32
 458.739 1202 458.739 1202 733.999 1202 c 0,33,34
 912.645 1202 912.645 1202 1067 1138 c 1,35,-1
 1098 868.001 l 1,0,1
EndSplineSet
EndChar

StartChar: D
Encoding: 68 68 37
Width: 1346
GlyphClass: 2
Flags: HW
LayerCount: 2
Fore
SplineSet
16 0 m 1,0,1
 11 10.0015 11 10.0015 11 22 c 128,-1,2
 11 33.9985 11 33.9985 27 40.999 c 128,-1,3
 43.0005 47.9995 43.0005 47.9995 67 50.5 c 128,-1,4
 91 53.0005 91 53.0005 119 55 c 128,-1,5
 147 56.9995 147 56.9995 171 64 c 0,6,7
 227.001 80.3347 227.001 80.3347 227 130 c 2,8,-1
 227 1020 l 2,9,10
 227 1081.09 227 1081.09 119.5 1106.5 c 0,11,12
 53.0057 1122.21 53.0057 1122.21 32.5026 1133.11 c 128,-1,13
 11.9995 1144 11.9995 1144 12 1159 c 0,14,15
 12 1161 12 1161 16 1176 c 1,16,-1
 550 1176 l 2,17,18
 1073.44 1176 1073.44 1176 1231 848.999 c 0,19,20
 1284 739 1284 739 1284 597 c 128,-1,21
 1284 455 1284 455 1237 345.5 c 128,-1,22
 1190 236 1190 236 1106.5 159.5 c 0,23,24
 932.403 -0.000983501 932.403 -0.000983501 655 0 c 2,25,-1
 16 0 l 1,0,1
442 1112 m 1,26,-1
 441.999 76.9971 l 1,27,-1
 500.999 68.9971 l 1,28,29
 660.547 50.5873 660.547 50.5873 741.773 78.2924 c 128,-1,30
 822.999 105.998 822.999 105.998 873.499 142.497 c 128,-1,31
 924 178.997 924 178.997 961 227.997 c 128,-1,32
 998 276.998 998 276.998 1022 330.498 c 0,33,34
 1069 435.272 1069 435.272 1069 545.998 c 0,35,36
 1069 1112 1069 1112 570 1112 c 2,37,-1
 442 1112 l 1,26,-1
EndSplineSet
EndChar

StartChar: E
Encoding: 69 69 38
Width: 1254
GlyphClass: 2
Flags: HW
LayerCount: 2
Fore
SplineSet
1153.06 346 m 128,-1,1
 1159.13 346 1159.13 346 1181 341 c 1,2,-1
 1153 -18 l 2,3,4
 1153 -22.9995 1153 -22.9995 1145 -22.9998 c 128,-1,5
 1137 -23 1137 -23 1131 -20 c 128,-1,6
 1125 -17 1125 -17 1107 -13.5 c 128,-1,7
 1089 -10.0005 1089 -10.0005 1067 -7 c 0,8,9
 1015.67 -0.000965444 1015.67 -0.000965444 986 0 c 2,10,-1
 17 0 l 2,11,12
 12.0005 0 12.0005 0 12.0007 15.0012 c 128,-1,13
 12.001 30.0024 12.001 30.0024 27.001 38.002 c 128,-1,14
 42.001 46.0015 42.001 46.0015 65.001 49.501 c 128,-1,15
 88.0005 53.0005 88.0005 53.0005 114.501 54.501 c 128,-1,16
 141.001 56.001 141.001 56.001 164.001 62.501 c 0,17,18
 217.001 77.4784 217.001 77.4784 217.001 130.001 c 2,19,-1
 217.001 1020 l 2,20,21
 217.001 1081.71 217.001 1081.71 114.001 1106.5 c 0,22,23
 52.2983 1121.35 52.2983 1121.35 31.6499 1132.68 c 0,24,25
 -0.225772 1150.16 -0.225772 1150.16 17.001 1176 c 1,26,-1
 993.001 1176 l 2,27,28
 1046.66 1176 1046.66 1176 1140 1196 c 1,29,30
 1149 1191.5 1149 1191.5 1149 1188 c 2,31,-1
 1156 880.001 l 1,32,33
 1142 874.001 1142 874.001 1128 874.001 c 128,-1,34
 1114 874.001 1114 874.001 1103.5 892.001 c 128,-1,35
 1093 910.001 1093 910.001 1085.5 936.501 c 128,-1,36
 1078 963.001 1078 963.001 1071 994.501 c 128,-1,37
 1064 1026 1064 1026 1052 1053.5 c 0,38,39
 1024.62 1116.25 1024.62 1116.25 967.001 1118 c 2,40,-1
 489.001 1129 l 2,41,42
 451.94 1129 451.94 1129 443.47 1117 c 0,43,44
 432 1100.75 432 1100.75 432 1053 c 2,45,-1
 432 641.001 l 1,46,-1
 823 653.001 l 2,47,48
 851 654.001 851 654.001 868 675.501 c 128,-1,49
 885 697 885 697 898.5 722.501 c 128,-1,50
 912 748.001 912 748.001 926 769.501 c 128,-1,51
 940 791 940 791 952.832 791.001 c 128,-1,52
 965.664 791.001 965.664 791.001 984 786.001 c 1,53,-1
 984 444.001 l 1,54,55
 972 438.001 972 438.001 958.5 438.001 c 128,-1,56
 945 438.001 945 438.001 931.001 459.501 c 128,-1,57
 917.001 481 917.001 481 902.001 506.501 c 0,58,59
 862.001 574.5 862.001 574.5 823.001 576.001 c 2,60,-1
 432.001 584.001 l 1,61,-1
 432.001 136.001 l 2,62,63
 432.001 56.0018 432.001 56.0018 477 56.001 c 1,64,-1
 942 67.001 l 2,65,66
 1009.46 69.1101 1009.46 69.1101 1032.73 89.056 c 0,67,68
 1070.64 121.546 1070.64 121.546 1092 207.002 c 0,69,70
 1114.54 300.912 1114.54 300.912 1130.77 323.456 c 128,-1,0
 1147 346 1147 346 1153.06 346 c 128,-1,1
EndSplineSet
EndChar

StartChar: F
Encoding: 70 70 39
Width: 1159
GlyphClass: 2
Flags: HW
LayerCount: 2
Fore
SplineSet
883.999 792.5 m 128,-1,1
 897.999 814 897.999 814 910.831 814 c 128,-1,2
 923.663 814 923.663 814 941.999 809 c 1,3,-1
 941.999 467 l 1,4,5
 929.999 461 929.999 461 919.499 461 c 128,-1,6
 909 461 909 461 898.999 471.5 c 128,-1,7
 888.999 482 888.999 482 879.499 497 c 128,-1,8
 870 512 870 512 859.999 530 c 128,-1,9
 849.999 548 849.999 548 837.999 563 c 0,10,11
 809.199 599 809.199 599 781 599 c 2,12,-1
 442 605 l 1,13,-1
 442 130 l 2,14,15
 442 69.0006 442 69.0006 563.497 55.501 c 0,16,17
 644.997 46.4466 644.997 46.4466 664.997 39.225 c 128,-1,18
 684.997 32.0034 684.997 32.0034 684.997 19.3352 c 128,-1,19
 684.997 6.66688 684.997 6.66688 680.997 0.00195312 c 1,20,-1
 14.9971 0.00195312 l 1,21,22
 -0.225965 30.4424 -0.225965 30.4424 21.3858 39.2215 c 128,-1,23
 42.9976 48.0005 42.9976 48.0005 66.9971 50.501 c 128,-1,24
 90.9971 53.0015 90.9971 53.0015 118.997 55.001 c 128,-1,25
 146.998 57.0005 146.998 57.0005 170.997 63.5 c 0,26,27
 226.998 78.6658 226.998 78.6658 226.997 130 c 2,28,-1
 226.997 1020 l 2,29,30
 226.997 1080 226.997 1080 118.997 1107 c 1,31,-1
 66.9971 1120.5 l 2,32,33
 10.9963 1135.67 10.9963 1135.67 10.9971 1159 c 0,34,35
 10.9971 1161 10.9971 1161 14.9971 1176 c 1,36,-1
 924.997 1181 l 2,37,38
 985.998 1181 985.998 1181 1015.5 1186.5 c 0,39,40
 1058.46 1194.51 1058.46 1194.51 1078 1188 c 1,41,-1
 1085 880 l 1,42,43
 1072.5 875 1072.5 875 1057.75 875 c 128,-1,44
 1043 875 1043 875 1032.5 893 c 128,-1,45
 1022 911 1022 911 1014.5 937.5 c 128,-1,46
 1007 964 1007 964 999.998 995.5 c 128,-1,47
 992.998 1027 992.998 1027 980.498 1054 c 0,48,49
 951.66 1116.29 951.66 1116.29 896.998 1118 c 2,50,-1
 498.998 1128 l 1,51,52
 458.497 1128 458.497 1128 450.748 1112.5 c 0,53,54
 442 1095 442 1095 441.999 1052 c 2,55,-1
 441.999 664 l 1,56,-1
 780.999 676 l 2,57,58
 809 677 809 677 825.999 698.5 c 128,-1,59
 842.999 720 842.999 720 856.499 745.5 c 128,-1,0
 869.999 771 869.999 771 883.999 792.5 c 128,-1,1
EndSplineSet
EndChar

StartChar: G
Encoding: 71 71 40
Width: 1333
GlyphClass: 2
Flags: HW
LayerCount: 2
Fore
SplineSet
737 60 m 0,0,1
 822.335 60 822.335 60 857.669 66.4998 c 128,-1,2
 893.003 72.9995 893.003 72.9995 906.004 92 c 128,-1,3
 919.004 111 919.004 111 925.004 159 c 0,4,5
 934.004 231 934.004 231 934.004 502 c 0,6,7
 934.004 562.284 934.004 562.284 846.004 579.5 c 0,8,9
 788.503 590.75 788.503 590.75 773.253 598.375 c 0,10,11
 751.107 609.447 751.107 609.447 763.004 637.999 c 1,12,-1
 1289 637.999 l 1,13,14
 1296.63 609.415 1296.63 609.415 1284.32 601.207 c 128,-1,15
 1272 592.999 1272 592.999 1256 588.998 c 128,-1,16
 1240 584.998 1240 584.998 1221 580.997 c 128,-1,17
 1202 576.997 1202 576.997 1186 568.496 c 0,18,19
 1149 548.839 1149 548.839 1149 501.996 c 2,20,-1
 1149 122.996 l 2,21,22
 1149 68.5829 1149 68.5829 1016.5 21.4961 c 0,23,24
 877.215 -28.002 877.215 -28.002 709.003 -28.0029 c 0,25,26
 447.097 -28.0029 447.097 -28.0029 273.002 100.497 c 0,27,28
 62.002 256.235 62.002 256.235 62.002 589.997 c 0,29,30
 62.002 886.091 62.002 886.091 278.001 1052.5 c 0,31,32
 472.056 1202 472.056 1202 765 1202 c 0,33,34
 929.321 1202 929.321 1202 1041.5 1166.5 c 0,35,36
 1081 1154 1081 1154 1122 1138 c 1,37,-1
 1153 868.998 l 1,38,39
 1135 863.999 1135 863.999 1123 863.998 c 0,40,41
 1099.4 863.998 1099.4 863.998 1067.5 937.998 c 2,42,-1
 1043.5 995.498 l 1,43,44
 1008.17 1083.06 1008.17 1083.06 882.5 1122 c 0,45,46
 824.413 1140 824.413 1140 734.707 1140 c 128,-1,47
 645 1140 645 1140 557 1101 c 128,-1,48
 469 1062 469 1062 407 993.998 c 0,49,50
 276.999 851.416 276.999 851.416 277 635.999 c 0,51,52
 277 376.139 277 376.139 395 220.5 c 0,53,54
 516.687 60 516.687 60 737 60 c 0,0,1
EndSplineSet
EndChar

StartChar: H
Encoding: 72 72 41
Width: 1521
GlyphClass: 2
Flags: HW
LayerCount: 2
Fore
SplineSet
647 1176 m 1,0,1
 651.995 1161.01 651.995 1161.01 651.995 1152.01 c 128,-1,2
 651.995 1143 651.995 1143 635.495 1135.5 c 128,-1,3
 618.995 1128 618.995 1128 594.495 1123 c 128,-1,4
 569.996 1118 569.996 1118 541.495 1113 c 128,-1,5
 512.995 1108 512.995 1108 488.495 1098.5 c 0,6,7
 430.995 1076.2 430.995 1076.2 430.995 1030 c 2,8,-1
 430.995 635.999 l 1,9,-1
 1088 635.999 l 1,10,-1
 1088 1030 l 2,11,12
 1088 1090.6 1088 1090.6 983.497 1111.5 c 0,13,14
 915.694 1125.06 915.694 1125.06 897.347 1134.53 c 128,-1,15
 879 1144 879 1144 878.999 1159 c 0,16,17
 878.999 1161 878.999 1161 882.999 1176 c 1,18,-1
 1502 1176 l 1,19,20
 1507 1161 1507 1161 1507 1152.5 c 0,21,22
 1507 1135.5 1507 1135.5 1454 1123.5 c 2,23,-1
 1405 1112 l 2,24,25
 1303 1088.46 1303 1088.46 1303 1030 c 2,26,-1
 1303 123.997 l 2,27,28
 1303 64.7128 1303 64.7128 1406.5 52.998 c 0,29,30
 1472.46 45.5313 1472.46 45.5313 1491.23 38.2647 c 128,-1,31
 1510 30.998 1510 30.998 1510 16.998 c 0,32,33
 1510 12.9976 1510 12.9976 1506 -0.00292969 c 1,34,-1
 882.998 -0.00292969 l 1,35,36
 868.21 29.577 868.21 29.577 888.604 38.7878 c 128,-1,37
 908.998 47.9985 908.998 47.9985 932.498 50.499 c 128,-1,38
 955.999 52.9995 955.999 52.9995 982.998 54.999 c 128,-1,39
 1010 56.9985 1010 56.9985 1033.5 63.999 c 0,40,41
 1088 80.2336 1088 80.2336 1088 129.999 c 2,42,-1
 1088 575.999 l 1,43,-1
 430.998 575.999 l 1,44,-1
 430.998 123.999 l 2,45,46
 430.998 64.5845 430.998 64.5845 542.998 53 c 0,47,48
 614.978 45.5537 614.978 45.5537 634.988 38.2768 c 128,-1,49
 654.998 31 654.998 31 654.998 17 c 0,50,51
 654.998 12.9995 654.998 12.9995 650.998 -0.000976562 c 1,52,-1
 15.998 -0.000976562 l 1,53,54
 1.27 29.4594 1.27 29.4594 21.134 38.73 c 128,-1,55
 40.998 48.0005 40.998 48.0005 63.998 50.501 c 128,-1,56
 86.9976 53.0015 86.9976 53.0015 113.498 55.001 c 128,-1,57
 139.999 57.0005 139.999 57.0005 162.998 64.001 c 0,58,59
 215.998 80.1329 215.998 80.1329 215.998 130.001 c 2,60,-1
 215.998 1030 l 2,61,62
 215.998 1088.92 215.998 1088.92 113.999 1110.5 c 0,63,64
 49.049 1124.24 49.049 1124.24 30.5245 1134.12 c 128,-1,65
 12 1144 12 1144 12 1159 c 0,66,67
 12 1161 12 1161 16 1176 c 1,68,-1
 647 1176 l 1,0,1
EndSplineSet
EndChar

StartChar: I
Encoding: 73 73 42
Width: 734
GlyphClass: 2
Flags: HW
LayerCount: 2
Fore
SplineSet
249 1038 m 2,0,1
 249 1098.92 249 1098.92 134.5 1112.5 c 0,2,3
 61.7369 1121.13 61.7369 1121.13 40.8687 1131.57 c 128,-1,4
 20.0005 1142 20.0005 1142 20 1159 c 0,5,6
 20 1161 20 1161 24 1176 c 1,7,-1
 694 1176 l 1,8,9
 705.866 1143.38 705.866 1143.38 684.433 1134.19 c 128,-1,10
 663 1125 663 1125 637 1122 c 128,-1,11
 611 1119 611 1119 581 1117 c 128,-1,12
 551 1115 551 1115 525 1108 c 0,13,14
 463.999 1091.58 463.999 1091.58 464 1044 c 2,15,-1
 464 124.001 l 2,16,17
 464 58.2876 464 58.2876 585.5 52.5 c 0,18,19
 666.002 48.6666 666.002 48.6666 686.501 41.8333 c 128,-1,20
 707 35 707 35 707 19 c 0,21,22
 707 14.9995 707 14.9995 702 0 c 1,23,-1
 32 0 l 1,24,25
 27.9995 13.0005 27.9995 13.0005 28 17.001 c 0,26,27
 28 40.2869 28 40.2869 68.9998 46.1432 c 128,-1,28
 110 51.9995 110 51.9995 138.5 55 c 128,-1,29
 167 58 167 58 191.5 65.5 c 0,30,31
 249 83.1024 249 83.1024 249 130 c 2,32,-1
 249 1038 l 2,0,1
EndSplineSet
EndChar

StartChar: J
Encoding: 74 74 43
Width: 718
GlyphClass: 2
Flags: HW
LayerCount: 2
Fore
SplineSet
472 117 m 2,0,1
 472 -108.071 472 -108.071 363.501 -219.996 c 0,2,3
 276.254 -309.998 276.254 -309.998 146.001 -309.997 c 0,4,5
 55.5301 -309.997 55.5301 -309.997 3.5 -272.997 c 0,6,7
 -40 -242.063 -40 -242.063 -40 -205.031 c 128,-1,8
 -40 -167.999 -40 -167.999 -18.5 -146.998 c 128,-1,9
 2.99951 -125.998 2.99951 -125.998 36.9995 -125.998 c 128,-1,10
 70.9995 -125.998 70.9995 -125.998 95 -142.998 c 128,-1,11
 119 -159.998 119 -159.998 119 -182.498 c 128,-1,12
 119 -204.998 119 -204.998 132.5 -220.998 c 128,-1,13
 146 -236.999 146 -236.999 163.5 -236.998 c 128,-1,14
 181 -236.998 181 -236.998 197 -222.998 c 128,-1,15
 213 -208.999 213 -208.999 226.5 -172.998 c 0,16,17
 257.001 -91.6624 257.001 -91.6624 257 79.0029 c 2,18,-1
 257 1040 l 2,19,20
 257 1101.67 257 1101.67 142 1117 c 128,-1,21
 27.0009 1132.34 27.0009 1132.34 27 1158 c 0,22,23
 27 1164 27 1164 32 1176 c 1,24,-1
 698 1176 l 1,25,26
 702 1161 702 1161 702 1159 c 0,27,28
 702 1136 702 1136 659.5 1128.5 c 128,-1,29
 617 1121 617 1121 587 1117 c 128,-1,30
 557 1113 557 1113 531.5 1104.5 c 0,31,32
 472.001 1084.67 472.001 1084.67 472 1040 c 2,33,-1
 472 117 l 2,0,1
EndSplineSet
EndChar

StartChar: K
Encoding: 75 75 44
Width: 1474
GlyphClass: 2
Flags: HW
LayerCount: 2
Fore
SplineSet
751.993 0.00488281 m 1,0,1
 738.679 26.6284 738.679 26.6284 755.336 34.3157 c 128,-1,2
 771.993 42.0029 771.993 42.0029 790.993 46.0029 c 128,-1,3
 809.994 50.0034 809.994 50.0034 832.993 52.5039 c 128,-1,4
 855.993 55.0044 855.993 55.0044 874.993 60.5049 c 0,5,6
 919.995 73.5325 919.995 73.5325 919.994 102.004 c 0,7,8
 919.994 115.459 919.994 115.459 902.994 134.004 c 1,9,-1
 543.994 580.004 l 1,10,-1
 453.994 580.004 l 1,11,-1
 453.994 124.004 l 2,12,13
 453.994 58.3319 453.994 58.3319 572.495 52.5039 c 0,14,15
 651.253 48.6305 651.253 48.6305 671.125 41.8172 c 128,-1,16
 690.997 35.0039 690.997 35.0039 690.996 19.0039 c 0,17,18
 690.996 15.0034 690.996 15.0034 685.996 0.00390625 c 1,19,-1
 15.9961 0.00390625 l 1,20,21
 11.9956 13.0044 11.9956 13.0044 11.9961 17.0049 c 0,22,23
 11.9961 40.2452 11.9961 40.2452 53.9963 46.1243 c 128,-1,24
 95.9966 52.0034 95.9966 52.0034 125.497 55.5029 c 128,-1,25
 154.998 59.0024 154.998 59.0024 179.998 66.5029 c 0,26,27
 238.997 84.2023 238.997 84.2023 238.998 130.003 c 2,28,-1
 238.998 1040 l 2,29,30
 238.998 1101.8 238.998 1101.8 124.998 1117 c 128,-1,31
 10.9989 1132.2 10.9989 1132.2 10.998 1158 c 0,32,33
 10.998 1164 10.998 1164 15.998 1176 c 1,34,-1
 681.998 1176 l 1,35,36
 685.999 1161 685.999 1161 685.998 1159 c 0,37,38
 685.998 1135.88 685.998 1135.88 642.999 1128.44 c 128,-1,39
 600 1121 600 1121 569.999 1117 c 128,-1,40
 539.999 1113 539.999 1113 513.999 1104.5 c 0,41,42
 454.001 1084.88 454.001 1084.88 454 1040 c 2,43,-1
 454 636 l 1,44,-1
 539.995 636.004 l 1,45,-1
 1036 1052 l 1,46,47
 1045.85 1088.96 1045.85 1088.96 1028.42 1100.99 c 128,-1,48
 1010.99 1113.01 1010.99 1113.01 989.995 1117.5 c 128,-1,49
 968.995 1122 968.995 1122 943.495 1124 c 128,-1,50
 917.995 1126 917.995 1126 896.995 1128.5 c 0,51,52
 846.994 1134.46 846.994 1134.46 846.995 1158 c 0,53,54
 846.995 1164 846.995 1164 851.995 1176 c 1,55,-1
 1396 1176 l 1,56,-1
 1400 1158 l 1,57,58
 1400 1139.75 1400 1139.75 1342.5 1125.38 c 128,-1,59
 1285 1111 1285 1111 1246 1102.5 c 0,60,61
 1163.61 1084.55 1163.61 1084.55 1116 1046.01 c 1,62,-1
 707.995 704.006 l 1,63,-1
 1196 130.006 l 1,64,65
 1218.73 104.999 1218.73 104.999 1290.36 84.0022 c 128,-1,66
 1361.99 63.0054 1361.99 63.0054 1385.49 54.5049 c 128,-1,67
 1408.99 46.0044 1408.99 46.0044 1424.49 37.0049 c 128,-1,68
 1439.99 28.0049 1439.99 28.0049 1439.99 18.0049 c 128,-1,69
 1439.99 8.00439 1439.99 8.00439 1435.99 0.00488281 c 1,70,-1
 751.993 0.00488281 l 1,0,1
EndSplineSet
EndChar

StartChar: L
Encoding: 76 76 45
Width: 1073
GlyphClass: 2
Flags: HW
LayerCount: 2
Fore
SplineSet
1018.06 346.003 m 128,-1,1
 1024.12 346.003 1024.12 346.003 1046 341.003 c 1,2,-1
 1018 -19.9971 l 1,3,4
 1016.5 -25.9998 1016.5 -25.9998 1010 -25.998 c 1,5,6
 917.142 0.00306302 917.142 0.00306302 850.998 0.00195312 c 2,7,-1
 14.998 0.00195312 l 1,8,9
 2.6406 37.0698 2.6406 37.0698 23.8191 47.0356 c 128,-1,10
 44.9976 57.0015 44.9976 57.0015 70.498 61.002 c 128,-1,11
 95.998 65.0024 95.998 65.0024 125.998 67.002 c 128,-1,12
 155.998 69.0015 155.998 69.0015 181.498 76.002 c 0,13,14
 240.997 92.3362 240.997 92.3362 240.998 142.002 c 2,15,-1
 240.998 1038 l 2,16,17
 240.998 1100.71 240.998 1100.71 145.998 1113.5 c 0,18,19
 34.5235 1128.51 34.5235 1128.51 12.998 1159 c 1,20,21
 12.998 1161 12.998 1161 16.998 1176 c 1,22,-1
 686.998 1176 l 1,23,24
 698.936 1143.18 698.936 1143.18 677.467 1134.59 c 128,-1,25
 655.998 1126 655.998 1126 629.998 1123 c 128,-1,26
 603.999 1120 603.999 1120 573.499 1118 c 128,-1,27
 543 1116 543 1116 517 1109 c 0,28,29
 455.999 1092.58 455.999 1092.58 456 1044 c 2,30,-1
 456 136 l 2,31,32
 456 56.0066 456 56.0066 500.996 56.0049 c 1,33,-1
 806.996 67.0049 l 2,34,35
 873.246 69.0762 873.246 69.0762 897.122 89.5406 c 0,36,37
 935.951 122.822 935.951 122.822 956.996 207.005 c 0,38,39
 979.534 300.915 979.534 300.915 995.766 323.459 c 128,-1,0
 1012 346.002 1012 346.002 1018.06 346.003 c 128,-1,1
EndSplineSet
EndChar

StartChar: M
Encoding: 77 77 46
Width: 1711
GlyphClass: 2
Flags: HW
LayerCount: 2
Fore
SplineSet
778 0 m 1,0,-1
 317.995 912.001 l 1,1,-1
 311.995 124.001 l 1,2,3
 309.644 55.8622 309.644 55.8622 409.996 52.001 c 0,4,5
 475.253 49.4898 475.253 49.4898 493.125 41.7461 c 128,-1,6
 510.996 34.0024 510.996 34.0024 510.996 17.0029 c 0,7,8
 510.996 15.0034 510.996 15.0034 506.996 0.00292969 c 1,9,-1
 15.9961 0.00292969 l 1,10,11
 3.19369 30.7317 3.19369 30.7317 22.5947 38.8671 c 128,-1,12
 41.9956 47.0024 41.9956 47.0024 65.9961 50.0029 c 128,-1,13
 89.9961 53.0029 89.9961 53.0029 117.496 55.0029 c 128,-1,14
 144.996 57.0024 144.996 57.0024 169.495 64.0029 c 0,15,16
 226.279 80.2283 226.279 80.2283 227.995 130.003 c 2,17,-1
 254.995 1029 l 2,18,19
 257.349 1097.22 257.349 1097.22 145.996 1114.5 c 0,20,21
 74.4789 1125.6 74.4789 1125.6 54.2375 1134.8 c 128,-1,22
 33.9961 1144 33.9961 1144 33.9961 1159 c 1,23,-1
 37.9961 1176 l 1,24,-1
 401.996 1176 l 1,25,-1
 869.996 227.003 l 1,26,-1
 1256 1176 l 1,27,-1
 1662 1176 l 1,28,29
 1667 1159 1667 1159 1667 1158 c 0,30,31
 1667 1137.34 1667 1137.34 1624.5 1130.67 c 128,-1,32
 1582 1124 1582 1124 1553 1120.5 c 128,-1,33
 1524 1117 1524 1117 1499 1108.5 c 0,34,35
 1440.26 1088.53 1440.26 1088.53 1442 1040 c 2,36,-1
 1472 124.001 l 2,37,38
 1474.36 60.0885 1474.36 60.0885 1587.5 50.5 c 0,39,40
 1659.91 44.362 1659.91 44.362 1679.96 37.6807 c 128,-1,41
 1700 30.9995 1700 30.9995 1700 17 c 0,42,43
 1700 15.0005 1700 15.0005 1696 0 c 1,44,-1
 1066 0 l 1,45,46
 1053.16 30.8163 1053.16 30.8163 1073.08 38.9079 c 128,-1,47
 1093 46.9995 1093 46.9995 1117 49.5 c 128,-1,48
 1141 52.0005 1141 52.0005 1169 53.5 c 128,-1,49
 1197 55 1197 55 1221 62 c 0,50,51
 1276 78.0425 1276 78.0425 1276 130 c 2,52,-1
 1259 1047 l 1,53,-1
 834 0 l 1,54,-1
 778 0 l 1,0,-1
EndSplineSet
EndChar

StartChar: N
Encoding: 78 78 47
Width: 1499
GlyphClass: 2
Flags: HW
LayerCount: 2
Fore
SplineSet
985.999 1148.75 m 0,0,1
 985.999 1159.5 985.999 1159.5 992 1176 c 1,2,-1
 1484 1176 l 1,3,4
 1488.01 1166.99 1488.01 1166.99 1488.01 1152.5 c 128,-1,5
 1488.01 1138.01 1488.01 1138.01 1473.51 1130.01 c 128,-1,6
 1459.01 1122.01 1459.01 1122.01 1437.01 1116.51 c 128,-1,7
 1415.01 1111.01 1415.01 1111.01 1389.51 1106.01 c 128,-1,8
 1364.01 1101.01 1364.01 1101.01 1342.01 1090.01 c 0,9,10
 1291 1064.51 1291 1064.51 1291 1009.01 c 1,11,-1
 1267 0.0078125 l 2,12,13
 1266 -15.9927 1266 -15.9927 1240 -15.9924 c 128,-1,14
 1214.01 -15.9922 1214.01 -15.9922 1199 0.0078125 c 2,15,-1
 299.005 952.008 l 1,16,-1
 327.005 150.008 l 1,17,18
 327.005 68.3767 327.005 68.3767 442.504 62.5059 c 0,19,20
 512.846 58.9292 512.846 58.9292 535.424 48.9675 c 128,-1,21
 558.002 39.0059 558.002 39.0059 558.003 26.2558 c 128,-1,22
 558.003 13.5057 558.003 13.5057 552.002 0.00585938 c 1,23,-1
 16.002 0.00585938 l 1,24,25
 1.03032 33.6879 1.03032 33.6879 21.0161 44.3462 c 128,-1,26
 41.002 55.0044 41.002 55.0044 65.002 59.5049 c 128,-1,27
 89.002 64.0049 89.002 64.0049 117.502 68.5049 c 128,-1,28
 146.002 73.0049 146.002 73.0049 170.002 82.5049 c 0,29,30
 226.318 104.795 226.318 104.795 228.002 157.004 c 2,31,-1
 253.002 1020 l 2,32,33
 255.439 1083.33 255.439 1083.33 155.003 1107.5 c 2,34,-1
 102.503 1120.5 l 2,35,36
 41.0387 1136.17 41.0387 1136.17 27.0029 1158 c 1,37,-1
 31.0029 1176 l 1,38,-1
 403.003 1176 l 1,39,-1
 1215 319.003 l 1,40,-1
 1200 1009 l 1,41,42
 1200 1086.9 1200 1086.9 1093 1106 c 128,-1,43
 985.998 1125.11 985.998 1125.11 985.999 1148.75 c 0,0,1
EndSplineSet
EndChar

StartChar: O
Encoding: 79 79 48
Width: 1413
GlyphClass: 2
Flags: HW
LayerCount: 2
Fore
SplineSet
277 626.5 m 0,0,1
 277 490 277 490 318.5 378.5 c 128,-1,2
 360 267 360 267 427.5 190.5 c 0,3,4
 563.824 36 563.824 36 749 36 c 0,5,6
 911.348 36 911.348 36 1017.5 161 c 0,7,8
 1136 300.543 1136 300.543 1136 546 c 0,9,10
 1136 825.008 1136 825.008 990.501 990.5 c 0,11,12
 859.061 1140 859.061 1140 677 1140 c 0,13,14
 510.62 1140 510.62 1140 400.5 1015 c 0,15,16
 276.999 874.81 276.999 874.81 277 626.5 c 0,0,1
87.5 401.499 m 0,17,18
 62 486.999 62 486.999 62 588.999 c 128,-1,19
 62 690.999 62 690.999 87.5029 775.998 c 128,-1,20
 113.003 860.999 113.003 860.999 158.003 928.998 c 128,-1,21
 203.003 996.998 203.003 996.998 265.003 1048 c 128,-1,22
 327.002 1099 327.002 1099 399.003 1133.5 c 0,23,24
 541.957 1202 541.957 1202 711.003 1202 c 0,25,26
 971.193 1202 971.193 1202 1151.5 1050 c 0,27,28
 1351 881.822 1351 881.822 1351 589.999 c 0,29,30
 1351 296.194 1351 296.194 1150 126.499 c 0,31,32
 967.001 -27.9994 967.001 -27.9994 708 -28.001 c 0,33,34
 447 -28.001 447 -28.001 264 126.499 c 0,35,36
 137.721 233.109 137.721 233.109 87.5 401.499 c 0,17,18
EndSplineSet
EndChar

StartChar: P
Encoding: 80 80 49
Width: 1222
GlyphClass: 2
Flags: HW
LayerCount: 2
Fore
SplineSet
668.001 495.999 m 0,0,1
 975.001 495.999 975.001 495.999 975.001 822.997 c 0,2,3
 975.001 1098.45 975.001 1098.45 559.001 1115.5 c 0,4,5
 498 1118 498 1118 443 1118 c 1,6,-1
 443 130 l 2,7,8
 443 62.6104 443 62.6104 551.503 54.998 c 0,9,10
 623.557 49.9429 623.557 49.9429 641.78 41.9697 c 0,11,12
 669.849 29.689 669.849 29.689 655.003 -0.00390625 c 1,13,-1
 16.0029 -0.00390625 l 1,14,15
 1.15848 29.6893 1.15848 29.6893 22.0809 38.8434 c 128,-1,16
 43.0034 47.9976 43.0034 47.9976 67.0029 50.498 c 128,-1,17
 91.0029 52.9985 91.0029 52.9985 119.503 54.998 c 128,-1,18
 148.003 56.9976 148.003 56.9976 172.003 63.998 c 0,19,20
 228.004 80.3328 228.004 80.3328 228.003 129.998 c 2,21,-1
 228.003 1022 l 2,22,23
 228.003 1082 228.003 1082 120.003 1109 c 1,24,-1
 68.0029 1122.5 l 2,25,26
 12.0022 1137.66 12.0022 1137.66 12.0029 1161 c 0,27,28
 12.0029 1163 12.0029 1163 16.0029 1178 c 1,29,-1
 430.003 1178 l 2,30,31
 918.382 1178 918.382 1178 1083 1050.5 c 0,32,33
 1190 967.627 1190 967.627 1190 823 c 0,34,35
 1190 635.092 1190 635.092 1055.5 535 c 0,36,37
 926.503 439 926.503 439 700.003 439 c 0,38,39
 588.309 439 588.309 439 496.003 487 c 1,40,-1
 498.003 515 l 1,41,42
 574.012 495.998 574.012 495.998 668.001 495.999 c 0,0,1
EndSplineSet
EndChar

StartChar: Q
Encoding: 81 81 50
Width: 1485
GlyphClass: 2
Flags: HW
LayerCount: 2
Fore
SplineSet
110.5 349 m 128,-1,1
 62.0005 458 62.0005 458 62.0002 575 c 128,-1,2
 62 692 62 692 87.4961 776.997 c 128,-1,3
 112.996 861.998 112.996 861.998 157.996 929.997 c 128,-1,4
 202.996 997.997 202.996 997.997 264.496 1049 c 128,-1,5
 325.996 1100 325.996 1100 397.996 1134 c 0,6,7
 541.992 1202 541.992 1202 709.996 1202 c 0,8,9
 970.186 1202 970.186 1202 1150.5 1050 c 0,10,11
 1350 881.821 1350 881.821 1350 589.998 c 0,12,13
 1350 252.805 1350 252.805 1055 71.999 c 0,14,15
 932.957 -2.79855 932.957 -2.79855 789.997 -22.001 c 1,16,-1
 1094 -169.001 l 1,17,18
 1189.61 -221.001 1189.61 -221.001 1323 -221.001 c 0,19,20
 1354 -221.001 1354 -221.001 1384 -219.001 c 2,21,-1
 1445 -215.001 l 1,22,23
 1491.03 -209.243 1491.03 -209.243 1507.01 -218.121 c 128,-1,24
 1523 -227 1523 -227 1523 -240 c 0,25,26
 1523 -262.001 1523 -262.001 1499 -274.001 c 128,-1,27
 1475 -286.002 1475 -286.002 1436.5 -299.502 c 128,-1,28
 1398 -313.002 1398 -313.002 1357 -323.502 c 0,29,30
 1269.14 -346.002 1269.14 -346.002 1213.07 -346.002 c 128,-1,31
 1157 -346.002 1157 -346.002 1120 -334.502 c 0,32,33
 1048.32 -312.222 1048.32 -312.222 988.999 -277.001 c 1,34,-1
 835.999 -178.501 l 1,35,-1
 753.999 -120.501 l 1,36,37
 662.999 -54.0007 662.999 -54.0007 637.999 -24.001 c 1,38,39
 404.862 -2.80555 404.862 -2.80555 239.5 160.5 c 0,40,0
 159 240 159 240 110.5 349 c 128,-1,1
276.996 625.997 m 0,41,42
 276.996 489.998 276.996 489.998 318.495 378 c 128,-1,43
 359.996 266 359.996 266 426.996 189.999 c 0,44,45
 562.759 35.9991 562.759 35.9991 746.996 35.999 c 0,46,47
 908.853 35.999 908.853 35.999 1016 160.999 c 0,48,49
 1135 299.833 1135 299.833 1135 545.999 c 0,50,51
 1135 826.656 1135 826.656 991.996 991.997 c 0,52,53
 863.993 1140 863.993 1140 681.997 1140 c 0,54,55
 515.497 1140 515.497 1140 402.496 1014 c 0,56,57
 276.996 874.06 276.996 874.06 276.996 625.997 c 0,41,42
EndSplineSet
EndChar

StartChar: R
Encoding: 82 82 51
Width: 1328
GlyphClass: 2
Flags: HW
LayerCount: 2
Fore
SplineSet
1208.5 54.5 m 0,0,1
 1238 48.0005 1238 48.0005 1258.5 47 c 128,-1,2
 1279 45.9995 1279 45.9995 1286.21 31.5712 c 128,-1,3
 1293.43 17.1428 1293.43 17.1428 1282 0 c 1,4,-1
 891 0 l 1,5,6
 874 25.0005 874 25.0005 850 65.5 c 1,7,-1
 569 584 l 1,8,-1
 432 606 l 1,9,-1
 432 130 l 2,10,11
 432 62.6132 432 62.6132 540.501 55.001 c 0,12,13
 612.555 49.9458 612.555 49.9458 630.778 41.9727 c 0,14,15
 658.847 29.692 658.847 29.692 644.001 -0.000976562 c 1,16,-1
 16.001 -0.000976562 l 1,17,18
 1.2132 29.5789 1.2132 29.5789 21.6068 38.7897 c 128,-1,19
 42.0005 48.0005 42.0005 48.0005 64.501 51 c 128,-1,20
 87.001 54 87.001 54 114.001 56 c 128,-1,21
 141.001 57.9995 141.001 57.9995 163.501 64.499 c 0,22,23
 217 79.9532 217 79.9532 217.001 129.999 c 2,24,-1
 217.001 1022 l 2,25,26
 217.001 1079.93 217.001 1079.93 114.501 1107 c 0,27,28
 47.51 1124.7 47.51 1124.7 29.7555 1135.35 c 128,-1,29
 12.001 1146 12.001 1146 12.001 1154.5 c 128,-1,30
 12.001 1163 12.001 1163 16.001 1178 c 1,31,-1
 430.001 1178 l 2,32,33
 1109 1178 1109 1178 1109 881.999 c 0,34,35
 1109 752.212 1109 752.212 997.499 674.499 c 0,36,37
 905.003 610.032 905.003 610.032 766.999 595.999 c 1,38,-1
 1053 149.999 l 2,39,40
 1099.78 78.4531 1099.78 78.4531 1208.5 54.5 c 0,0,1
432.001 644.001 m 1,41,42
 675.563 654.777 675.563 654.777 776.5 700.502 c 0,43,44
 894.001 753.73 894.001 753.73 894 887.002 c 0,45,46
 894 1027.84 894 1027.84 772 1078.5 c 0,47,48
 676.876 1118 676.876 1118 432.001 1118 c 1,49,-1
 432.001 644.001 l 1,41,42
EndSplineSet
EndChar

StartChar: S
Encoding: 83 83 52
Width: 1028
GlyphClass: 2
Flags: HW
LayerCount: 2
Fore
SplineSet
327 581 m 2,0,1
 112.005 702.179 112.005 702.179 112.005 885.999 c 0,2,3
 112.005 1046.53 112.005 1046.53 240.505 1130 c 0,4,5
 351.345 1202 351.345 1202 530.004 1202 c 0,6,7
 702.94 1202 702.94 1202 848.004 1138 c 1,8,-1
 878.004 880.998 l 1,9,10
 845.321 871.92 845.321 871.92 834.162 882.459 c 128,-1,11
 823.004 892.999 823.004 892.999 815.504 905.999 c 0,12,13
 801.825 929.71 801.825 929.71 792.914 968.355 c 128,-1,14
 784.003 1007 784.003 1007 756.003 1041 c 128,-1,15
 728.002 1075 728.002 1075 689.003 1097 c 128,-1,16
 650.003 1119 650.003 1119 603.503 1129.5 c 128,-1,17
 557.003 1140 557.003 1140 510.003 1140 c 128,-1,18
 463.003 1140 463.003 1140 420.003 1130 c 128,-1,19
 377.002 1120 377.002 1120 343.002 1100.5 c 0,20,21
 269.003 1058.06 269.003 1058.06 269.002 990.001 c 0,22,23
 269.002 905.055 269.002 905.055 376.002 842.001 c 2,24,-1
 712.002 641.001 l 2,25,26
 850.179 559.262 850.179 559.262 900.501 489.001 c 0,27,28
 948.001 422.681 948.001 422.681 948.001 323.341 c 128,-1,29
 948.001 224.001 948.001 224.001 911.501 158.001 c 128,-1,30
 875.001 92.001 875.001 92.001 814.502 50.501 c 0,31,32
 700.066 -27.9979 700.066 -27.9979 511.001 -27.999 c 0,33,34
 269.997 -27.999 269.997 -27.999 90.001 80.001 c 1,35,-1
 111.001 366.001 l 1,36,37
 128 371 128 371 134.501 371.001 c 128,-1,38
 141.001 371.001 141.001 371.001 148.501 362.001 c 128,-1,39
 156.001 353.001 156.001 353.001 161.501 339.501 c 0,40,41
 170.586 317.204 170.586 317.204 176.793 271.603 c 128,-1,42
 183 226.001 183 226.001 219 181.001 c 128,-1,43
 255 136.001 255 136.001 308 103.501 c 0,44,45
 418.078 35.999 418.078 35.999 548 36 c 0,46,47
 703.544 36 703.544 36 756 138 c 0,48,49
 774 173 774 173 774 216 c 128,-1,50
 774 259 774 259 760.5 288 c 128,-1,51
 747 317 747 317 718.5 344 c 0,52,53
 673.267 386.852 673.267 386.852 538 462 c 2,54,-1
 327 581 l 2,0,1
EndSplineSet
EndChar

StartChar: T
Encoding: 84 84 53
Width: 1152
GlyphClass: 2
Flags: HW
LayerCount: 2
Fore
SplineSet
54 1189 m 1,0,1
 90 1191 l 1,2,-1
 206 1179 l 1,3,-1
 562 1176 l 1,4,-1
 960 1179 l 1,5,-1
 1053 1193 l 1,6,-1
 1081 1193 l 1,7,-1
 1126 872.002 l 1,8,9
 1105.16 862.737 1105.16 862.737 1095.58 874.869 c 128,-1,10
 1086 887.001 1086 887.001 1079 902.002 c 0,11,12
 1064.68 932.677 1064.68 932.677 1054.34 967.339 c 128,-1,13
 1044 1002 1044 1002 1034 1028 c 128,-1,14
 1024 1054 1024 1054 1011 1072.5 c 0,15,16
 984.575 1110.1 984.575 1110.1 938.998 1112 c 2,17,-1
 665.998 1120 l 1,18,-1
 665.998 124.002 l 2,19,20
 665.998 64.2527 665.998 64.2527 782.998 54.501 c 0,21,22
 859.738 48.1047 859.738 48.1047 879.868 40.0526 c 128,-1,23
 899.999 32.0005 899.999 32.0005 899.998 17.001 c 0,24,25
 899.998 13.0005 899.998 13.0005 895.998 0 c 1,26,-1
 225.998 -0 l 1,27,28
 210.662 30.6656 210.662 30.6656 233.33 39.3321 c 128,-1,29
 255.998 47.9985 255.998 47.9985 281.498 50.499 c 128,-1,30
 306.998 52.9995 306.998 52.9995 336.498 54.999 c 128,-1,31
 365.999 56.9985 365.999 56.9985 391.498 63.498 c 0,32,33
 450.997 78.6634 450.997 78.6634 450.998 129.998 c 2,34,-1
 450.998 1120 l 1,35,-1
 219.998 1112 l 2,36,37
 154.856 1109.39 154.856 1109.39 119.999 1027 c 0,38,39
 109 1001 109 1001 100.5 976.5 c 128,-1,40
 92 952 92 952 84.5 934 c 128,-1,41
 77 916 77 916 69.5 901.5 c 0,42,43
 52.1734 868.001 52.1734 868.001 38.001 868 c 0,44,45
 34.0005 868 34.0005 868 21 872 c 1,46,-1
 54 1189 l 1,0,1
EndSplineSet
EndChar

StartChar: U
Encoding: 85 85 54
Width: 1591
GlyphClass: 2
Flags: HW
LayerCount: 2
Fore
SplineSet
27 1176 m 1,0,-1
 671 1176 l 1,1,2
 676 1161 676 1161 676 1158 c 0,3,4
 676 1134.66 676 1134.66 633.5 1126.33 c 128,-1,5
 591 1118 591 1118 561.5 1113 c 128,-1,6
 532 1108 532 1108 506.5 1098.5 c 0,7,8
 447.001 1076.33 447.001 1076.33 447 1030 c 2,9,-1
 447 553.998 l 2,10,11
 447 322.023 447 322.023 578.5 184.999 c 0,12,13
 697.503 60.998 697.503 60.998 866 60.999 c 0,14,15
 1028.5 60.999 1028.5 60.999 1139.5 176.999 c 0,16,17
 1263 306.064 1263 306.064 1263 528 c 2,18,-1
 1263 1036 l 2,19,20
 1263 1098.12 1263 1098.12 1151 1115.5 c 0,21,22
 1076.15 1127.12 1076.15 1127.12 1057.57 1135.56 c 128,-1,23
 1039 1144 1039 1144 1039 1159 c 0,24,25
 1039 1161 1039 1161 1043 1176 c 1,26,-1
 1565 1176 l 1,27,28
 1570 1161 1570 1161 1570 1157 c 0,29,30
 1570 1132.54 1570 1132.54 1525.5 1126.77 c 128,-1,31
 1481 1121 1481 1121 1450.5 1118 c 128,-1,32
 1420 1115 1420 1115 1393 1107.5 c 0,33,34
 1331 1090.28 1331 1090.28 1331 1042 c 2,35,-1
 1331 526 l 2,36,37
 1331 262.017 1331 262.017 1157.5 109.995 c 0,38,39
 1000 -28.0023 1000 -28.0023 775.999 -28.0039 c 0,40,41
 554.499 -28.0039 554.499 -28.0039 401.499 105.996 c 0,42,43
 231.999 254.448 231.999 254.448 231.999 507.996 c 2,44,-1
 231.999 1020 l 2,45,46
 231.999 1081.56 231.999 1081.56 126.499 1106.5 c 0,47,48
 61.266 1121.91 61.266 1121.91 37.2084 1135.11 c 128,-1,49
 13.1508 1148.3 13.1508 1148.3 27 1176 c 1,0,-1
EndSplineSet
EndChar

StartChar: V
Encoding: 86 86 55
Width: 1450
GlyphClass: 2
Flags: HW
LayerCount: 2
Fore
SplineSet
648.995 1176 m 1,0,-1
 662.995 1140 l 1,1,2
 662.995 1120.11 662.995 1120.11 613.495 1110.56 c 128,-1,3
 563.995 1101 563.995 1101 533.995 1097 c 128,-1,4
 503.995 1093 503.995 1093 485.995 1089 c 0,5,6
 429.996 1077 429.996 1077 448.996 1028 c 2,7,-1
 783.996 209.001 l 1,8,-1
 1085 997.001 l 2,9,10
 1108.28 1056.11 1108.28 1056.11 1081 1075 c 0,11,12
 1068 1084 1068 1084 1045.5 1087.5 c 2,13,-1
 993.997 1095.5 l 2,14,15
 912.45 1108.16 912.45 1108.16 862.999 1135 c 1,16,17
 855.999 1136 855.999 1136 855.999 1149 c 128,-1,18
 855.999 1162 855.999 1162 862.999 1176 c 1,19,-1
 1429 1176 l 1,20,21
 1435 1166 1435 1166 1435 1152.5 c 128,-1,22
 1435 1139 1435 1139 1422.5 1130.5 c 128,-1,23
 1410 1122 1410 1122 1391.5 1115.5 c 0,24,25
 1359.73 1104.34 1359.73 1104.34 1313.87 1098.67 c 128,-1,26
 1268 1093 1268 1093 1246 1086.5 c 0,27,28
 1206.65 1074.88 1206.65 1074.88 1191.5 1037.5 c 2,29,-1
 761 8 l 2,30,31
 752 -11.9995 752 -11.9995 723 -11.9998 c 128,-1,32
 694 -12 694 -12 685 8 c 2,33,-1
 235 1020 l 2,34,35
 222 1051 222 1051 194.995 1067 c 128,-1,36
 167.995 1083 167.995 1083 135.495 1094.5 c 2,37,-1
 70.9951 1116.5 l 2,38,39
 38.9956 1127 38.9956 1127 14.9951 1146 c 1,40,-1
 20.9951 1176 l 1,41,-1
 648.995 1176 l 1,0,-1
EndSplineSet
EndChar

StartChar: W
Encoding: 87 87 56
Width: 1963
GlyphClass: 2
Flags: HW
LayerCount: 2
Fore
SplineSet
1006 900 m 1,0,-1
 696.004 7.99805 l 2,1,2
 690.004 -12.0015 690.004 -12.0015 659.004 -12.0017 c 128,-1,3
 628.004 -12.002 628.004 -12.002 620.004 7.99805 c 2,4,-1
 240.004 1020 l 2,5,6
 221.254 1071.56 221.254 1071.56 147.004 1102.5 c 1,7,-1
 88.0039 1126 l 2,8,9
 59.0044 1137 59.0044 1137 40.0039 1156 c 1,10,-1
 46.0039 1176 l 1,11,-1
 624.004 1176 l 1,12,13
 634.085 1145.75 634.085 1145.75 619.545 1137.87 c 128,-1,14
 605.004 1130 605.004 1130 587.504 1126.5 c 128,-1,15
 570.003 1123 570.003 1123 549.503 1121 c 128,-1,16
 529.002 1119 529.002 1119 511.502 1113.5 c 0,17,18
 470.002 1100.46 470.002 1100.46 470.002 1068 c 0,19,20
 470.002 1057 470.002 1057 474.002 1046 c 2,21,-1
 730.002 323.999 l 1,22,-1
 972.002 968.999 l 1,23,-1
 928.002 1077 l 1,24,25
 908.625 1094.99 908.625 1094.99 854.002 1114.5 c 2,26,-1
 810.502 1129.5 l 2,27,28
 788.002 1137 788.002 1137 768.002 1148 c 1,29,30
 762.002 1149 762.002 1149 762.002 1158 c 1,31,-1
 768.002 1176 l 1,32,-1
 1345 1176 l 1,33,34
 1355.34 1144.99 1355.34 1144.99 1340.17 1136.49 c 128,-1,35
 1325 1128 1325 1128 1305.5 1125 c 128,-1,36
 1286 1122 1286 1122 1264 1121 c 128,-1,37
 1242 1120 1242 1120 1222.5 1116 c 0,38,39
 1178 1106.87 1178 1106.87 1178 1074 c 0,40,41
 1178 1060 1178 1060 1183 1046 c 2,42,-1
 1412 325.999 l 1,43,-1
 1645 1052 l 2,44,45
 1648 1064 1648 1064 1648 1082.5 c 128,-1,46
 1648 1101 1648 1101 1632.5 1109.5 c 128,-1,47
 1617 1118 1617 1118 1591.5 1120.5 c 128,-1,48
 1566 1123 1566 1123 1533.5 1126.5 c 128,-1,49
 1501 1130 1501 1130 1467 1148 c 1,50,51
 1457 1152 1457 1152 1467 1176 c 1,52,-1
 1932 1176 l 1,53,54
 1948 1172 1948 1172 1948 1166 c 0,55,56
 1948 1147.92 1948 1147.92 1906.5 1137.96 c 128,-1,57
 1865 1128 1865 1128 1835.5 1122 c 128,-1,58
 1806 1116 1806 1116 1778.5 1107 c 0,59,60
 1714.16 1085.94 1714.16 1085.94 1702 1046 c 2,61,-1
 1388 8 l 2,62,63
 1382 -10 1382 -10 1350 -10 c 128,-1,64
 1318 -10 1318 -10 1312 8 c 2,65,-1
 1006 900 l 1,0,-1
EndSplineSet
EndChar

StartChar: X
Encoding: 88 88 57
Width: 1388
GlyphClass: 2
Flags: HW
LayerCount: 2
Fore
SplineSet
1276 1176 m 1,0,1
 1280 1165 1280 1165 1280 1157.5 c 128,-1,2
 1280 1150 1280 1150 1270.5 1144 c 0,3,4
 1254.06 1133.62 1254.06 1133.62 1218 1124 c 2,5,-1
 1191 1117 l 1,6,7
 1140 1105 1140 1105 1101 1090 c 128,-1,8
 1062 1075 1062 1075 1036 1040 c 2,9,-1
 757.003 666.003 l 1,10,-1
 1110 124.003 l 2,11,12
 1132.6 88.223 1132.6 88.223 1156.3 77.1129 c 0,13,14
 1189.59 61.508 1189.59 61.508 1224.8 56.2557 c 128,-1,15
 1260 51.0034 1260 51.0034 1275.5 48.0029 c 128,-1,16
 1291 45.0029 1291 45.0029 1305 40.5029 c 0,17,18
 1338 29.896 1338 29.896 1338 17.0029 c 0,19,20
 1338 13.0024 1338 13.0024 1334 0.00195312 c 1,21,-1
 704.002 0.00195312 l 1,22,23
 691.6 24.8004 691.6 24.8004 709.801 33.9014 c 128,-1,24
 728.001 43.0024 728.001 43.0024 749.501 48.5029 c 128,-1,25
 771 54.0034 771 54.0034 795.5 59.0029 c 128,-1,26
 820 64.0024 820 64.0024 841.499 70.0029 c 0,27,28
 890.997 83.8167 890.997 83.8167 890.998 107.003 c 0,29,30
 890.998 117.003 890.998 117.003 883.998 130.004 c 1,31,-1
 636.998 506.004 l 1,32,-1
 351.998 124.004 l 2,33,34
 341.998 111.003 341.998 111.003 341.998 103.004 c 0,35,36
 341.998 82.186 341.998 82.186 409.497 65.0029 c 2,37,-1
 466.497 50.0029 l 2,38,39
 519.998 35.4953 519.998 35.4953 519.997 17.0039 c 0,40,41
 519.997 13.0034 519.997 13.0034 515.997 0.00292969 c 1,42,-1
 53.9971 0.00292969 l 1,43,44
 43.5353 20.9226 43.5353 20.9226 56.2659 28.9628 c 128,-1,45
 68.9966 37.0029 68.9966 37.0029 82.4971 42.0029 c 0,46,47
 104.999 50.3363 104.999 50.3363 134.998 55.6684 c 128,-1,48
 164.997 61.0005 164.997 61.0005 183.997 66.501 c 128,-1,49
 202.998 72.0015 202.998 72.0015 218.497 80.001 c 0,50,51
 246.25 94.3245 246.25 94.3245 273.997 130.001 c 2,52,-1
 599.997 563.001 l 1,53,-1
 287.997 1030 l 1,54,55
 260.663 1068.72 260.663 1068.72 163.496 1094.5 c 0,56,57
 73.9991 1118.24 73.9991 1118.24 73.998 1149 c 0,58,59
 73.998 1151 73.998 1151 77.998 1166 c 1,60,-1
 693.998 1176 l 1,61,62
 703.173 1150.77 703.173 1150.77 686.586 1141.89 c 128,-1,63
 669.999 1133 669.999 1133 648.499 1126 c 128,-1,64
 627 1119 627 1119 601.999 1113 c 128,-1,65
 576.999 1107 576.999 1107 555.499 1099.5 c 0,66,67
 506.001 1082.23 506.001 1082.23 506 1062 c 0,68,69
 506 1054 506 1054 514 1040 c 2,70,-1
 720 722.001 l 1,71,-1
 960 1040 l 2,72,73
 969 1052 969 1052 969 1064.5 c 0,74,75
 969 1082.93 969 1082.93 893 1105 c 2,76,-1
 830.5 1124 l 2,77,78
 775.999 1141.3 775.999 1141.3 776 1159 c 0,79,80
 776 1161 776 1161 780 1176 c 1,81,-1
 1276 1176 l 1,0,1
EndSplineSet
EndChar

StartChar: Y
Encoding: 89 89 58
Width: 1280
GlyphClass: 2
Flags: HW
LayerCount: 2
Fore
SplineSet
526 530 m 1,0,-1
 246.003 1029.99 l 2,1,2
 235.025 1049.76 235.025 1049.76 131.503 1102.49 c 2,3,-1
 83.0029 1127.49 l 2,4,5
 32.0012 1154.15 32.0012 1154.15 32.0016 1157.57 c 128,-1,6
 32.002 1160.99 32.002 1160.99 36.002 1176 c 1,7,-1
 662.002 1176 l 1,8,9
 671.177 1150.77 671.177 1150.77 654.59 1141.88 c 128,-1,10
 638.002 1133 638.002 1133 617.002 1126 c 128,-1,11
 596.002 1118.99 596.002 1118.99 571.502 1112.5 c 128,-1,12
 547.002 1106 547.002 1106 526.002 1098.5 c 0,13,14
 477.003 1081 477.003 1081 477.002 1059 c 0,15,16
 477.002 1050 477.002 1050 482.002 1040 c 2,17,-1
 712.002 629.995 l 1,18,-1
 926.002 1040 l 2,19,20
 932.002 1050 932.002 1050 932.002 1064 c 128,-1,21
 932.002 1078 932.002 1078 911.502 1088 c 128,-1,22
 891.001 1098 891.001 1098 862.002 1105.5 c 0,23,24
 773.321 1128.43 773.321 1128.43 758.661 1139.71 c 128,-1,25
 744.001 1151 744.001 1151 744.002 1156 c 128,-1,26
 744.002 1161 744.002 1161 748.002 1176 c 1,27,-1
 1244 1176 l 1,28,29
 1252.14 1153.61 1252.14 1153.61 1240.57 1146.3 c 128,-1,30
 1229 1139 1229 1139 1215 1133.5 c 0,31,32
 1193.64 1125.1 1193.64 1125.1 1148.32 1117.55 c 128,-1,33
 1103 1110 1103 1110 1066 1094 c 128,-1,34
 1029 1078 1029 1078 1007 1040 c 2,35,-1
 741.002 579.998 l 1,36,-1
 741.002 123.998 l 2,37,38
 741.002 64.4562 741.002 64.4562 857.502 52.999 c 0,39,40
 930.892 45.7802 930.892 45.7802 952.447 38.3896 c 128,-1,41
 974.002 30.999 974.002 30.999 974.002 16.999 c 0,42,43
 974.002 12.9985 974.002 12.9985 970.002 -0.00195312 c 1,44,-1
 300.002 -0.00195312 l 1,45,46
 285.052 29.9014 285.052 29.9014 307.027 38.9505 c 128,-1,47
 329.001 47.9995 329.001 47.9995 355.001 50.5 c 128,-1,48
 381 53.0005 381 53.0005 410.501 55 c 128,-1,49
 440.001 56.9995 440.001 56.9995 466.001 64 c 0,50,51
 525.999 80.1548 525.999 80.1548 526 130 c 2,52,-1
 526 530 l 1,0,-1
EndSplineSet
EndChar

StartChar: Z
Encoding: 90 90 59
Width: 1185
GlyphClass: 2
Flags: HW
LayerCount: 2
Fore
SplineSet
1042.06 356 m 128,-1,1
 1048.12 356 1048.12 356 1070 351 c 1,2,-1
 1053 -20 l 1,3,4
 1045 -21.9995 1045 -21.9995 1040.5 -22 c 2,5,-1
 1031 -22 l 2,6,7
 1025 -22 1025 -22 1007 -18.5 c 2,8,-1
 966.5 -11 l 2,9,10
 904.636 -0.000675702 904.636 -0.000675702 884 0 c 2,11,-1
 99 0 l 1,12,-1
 90 18 l 1,13,-1
 821 1073 l 2,14,15
 825 1079 825 1079 831.501 1087 c 128,-1,16
 838 1095 838 1095 841.001 1102 c 0,17,18
 847.858 1118 847.858 1118 826 1118 c 2,19,-1
 376 1109 l 1,20,21
 311.401 1109 311.401 1109 286.2 1088 c 0,22,23
 247.162 1055.47 247.162 1055.47 217 968.999 c 1,24,25
 187.613 877.157 187.613 877.157 167.807 853.579 c 128,-1,26
 148.001 830.001 148.001 830.001 142.501 830.001 c 0,27,28
 136.004 830.001 136.004 830.001 116.001 835.001 c 1,29,-1
 179.001 1196 l 1,30,31
 187 1198 187 1198 191.501 1198 c 2,32,-1
 201.001 1198 l 2,33,34
 207.001 1198 207.001 1198 224.001 1196 c 128,-1,35
 241 1194 241 1194 262.001 1192 c 2,36,-1
 304.001 1188 l 2,37,38
 325.001 1186 325.001 1186 340.001 1186 c 2,39,-1
 1064 1176 l 2,40,41
 1092.3 1176 1092.3 1176 1095 1149 c 0,42,43
 1096 1138 1096 1138 1091 1123 c 1,44,-1
 405.001 136.001 l 1,45,46
 386.895 111.859 386.895 111.859 389.448 91.4301 c 0,47,48
 393.876 56.0009 393.876 56.0009 420.001 56.001 c 2,49,-1
 838.001 67.001 l 2,50,51
 905.032 69.0332 905.032 69.0332 928.516 92.5173 c 0,52,53
 967.515 131.516 967.515 131.516 985.001 217.002 c 0,54,55
 1003.88 311.383 1003.88 311.383 1019.94 333.691 c 128,-1,0
 1036 356 1036 356 1042.06 356 c 128,-1,1
EndSplineSet
EndChar

StartChar: bracketleft
Encoding: 91 91 60
Width: 794
GlyphClass: 2
Flags: HW
LayerCount: 2
Fore
SplineSet
735 -143 m 0,0,1
 735 -214.006 735 -214.006 647 -214.002 c 0,2,3
 632 -214.002 632 -214.002 601.5 -211.502 c 128,-1,4
 571 -209.001 571 -209.001 520 -206.501 c 0,5,6
 366.996 -198.999 366.996 -198.999 287.496 -199 c 128,-1,7
 207.997 -199 207.997 -199 193.5 -193.501 c 128,-1,8
 179 -188 179 -188 167 -176.001 c 0,9,10
 139.16 -148.161 139.16 -148.161 141 -104.001 c 1,11,-1
 157 1199 l 1,12,13
 158.907 1240.93 158.907 1240.93 155.501 1321.5 c 2,14,-1
 152.501 1390.5 l 2,15,16
 151.001 1424 151.001 1424 151.001 1439 c 128,-1,17
 151.001 1454 151.001 1454 155.501 1466.5 c 128,-1,18
 160.001 1479 160.001 1479 170.001 1491.5 c 0,19,20
 196.004 1524 196.004 1524 238.001 1524 c 2,21,-1
 243.001 1524 l 1,22,23
 607.08 1527.64 607.08 1527.64 664.041 1528.32 c 128,-1,24
 721.001 1529 721.001 1529 740.502 1522.5 c 128,-1,25
 760.002 1516 760.002 1516 772.002 1505 c 128,-1,26
 784.002 1494 784.002 1494 789.002 1481 c 128,-1,27
 794.001 1468 794.001 1468 794.002 1455 c 128,-1,28
 794.002 1442 794.002 1442 788.502 1427.5 c 128,-1,29
 783.001 1413 783.001 1413 771.002 1401 c 0,30,31
 743.162 1373.16 743.162 1373.16 699.002 1375 c 1,32,-1
 307.002 1380 l 1,33,34
 277.874 870.148 277.874 870.148 294 -60.999 c 1,35,-1
 410 -61.999 l 1,36,37
 451.926 -63.9057 451.926 -63.9057 532.502 -60.5 c 2,38,-1
 601.502 -57.5 l 2,39,40
 635.001 -56 635.001 -56 650.001 -56 c 128,-1,41
 665.001 -56 665.001 -56 677.501 -60.5 c 128,-1,42
 690 -65 690 -65 702.5 -75 c 0,43,44
 735.001 -101.003 735.001 -101.003 735 -143 c 0,0,1
EndSplineSet
EndChar

StartChar: backslash
Encoding: 92 92 61
Width: 822
GlyphClass: 2
Flags: HW
LayerCount: 2
Fore
SplineSet
818 -122 m 1,0,1
 835.203 -165.961 835.203 -165.961 823.6 -192.481 c 128,-1,2
 811.997 -219 811.997 -219 799.997 -229.001 c 128,-1,3
 787.997 -239.001 787.997 -239.001 774.997 -239.001 c 128,-1,4
 761.997 -239.001 761.997 -239.001 747.997 -238.001 c 128,-1,5
 733.998 -237 733.998 -237 719.998 -230.501 c 0,6,7
 686.674 -215.03 686.674 -215.03 670.998 -168.001 c 0,8,9
 436.05 508.756 436.05 508.756 233.5 936.999 c 1,10,-1
 90 1231.5 l 2,11,12
 70.9995 1270 70.9995 1270 70.9998 1282.5 c 128,-1,13
 71 1295 71 1295 70.5 1309 c 128,-1,14
 70.0005 1323 70.0005 1323 75 1334.5 c 0,15,16
 86.9545 1362 86.9545 1362 126.477 1362 c 128,-1,17
 166 1362 166 1362 183.5 1356.5 c 128,-1,18
 201 1351 201 1351 211.001 1343.5 c 0,19,20
 227.001 1331.5 227.001 1331.5 227.001 1316.25 c 128,-1,21
 227.001 1301 227.001 1301 236.501 1269.5 c 128,-1,22
 246 1238 246 1238 259.001 1202.5 c 128,-1,23
 272.001 1167 272.001 1167 286.001 1133.5 c 128,-1,24
 300 1100 300 1100 308 1079 c 2,25,-1
 818 -122 l 1,0,1
EndSplineSet
EndChar

StartChar: bracketright
Encoding: 93 93 62
Width: 794
GlyphClass: 2
Flags: HW
LayerCount: 2
Fore
SplineSet
643.001 1449 m 2,0,-1
 640.001 1253.5 l 2,1,2
 640.001 1221 640.001 1221 641.001 1199 c 2,3,-1
 653.001 -104 l 1,4,5
 654.842 -148.16 654.842 -148.16 634.921 -168.08 c 0,6,7
 604 -199.001 604 -199.001 573 -199 c 0,8,9
 344.971 -199 344.971 -199 253.486 -206.5 c 128,-1,10
 162.001 -214 162.001 -214 148.501 -214 c 128,-1,11
 135.001 -214 135.001 -214 119.501 -213 c 128,-1,12
 104.001 -212 104.001 -212 90.501 -204.999 c 0,13,14
 59.001 -188.665 59.001 -188.665 59.001 -153.331 c 128,-1,15
 59.001 -117.998 59.001 -117.998 69.001 -101.498 c 128,-1,16
 79.0015 -84.998 79.0015 -84.998 91.501 -74.998 c 0,17,18
 115.249 -55.9981 115.249 -55.9981 137.124 -55.998 c 128,-1,19
 159 -55.998 159 -55.998 192.499 -57.498 c 2,20,-1
 261.499 -60.498 l 2,21,22
 342.087 -63.9031 342.087 -63.9031 384.001 -61.9971 c 1,23,-1
 500.001 -60.9971 l 1,24,25
 512.841 927.68 512.841 927.68 487 1380 c 1,26,-1
 95 1375 l 1,27,28
 50.8409 1373.16 50.8409 1373.16 30.9204 1393.08 c 128,-1,29
 11 1413 11 1413 5.5 1427.5 c 128,-1,30
 -0.000488281 1442 -0.000488281 1442 0 1455 c 128,-1,31
 0 1468 0 1468 5 1481 c 128,-1,32
 9.99951 1494 9.99951 1494 22 1505 c 0,33,34
 48.1809 1529 48.1809 1529 117.552 1528.32 c 2,35,-1
 551.001 1524 l 1,36,-1
 556.001 1524 l 2,37,38
 618.523 1524 618.523 1524 638.501 1468.5 c 0,39,40
 643.001 1456 643.001 1456 643.001 1449 c 2,0,-1
EndSplineSet
EndChar

StartChar: asciicircum
Encoding: 94 94 63
Width: 1500
GlyphClass: 2
Flags: HW
LayerCount: 2
Fore
SplineSet
477.001 777.999 m 0,0,1
 425.999 777.999 425.999 777.999 426 815.999 c 0,2,3
 426 832.663 426 832.663 440 863 c 2,4,-1
 557.503 1105 l 2,5,6
 612.002 1218 612.002 1218 661.003 1331 c 0,7,8
 672.002 1354 672.002 1354 696.003 1370.5 c 128,-1,9
 720.003 1387 720.003 1387 747.003 1386 c 0,10,11
 805.739 1383.82 805.739 1383.82 831.002 1331 c 2,12,-1
 1052 863 l 2,13,14
 1066 832.664 1066 832.664 1066 815.999 c 0,15,16
 1066 777.999 1066 777.999 1015 777.999 c 0,17,18
 997.203 777.999 997.203 777.999 965.602 817.5 c 128,-1,19
 934.001 857 934.001 857 928.001 866 c 2,20,-1
 746.001 1119 l 1,21,-1
 564.001 866 l 1,22,23
 533.252 819.876 533.252 819.876 508.126 798.937 c 128,-1,24
 483.001 777.999 483.001 777.999 477.001 777.999 c 0,0,1
EndSplineSet
EndChar

StartChar: underscore
Encoding: 95 95 64
Width: 0
GlyphClass: 2
Flags: HW
LayerCount: 2
Fore
SplineSet
714 91 m 2,0,1
 825.631 91 825.631 91 842.999 63.5 c 0,2,3
 848.999 54.0005 848.999 54.0005 848.999 40.0002 c 128,-1,4
 848.999 26 848.999 26 843.499 17.5 c 128,-1,5
 837.999 8.99951 837.999 8.99951 822.999 4.99902 c 0,6,7
 800.494 -1.00296 800.494 -1.00296 713.999 -1.00195 c 2,8,-1
 401.999 -1.00195 l 2,9,10
 285.525 -1.00195 285.525 -1.00195 272.499 21.498 c 0,11,12
 258.443 45.7741 258.443 45.7741 268.221 60.8868 c 128,-1,13
 278 75.9995 278 75.9995 292.5 81.5 c 0,14,15
 317.542 90.999 317.542 90.999 399 91 c 2,16,-1
 714 91 l 2,0,1
EndSplineSet
EndChar

StartChar: grave
Encoding: 96 96 65
Width: 1350
GlyphClass: 2
Flags: HW
LayerCount: 2
Fore
SplineSet
964.001 65.998 m 0,0,1
 964.001 28.9966 964.001 28.9966 918.001 28.998 c 0,2,3
 906.358 28.998 906.358 28.998 875.501 44.998 c 2,4,-1
 826.001 71.998 l 2,5,6
 795 89.998 795 89.998 746 115.998 c 2,7,-1
 465 264.998 l 2,8,9
 429 284.998 429 284.998 429 315.498 c 128,-1,10
 429 345.999 429 345.999 435 364.999 c 128,-1,11
 441 384 441 384 451.5 398.999 c 0,12,13
 474.6 431.999 474.6 431.999 505 431.999 c 0,14,15
 543 431.999 543 431.999 560.5 415.499 c 2,16,-1
 615 363.499 l 2,17,18
 654.66 325.16 654.66 325.16 711.5 280 c 1,19,-1
 928 118 l 1,20,21
 964 92.5875 964 92.5875 964.001 65.998 c 0,0,1
EndSplineSet
EndChar

StartChar: a
Encoding: 97 97 66
Width: 983
GlyphClass: 2
Flags: HW
LayerCount: 2
Fore
SplineSet
544.999 824 m 128,-1,1
 510 846 510 846 469.5 846 c 128,-1,2
 429 846 429 846 400.999 840.499 c 128,-1,3
 372.999 834.999 372.999 834.999 347.499 824.499 c 0,4,5
 285.999 799.175 285.999 799.175 285.999 763.999 c 0,6,7
 285.999 745.999 285.999 745.999 295.999 722.999 c 128,-1,8
 306 700 306 700 305.999 662.5 c 128,-1,9
 305.999 625 305.999 625 278.999 602 c 128,-1,10
 251.999 579 251.999 579 224.999 579 c 128,-1,11
 198 579 198 579 178.999 586 c 128,-1,12
 159.999 593 159.999 593 144.999 607 c 0,13,14
 111 638.731 111 638.731 110.999 686.366 c 128,-1,15
 110.999 734 110.999 734 130.499 767.5 c 128,-1,16
 149.999 801 149.999 801 180.999 824.5 c 128,-1,17
 212 848 212 848 251.499 863 c 128,-1,18
 290.999 878 290.999 878 330.999 886.5 c 0,19,20
 493.279 920.986 493.279 920.986 626.499 882.5 c 0,21,22
 829.998 823.712 829.998 823.712 829.999 528 c 2,23,-1
 829.999 131 l 2,24,25
 829.999 82.2336 829.999 82.2336 904.499 76.501 c 0,26,27
 955.389 72.5863 955.389 72.5863 967.194 68.2934 c 128,-1,28
 978.999 64.0005 978.999 64.0005 978.999 50.001 c 128,-1,29
 978.999 36.0015 978.999 36.0015 959.499 23.001 c 128,-1,30
 939.999 10.0005 939.999 10.0005 908.499 1.00098 c 0,31,32
 845.499 -16.999 845.499 -16.999 786.249 -16.999 c 128,-1,33
 726.999 -16.999 726.999 -16.999 702.499 -3.49902 c 128,-1,34
 678 10.001 678 10.001 661.999 32.001 c 0,35,36
 630 75.9992 630 75.9992 629.999 135.001 c 1,37,38
 566.211 28.6893 566.211 28.6893 401.999 -6.49902 c 0,39,40
 352.999 -16.999 352.999 -16.999 299.499 -16.999 c 128,-1,41
 245.999 -16.999 245.999 -16.999 202.499 -3.49902 c 128,-1,42
 158.999 10.001 158.999 10.001 130.999 33.501 c 0,43,44
 75.999 79.6618 75.999 79.6618 75.999 151.831 c 128,-1,45
 75.999 224 75.999 224 108.999 273.5 c 128,-1,46
 141.999 323 141.999 323 209.499 357.5 c 0,47,48
 325.151 416.611 325.151 416.611 623.999 459 c 1,49,-1
 623.999 588 l 2,50,51
 623.999 711.486 623.999 711.486 601.999 756.743 c 128,-1,0
 579.999 802 579.999 802 544.999 824 c 128,-1,1
292.997 182.998 m 0,52,53
 292.997 63.9969 292.997 63.9969 391.998 63.998 c 0,54,55
 470.404 63.998 470.404 63.998 569.499 129.499 c 0,56,57
 599 148.999 599 148.999 624 170.999 c 1,58,-1
 624 425.999 l 1,59,60
 357.065 350.133 357.065 350.133 309.497 254.998 c 0,61,62
 292.997 221.998 292.997 221.998 292.997 182.998 c 0,52,53
EndSplineSet
Substitution2: "'smcp' Lowercase to Small Capitals in Latin lookup 1 subtable" a.sc
EndChar

StartChar: b
Encoding: 98 98 67
Width: 1125
GlyphClass: 2
Flags: HW
LayerCount: 2
Fore
SplineSet
328 51 m 1,0,1
 301 33 301 33 278 18.9998 c 0,2,3
 191.064 -33.9188 191.064 -33.9188 181 -7.5 c 0,4,5
 177 3 177 3 177 20 c 2,6,-1
 177 1122 l 2,7,8
 177 1163.02 177 1163.02 79.0029 1188.5 c 2,9,-1
 32.0029 1201 l 2,10,11
 -18.9988 1214.91 -18.9988 1214.91 -18.9984 1224.95 c 128,-1,12
 -18.998 1235 -18.998 1235 -14.998 1244 c 1,13,-1
 383.002 1314 l 1,14,-1
 383.002 728.999 l 1,15,16
 482.298 861.393 482.298 861.393 612.503 894.498 c 0,17,18
 642.003 901.998 642.003 901.998 695.003 901.998 c 128,-1,19
 748.002 901.998 748.002 901.998 817.502 867.998 c 128,-1,20
 887.001 833.998 887.001 833.998 940.502 773.498 c 0,21,22
 1059 639.493 1059 639.493 1059 443 c 0,23,24
 1059 219.325 1059 219.325 940.003 96 c 0,25,26
 830.966 -17.001 830.966 -17.001 667.168 -17.0005 c 128,-1,27
 503.37 -17 503.37 -17 328 51 c 1,0,1
383.005 134 m 1,28,29
 467.007 64 467.007 64 632.005 64 c 0,30,31
 741.338 64 741.338 64 800.505 170.5 c 0,32,33
 854.006 266.804 854.006 266.804 854.005 433 c 0,34,35
 854.005 704.14 854.005 704.14 718.503 769.5 c 0,36,37
 676.003 790 676.003 790 623.503 790 c 0,38,39
 535.969 790 535.969 790 451.005 713 c 1,40,41
 413.005 680 413.005 680 383.005 637 c 1,42,-1
 383.005 134 l 1,28,29
EndSplineSet
Substitution2: "'smcp' Lowercase to Small Capitals in Latin lookup 1 subtable" b.sc
EndChar

StartChar: c
Encoding: 99 99 68
Width: 916
GlyphClass: 2
Flags: HW
LayerCount: 2
Fore
SplineSet
689 736.5 m 128,-1,1
 699 757 699 757 699 782.5 c 128,-1,2
 699 808 699 808 664.006 827.003 c 128,-1,3
 629.006 846.003 629.006 846.003 579.506 846.003 c 128,-1,4
 530.006 846.003 530.006 846.003 476.506 826.503 c 128,-1,5
 423.005 807.003 423.005 807.003 377.506 763.003 c 0,6,7
 272.006 660.981 272.006 660.981 272.006 472.003 c 0,8,9
 272.006 199 272.006 199 437.005 121.003 c 0,10,11
 492.005 95.0034 492.005 95.0034 550.005 95.0032 c 128,-1,12
 608.005 95.0029 608.005 95.0029 640.005 97.0029 c 0,13,14
 697.815 100.615 697.815 100.615 760.503 115.003 c 2,15,-1
 830.003 131.003 l 2,16,17
 845.005 135.288 845.005 135.288 845.004 119.002 c 0,18,19
 845.004 115.001 845.004 115.001 845.504 105.502 c 128,-1,20
 846.003 96.0024 846.003 96.0024 840.004 90.002 c 0,21,22
 725.076 -16.9991 725.076 -16.9991 520.004 -16.998 c 0,23,24
 321.618 -16.998 321.618 -16.998 195.005 106.502 c 0,25,26
 66.0029 232.332 66.0029 232.332 66.0039 442.004 c 0,27,28
 66.0039 667.574 66.0039 667.574 230.504 793.504 c 0,29,30
 372.239 902.005 372.239 902.005 567.002 902.004 c 0,31,32
 696.801 902.004 696.801 902.004 783.5 851.003 c 0,33,34
 876.001 796.589 876.001 796.589 876 707.003 c 0,35,36
 876 636.31 876 636.31 805.5 611 c 0,37,38
 748.566 590.561 748.566 590.561 713.783 618.78 c 128,-1,39
 679 647 679 647 679 681.5 c 128,-1,0
 679 716 679 716 689 736.5 c 128,-1,1
EndSplineSet
Substitution2: "'smcp' Lowercase to Small Capitals in Latin lookup 1 subtable" c.sc
EndChar

StartChar: d
Encoding: 100 100 69
Width: 1173
GlyphClass: 2
Flags: HW
LayerCount: 2
Fore
SplineSet
773.999 682.999 m 1,0,1
 648.999 833.001 648.999 833.001 510.5 833 c 0,2,3
 394.308 833 394.308 833 328.5 702.5 c 0,4,5
 272 590.459 272 590.459 272 416 c 0,6,7
 272 249.754 272 249.754 350.5 160.5 c 0,8,9
 423.06 77.998 423.06 77.998 543.999 77.999 c 0,10,11
 685.485 77.999 685.485 77.999 773.999 208.999 c 1,12,-1
 773.999 682.999 l 1,0,1
774 1122 m 2,13,14
 774 1163.02 774 1163.02 675.999 1188.5 c 2,15,-1
 628.999 1201 l 2,16,17
 577.997 1214.91 577.997 1214.91 577.998 1224.95 c 128,-1,18
 577.998 1235 577.998 1235 581.998 1244 c 1,19,-1
 979.998 1314 l 1,20,-1
 979.998 183.998 l 2,21,22
 979.998 123.143 979.998 123.143 1071 98.498 c 0,23,24
 1129.52 82.6483 1129.52 82.6483 1145.76 71.8237 c 128,-1,25
 1162 60.999 1162 60.999 1162 49.4993 c 128,-1,26
 1162 37.9995 1162 37.9995 1157 27.999 c 1,27,-1
 806.998 -5.00098 l 1,28,-1
 786.998 157.999 l 1,29,30
 698.751 24.1062 698.751 24.1062 591.998 -6.00195 c 0,31,32
 552.998 -17.0015 552.998 -17.0015 482.998 -17.0017 c 128,-1,33
 412.999 -17.002 412.999 -17.002 332.999 9.99805 c 128,-1,34
 253 36.998 253 36.998 194 90.998 c 0,35,36
 66 208.152 66 208.152 66 411.999 c 0,37,38
 66 639.001 66 639.001 180 772 c 0,39,40
 291.428 901.999 291.428 901.999 478 902 c 0,41,42
 583.336 902 583.336 902 690 838 c 0,43,44
 737 810 737 810 774 775 c 1,45,-1
 774 1122 l 2,13,14
EndSplineSet
Substitution2: "'smcp' Lowercase to Small Capitals in Latin lookup 1 subtable" d.sc
EndChar

StartChar: e
Encoding: 101 101 70
Width: 946
GlyphClass: 2
Flags: HW
LayerCount: 2
Fore
SplineSet
856.779 681.103 m 0,0,1
 892.557 596.205 892.557 596.205 876 472 c 1,2,-1
 272 472 l 1,3,4
 251.044 262.443 251.044 262.443 363.501 165.499 c 0,5,6
 445.281 94.999 445.281 94.999 589.001 94.999 c 0,7,8
 692.413 94.999 692.413 94.999 811 130.998 c 0,9,10
 816 132.998 816 132.998 820.5 128.997 c 128,-1,11
 825 124.997 825 124.997 825 116.997 c 2,12,-1
 825 99.9971 l 2,13,14
 825 94.9976 825 94.9976 820 89.998 c 0,15,16
 704.923 -17.002 704.923 -17.002 523.001 -17.002 c 0,17,18
 322.613 -17.002 322.613 -17.002 196 106.498 c 0,19,20
 66 233.301 66 233.301 66 442 c 0,21,22
 66 650.2 66 650.2 212.999 782.5 c 0,23,24
 345.775 901.999 345.775 901.999 524 902 c 0,25,26
 763.686 902 763.686 902 856.779 681.103 c 0,0,1
701.001 567.999 m 0,27,28
 701.001 845.997 701.001 845.997 522 845.997 c 0,29,30
 414.288 845.997 414.288 845.997 345.501 739.997 c 0,31,32
 286.597 649.227 286.597 649.227 273.001 510.998 c 1,33,-1
 671.001 531.998 l 2,34,35
 683.001 531.998 683.001 531.998 692.001 541.998 c 128,-1,36
 701.001 551.999 701.001 551.999 701.001 567.999 c 0,27,28
EndSplineSet
Substitution2: "'smcp' Lowercase to Small Capitals in Latin lookup 1 subtable" e.sc
EndChar

StartChar: f
Encoding: 102 102 71
Width: 622
GlyphClass: 2
Flags: HW
LayerCount: 2
Fore
SplineSet
582.002 1217 m 0,0,1
 582.002 1256 582.002 1256 508.002 1256 c 0,2,3
 446.909 1256 446.909 1256 423.002 1205 c 0,4,5
 392.003 1138.87 392.003 1138.87 392.002 947 c 2,6,-1
 392.002 868 l 1,7,-1
 603.002 868 l 1,8,-1
 603.002 809 l 1,9,-1
 392.002 809 l 1,10,-1
 392.002 110 l 2,11,12
 392.002 62.6088 392.002 62.6088 481.001 51 c 0,13,14
 538.617 43.4847 538.617 43.4847 554.309 36.2423 c 128,-1,15
 570 29 570 29 570 17 c 0,16,17
 570 15.0005 570 15.0005 566 0 c 1,18,-1
 30 0 l 1,19,20
 25.9995 15 25.9995 15 25.9998 22 c 128,-1,21
 26 29 26 29 38 35 c 128,-1,22
 50 41 50 41 67.5 44.5 c 128,-1,23
 85.0005 47.9995 85.0005 47.9995 106 51 c 128,-1,24
 127 54 127 54 144.5 60 c 0,25,26
 186 74.2282 186 74.2282 186 110 c 2,27,-1
 186 809 l 1,28,-1
 43 809 l 1,29,-1
 43 868 l 1,30,-1
 186.001 868 l 1,31,-1
 186.001 965 l 2,32,33
 186.001 1144.45 186.001 1144.45 283.501 1228.5 c 0,34,35
 362.96 1297 362.96 1297 497.001 1297 c 0,36,37
 672.179 1297 672.179 1297 733.001 1226.5 c 0,38,39
 755.001 1201 755.001 1201 755.001 1163 c 128,-1,40
 755.001 1125 755.001 1125 731.001 1096.5 c 128,-1,41
 707.001 1068 707.001 1068 659.001 1068 c 128,-1,42
 611.001 1068 611.001 1068 589.502 1092 c 128,-1,43
 568.002 1116 568.002 1116 568.002 1143 c 128,-1,44
 568.002 1170 568.002 1170 575.002 1186.5 c 128,-1,45
 582.002 1203 582.002 1203 582.002 1217 c 0,0,1
EndSplineSet
Substitution2: "'smcp' Lowercase to Small Capitals in Latin lookup 1 subtable" f.sc
EndChar

StartChar: g
Encoding: 103 103 72
Width: 977
GlyphClass: 2
Flags: HW
LayerCount: 2
Fore
SplineSet
319 43 m 1,0,1
 246.119 -4.65221 246.119 -4.65221 225.502 -81.501 c 0,2,3
 201.605 -170.566 201.605 -170.566 290.002 -212.001 c 0,4,5
 354.001 -242.001 354.001 -242.001 428.002 -242.001 c 128,-1,6
 502.002 -242.001 502.002 -242.001 553.502 -232.501 c 128,-1,7
 605.001 -223.001 605.001 -223.001 646.502 -205.001 c 0,8,9
 739.002 -164.881 739.002 -164.881 739.002 -101.001 c 0,10,11
 739.002 -22.0953 739.002 -22.0953 613.001 15.999 c 0,12,13
 570 28.9995 570 28.9995 512 33 c 2,14,-1
 319 43 l 1,0,1
692.005 817.999 m 1,15,-1
 796.005 875.999 l 2,16,17
 845.503 902.999 845.503 902.999 871.254 902.999 c 128,-1,18
 897.005 902.999 897.005 902.999 912.505 895.499 c 128,-1,19
 928.004 887.999 928.004 887.999 939.004 875.999 c 0,20,21
 963.002 849.818 963.002 849.818 963.003 816.999 c 128,-1,22
 963.003 783.999 963.003 783.999 944.003 757.499 c 128,-1,23
 925.002 730.999 925.002 730.999 889.002 730.999 c 0,24,25
 836.67 730.999 836.67 730.999 818.003 770.999 c 2,26,-1
 805.003 798.499 l 2,27,28
 791.648 826.321 791.648 826.321 720.002 787.999 c 1,29,30
 766.005 726.661 766.005 726.661 766.005 647.332 c 128,-1,31
 766.006 568.003 766.006 568.003 743.006 512.003 c 128,-1,32
 720.006 456.003 720.006 456.003 678.006 416.504 c 0,33,34
 590.285 334.006 590.285 334.006 445.006 334.005 c 0,35,36
 378.005 334.005 378.005 334.005 320.005 354.005 c 1,37,38
 314.005 351.005 314.005 351.005 300.005 348.505 c 128,-1,39
 286.005 346.004 286.005 346.004 271.005 337.504 c 0,40,41
 234.006 316.536 234.006 316.536 234.005 264.004 c 0,42,43
 234.005 216.298 234.005 216.298 438.005 207.503 c 0,44,45
 676.364 197.227 676.364 197.227 779.007 134.501 c 0,46,47
 880.008 72.7793 880.008 72.7793 880.007 -49.999 c 0,48,49
 880.007 -210.181 880.007 -210.181 647.007 -271.999 c 0,50,51
 484.777 -315.041 484.777 -315.041 315.506 -288.999 c 0,52,53
 193.785 -270.273 193.785 -270.273 140.506 -217.999 c 0,54,55
 86.3186 -164.836 86.3186 -164.836 144.006 -60.999 c 0,56,57
 177.632 -0.471552 177.632 -0.471552 240.006 43.001 c 1,58,59
 156.339 73.1204 156.339 73.1204 126.006 153.501 c 0,60,61
 100.197 221.893 100.197 221.893 131.506 283.501 c 0,62,63
 161.567 342.655 161.567 342.655 223.006 363.499 c 0,64,65
 251.006 372.999 251.006 372.999 275.006 372.999 c 1,66,67
 114.007 460.817 114.007 460.817 114.005 616.999 c 0,68,69
 114.005 747.256 114.005 747.256 207.505 824.998 c 0,70,71
 300.112 901.997 300.112 901.997 449.96 901.998 c 128,-1,72
 599.809 901.998 599.809 901.998 692.005 817.999 c 1,15,-1
459.007 383.004 m 0,73,74
 599.005 383.004 599.005 383.004 599.007 600.004 c 0,75,76
 599.007 717.653 599.007 717.653 573.007 763.328 c 128,-1,77
 547.007 809.004 547.007 809.004 514.507 827.504 c 128,-1,78
 482.006 846.003 482.006 846.003 441.006 846.004 c 128,-1,79
 400.006 846.004 400.006 846.004 373.006 830.504 c 128,-1,80
 346.006 815.004 346.006 815.004 327.506 787.004 c 0,81,82
 288.006 727.218 288.006 727.218 288.006 637.003 c 0,83,84
 288.006 383.006 288.006 383.006 459.007 383.004 c 0,73,74
EndSplineSet
Substitution2: "'smcp' Lowercase to Small Capitals in Latin lookup 1 subtable" g.sc
EndChar

StartChar: h
Encoding: 104 104 73
Width: 1252
GlyphClass: 2
Flags: HW
LayerCount: 2
Fore
SplineSet
214 1122 m 2,0,1
 214 1163.02 214 1163.02 116.002 1188.5 c 2,2,-1
 69.002 1201 l 2,3,4
 18.0002 1214.91 18.0002 1214.91 18.0006 1224.96 c 128,-1,5
 18.001 1235 18.001 1235 22.001 1244 c 1,6,-1
 418.001 1314 l 1,7,-1
 421.001 737.001 l 1,8,9
 484.067 824.912 484.067 824.912 600.001 876.001 c 0,10,11
 659 902 659 902 737.501 902.001 c 128,-1,12
 816.001 902.001 816.001 902.001 879.501 875.501 c 128,-1,13
 943 849 943 849 987.501 795.001 c 0,14,15
 1081 681.543 1081 681.543 1081 462.002 c 2,16,-1
 1081 122.002 l 2,17,18
 1081 68.7305 1081 68.7305 1158.5 55.501 c 128,-1,19
 1236 42.2713 1236 42.2713 1236 17.001 c 0,20,21
 1236 13.0005 1236 13.0005 1232 0 c 1,22,-1
 716.001 0 l 1,23,24
 703.403 25.2001 703.403 25.2001 719.202 33.1001 c 128,-1,25
 735.001 41 735.001 41 753.501 45 c 2,26,-1
 793.001 53.5 l 2,27,28
 875.001 71.0714 875.001 71.0714 875.001 122.001 c 2,29,-1
 875.001 430.001 l 2,30,31
 875.001 475.001 875.001 475.001 876.001 523.001 c 128,-1,32
 877.001 571.001 877.001 571.001 874.001 615.501 c 128,-1,33
 871.001 660.001 871.001 660.001 861.501 699.501 c 128,-1,34
 852.001 739 852.001 739 832.002 769.001 c 0,35,36
 789.337 833 789.337 833 692.001 833.001 c 0,37,38
 593.005 833.001 593.005 833.001 499.002 739.001 c 1,39,40
 456.001 698.001 456.001 698.001 421.002 645.002 c 1,41,-1
 421.002 120.002 l 2,42,43
 421.002 70.4314 421.002 70.4314 515.502 55.001 c 0,44,45
 578.205 44.7623 578.205 44.7623 594.103 37.3814 c 128,-1,46
 610.001 30.0005 610.001 30.0005 610.002 17 c 0,47,48
 610.002 12.9995 610.002 12.9995 606.002 -0.000976562 c 1,49,-1
 16.002 -0.000976562 l 1,50,51
 2.48996 27.027 2.48996 27.027 21.746 36.0137 c 128,-1,52
 41.002 45.0005 41.002 45.0005 64.002 49.5 c 128,-1,53
 87.0015 54 87.0015 54 113.001 57.5 c 128,-1,54
 139 60.9995 139 60.9995 162 68.5 c 0,55,56
 215 85.783 215 85.783 215 126 c 2,57,-1
 214 1122 l 2,0,1
EndSplineSet
Substitution2: "'smcp' Lowercase to Small Capitals in Latin lookup 1 subtable" h.sc
EndChar

StartChar: i
Encoding: 105 105 74
Width: 626
GlyphClass: 2
Flags: HW
LayerCount: 2
Fore
SplineSet
424 120 m 2,0,1
 424 66.042 424 66.042 513.001 52.498 c 0,2,3
 573.049 43.3614 573.049 43.3614 587.525 36.6802 c 0,4,5
 609.745 26.4247 609.745 26.4247 598 -0.000976562 c 1,6,-1
 37 -0.000976562 l 1,7,8
 28.2229 28.5223 28.2229 28.5223 44.1114 36.7614 c 128,-1,9
 60 45.0005 60 45.0005 81 49.5 c 128,-1,10
 102 54 102 54 125.5 57.5 c 128,-1,11
 149 60.9995 149 60.9995 170 68.5 c 0,12,13
 218 85.6429 218 85.6429 218 126 c 2,14,-1
 218 705 l 2,15,16
 218 754.69 218 754.69 144.5 766 c 0,17,18
 96.1102 773.445 96.1102 773.445 83.5553 779.723 c 0,19,20
 65.1383 788.932 65.1383 788.932 76 815 c 1,21,-1
 424 883 l 1,22,-1
 424 120 l 2,0,1
179.002 1104 m 128,-1,24
 179.002 1130 179.002 1130 188.502 1152.5 c 128,-1,25
 198.001 1175 198.001 1175 214.002 1192 c 128,-1,26
 230.002 1209 230.002 1209 252.003 1218.5 c 128,-1,27
 274.003 1228 274.003 1228 300.003 1228 c 128,-1,28
 326.002 1228 326.002 1228 349.002 1218.5 c 128,-1,29
 372.001 1209 372.001 1209 388.502 1192 c 128,-1,30
 405.002 1175 405.002 1175 414.502 1152.5 c 128,-1,31
 424.001 1130 424.001 1130 424.002 1104 c 128,-1,32
 424.002 1078 424.002 1078 414.502 1056 c 128,-1,33
 405.002 1034 405.002 1034 388.502 1018 c 128,-1,34
 372.002 1002 372.002 1002 349.002 992.497 c 128,-1,35
 326.002 982.998 326.002 982.998 300.003 982.997 c 128,-1,36
 274.003 982.997 274.003 982.997 252.003 992.497 c 128,-1,37
 230.002 1002 230.002 1002 214.002 1018 c 128,-1,38
 198.001 1034 198.001 1034 188.502 1056 c 128,-1,23
 179.002 1078 179.002 1078 179.002 1104 c 128,-1,24
EndSplineSet
Substitution2: "'smcp' Lowercase to Small Capitals in Latin lookup 1 subtable" i.sc
EndChar

StartChar: j
Encoding: 106 106 75
Width: 622
GlyphClass: 2
Flags: HW
LayerCount: 2
Fore
SplineSet
-50.999 -198.002 m 0,0,1
 -50.999 -117.002 -50.999 -117.002 24 -117.002 c 0,2,3
 64.9995 -117.002 64.9995 -117.002 84 -137.002 c 128,-1,4
 103 -157.001 103 -157.001 103 -175.502 c 128,-1,5
 103 -194.002 103 -194.002 116 -209.002 c 128,-1,6
 129 -224.002 129 -224.002 145.5 -224.002 c 128,-1,7
 162 -224.002 162 -224.002 177.5 -210.502 c 128,-1,8
 193 -197.002 193 -197.002 206.5 -162.502 c 0,9,10
 237.001 -84.5552 237.001 -84.5552 237 81.999 c 2,11,-1
 237 704.999 l 2,12,13
 237 752.428 237 752.428 156 763.999 c 0,14,15
 104.884 771.301 104.884 771.301 89.9422 778.15 c 128,-1,16
 75 785 75 785 75 798 c 0,17,18
 75 800 75 800 79 815 c 1,19,-1
 443 883 l 1,20,-1
 443 119 l 2,21,22
 443 -98.4358 443 -98.4358 337.999 -208.002 c 0,23,24
 253.666 -296.001 253.666 -296.001 127 -296.002 c 0,25,26
 55.034 -296.002 55.034 -296.002 16.0173 -274.502 c 0,27,28
 -50.9981 -237.573 -50.9981 -237.573 -50.999 -198.002 c 0,0,1
197 1104 m 128,-1,30
 197 1130 197 1130 206.5 1152.5 c 128,-1,31
 216 1175 216 1175 232 1192 c 128,-1,32
 248 1209 248 1209 270.001 1218.5 c 128,-1,33
 292.001 1228 292.001 1228 318.001 1228 c 128,-1,34
 344 1228 344 1228 367 1218.5 c 128,-1,35
 390 1209 390 1209 406.5 1192 c 128,-1,36
 423 1175 423 1175 432.5 1152.5 c 128,-1,37
 442 1130 442 1130 442 1104 c 128,-1,38
 442 1078 442 1078 432.5 1056 c 128,-1,39
 423 1034 423 1034 406.5 1018 c 128,-1,40
 390 1002 390 1002 367 992.496 c 128,-1,41
 344 982.997 344 982.997 318.001 982.996 c 128,-1,42
 292.001 982.996 292.001 982.996 270.001 992.496 c 128,-1,43
 248 1002 248 1002 232 1018 c 128,-1,44
 216 1034 216 1034 206.5 1056 c 128,-1,29
 197 1078 197 1078 197 1104 c 128,-1,30
EndSplineSet
Substitution2: "'smcp' Lowercase to Small Capitals in Latin lookup 1 subtable" j.sc
EndChar

StartChar: k
Encoding: 107 107 76
Width: 1133
GlyphClass: 2
Flags: HW
LayerCount: 2
Fore
SplineSet
36.9971 -0 m 1,0,1
 28.8317 20.4165 28.8317 20.4165 44.4151 28.2075 c 128,-1,2
 59.9985 35.9985 59.9985 35.9985 78.999 41.999 c 128,-1,3
 97.9995 47.999 97.9995 47.999 120.499 53.499 c 128,-1,4
 142.999 58.9995 142.999 58.9995 161.999 67.5 c 0,5,6
 207.001 87.633 207.001 87.633 207 120 c 2,7,-1
 207 1122 l 2,8,9
 207 1163.02 207 1163.02 108.992 1188.5 c 2,10,-1
 61.9922 1201 l 2,11,12
 10.9905 1214.91 10.9905 1214.91 10.9908 1224.95 c 128,-1,13
 10.9912 1235 10.9912 1235 14.9912 1244 c 1,14,-1
 412.991 1314 l 1,15,-1
 412.991 474.997 l 1,16,-1
 474.991 474.997 l 1,17,-1
 824.991 777.997 l 1,18,19
 826.991 783.997 826.991 783.997 826.991 787.997 c 2,20,-1
 826.991 793.997 l 2,21,22
 826.991 814.997 826.991 814.997 806.991 821.497 c 128,-1,23
 786.992 827.997 786.992 827.997 762.492 829.996 c 128,-1,24
 737.993 831.996 737.993 831.996 717.993 835.996 c 128,-1,25
 697.994 839.997 697.994 839.997 697.993 854.996 c 0,26,27
 697.993 859.996 697.993 859.996 700.993 867.995 c 1,28,-1
 1094.99 867.995 l 1,29,-1
 1097.99 854.995 l 1,30,31
 1097.99 833.596 1097.99 833.596 1037.99 821.297 c 0,32,33
 949.423 803.141 949.423 803.141 912.992 773.997 c 1,34,-1
 616.992 521.997 l 1,35,-1
 950.992 93.9971 l 1,36,37
 966.49 76.2878 966.49 76.2878 1018.24 61.1419 c 128,-1,38
 1069.99 45.9961 1069.99 45.9961 1087.49 39.4961 c 0,39,40
 1126.99 24.8265 1126.99 24.8265 1126.99 14.662 c 128,-1,41
 1126.99 4.49744 1126.99 4.49744 1124 -0.00292969 c 1,42,-1
 628.995 -0.00292969 l 1,43,44
 614.596 25.9189 614.596 25.9189 653.996 33.4971 c 0,45,46
 666.997 35.9976 666.997 35.9976 682.496 37.9971 c 128,-1,47
 697.996 39.9966 697.996 39.9966 710.996 43.9971 c 0,48,49
 740.998 53.2292 740.998 53.2292 740.997 73.9971 c 0,50,51
 740.997 82.3712 740.997 82.3712 727.997 96.9971 c 1,52,-1
 477.997 419.997 l 1,53,-1
 412.997 419.997 l 1,54,-1
 412.997 115.997 l 2,55,56
 412.997 66.1971 412.997 66.1971 488.997 50.9971 c 128,-1,57
 564.998 35.7946 564.998 35.7946 564.997 13.998 c 0,58,59
 564.997 10.0015 564.997 10.0015 560.997 0 c 1,60,-1
 36.9971 -0 l 1,0,1
EndSplineSet
Substitution2: "'smcp' Lowercase to Small Capitals in Latin lookup 1 subtable" k.sc
EndChar

StartChar: l
Encoding: 108 108 77
Width: 588
GlyphClass: 2
Flags: HW
LayerCount: 2
Fore
SplineSet
195 1122 m 2,0,1
 195 1163.02 195 1163.02 97.0029 1188.5 c 2,2,-1
 50.0029 1201 l 2,3,4
 -0.998785 1214.91 -0.998785 1214.91 -0.998416 1224.95 c 128,-1,5
 -0.998047 1235 -0.998047 1235 3.00195 1244 c 1,6,-1
 401.002 1314 l 1,7,-1
 402.002 119.998 l 2,8,9
 402.002 66.0417 402.002 66.0417 491.001 52.498 c 0,10,11
 551.049 43.3614 551.049 43.3614 565.525 36.6802 c 0,12,13
 587.745 26.4247 587.745 26.4247 576 -0.000976562 c 1,14,-1
 16 -0.000976562 l 1,15,16
 7.22286 28.5223 7.22286 28.5223 23.1114 36.7614 c 128,-1,17
 39 45.0005 39 45.0005 59.5 49.5 c 128,-1,18
 80.0005 54 80.0005 54 104 57.5 c 128,-1,19
 128 60.9995 128 60.9995 148.5 68.5 c 0,20,21
 196 85.8776 196 85.8776 196 126 c 2,22,-1
 195 1122 l 2,0,1
EndSplineSet
Substitution2: "'smcp' Lowercase to Small Capitals in Latin lookup 1 subtable" l.sc
EndChar

StartChar: m
Encoding: 109 109 78
Width: 1735
GlyphClass: 2
Flags: HW
LayerCount: 2
Fore
SplineSet
978.001 666.998 m 1,0,1
 991.001 611.1 991.001 611.1 991.001 459.997 c 2,2,-1
 991.001 121.997 l 2,3,4
 991.001 73.1835 991.001 73.1835 1075.5 55.4971 c 0,5,6
 1131.63 43.7479 1131.63 43.7479 1145.82 36.3727 c 0,7,8
 1167.22 25.2429 1167.22 25.2429 1156 -0.00195312 c 1,9,-1
 630.001 -0.00195312 l 1,10,11
 621.871 26.4179 621.871 26.4179 635.936 35.2085 c 128,-1,12
 650.001 43.999 650.001 43.999 667.501 49.499 c 128,-1,13
 685.001 54.9995 685.001 54.9995 705.502 59.499 c 128,-1,14
 726.002 63.999 726.002 63.999 743.503 71.499 c 0,15,16
 785.003 89.2842 785.003 89.2842 785.003 121.999 c 2,17,-1
 785.003 550.999 l 2,18,19
 785.003 679.399 785.003 679.399 766.003 730.699 c 128,-1,20
 747.003 782 747.003 782 718.503 807.5 c 128,-1,21
 690.003 833 690.003 833 654.003 833 c 128,-1,22
 618.003 833 618.003 833 595.003 824.5 c 128,-1,23
 572.003 816 572.003 816 550.504 802.5 c 0,24,25
 511.399 777.945 511.399 777.945 473.701 736.472 c 128,-1,26
 436.003 695 436.003 695 404.003 641 c 1,27,-1
 404.003 120 l 2,28,29
 404.003 69.349 404.003 69.349 486.502 54 c 0,30,31
 541.86 43.6993 541.86 43.6993 555.431 36.3494 c 128,-1,32
 569.001 28.9995 569.001 28.9995 569.001 18.9998 c 128,-1,33
 569.001 9 569.001 9 565.001 0 c 1,34,-1
 37.001 0 l 1,35,36
 33.0005 13.0005 33.0005 13.0005 33.0007 20.5005 c 0,37,38
 33.0012 35.1489 33.0012 35.1489 75.501 45.5 c 2,39,-1
 115.501 55 l 2,40,41
 198 74.1844 198 74.1844 198 126 c 2,42,-1
 198 736 l 2,43,44
 198 785.549 198 785.549 104.5 797 c 0,45,46
 42.6212 804.577 42.6212 804.577 26.8108 810.789 c 128,-1,47
 11.0005 817 11.0005 817 11.0002 825.5 c 128,-1,48
 11 834 11 834 16 846 c 1,49,-1
 384 884 l 1,50,-1
 404 748.999 l 1,51,52
 457.436 831.061 457.436 831.061 565 877.999 c 0,53,54
 620 901.999 620 901.999 705.5 901.999 c 128,-1,55
 791 901.999 791 901.999 860.001 856.999 c 128,-1,56
 929.001 811.999 929.001 811.999 958.001 733.999 c 1,57,58
 1058.09 902.001 1058.09 902.001 1239 901.999 c 0,59,60
 1415 901.999 1415 901.999 1494.5 795.999 c 128,-1,61
 1574 689.999 1574 689.999 1574 459.998 c 2,62,-1
 1574 121.998 l 2,63,64
 1574 72.1351 1574 72.1351 1646.5 54.498 c 0,65,66
 1695.04 42.6916 1695.04 42.6916 1707.02 35.8448 c 128,-1,67
 1719 28.998 1719 28.998 1719 20.9983 c 128,-1,68
 1719 12.9985 1719 12.9985 1714 -0.00195312 c 1,69,-1
 1217 -0.00195312 l 1,70,71
 1208.9 26.3243 1208.9 26.3243 1222.45 35.1617 c 128,-1,72
 1236 43.999 1236 43.999 1253 49.499 c 128,-1,73
 1270 54.9995 1270 54.9995 1290.5 59.499 c 128,-1,74
 1311 63.999 1311 63.999 1328 71.499 c 0,75,76
 1368 89.147 1368 89.147 1368 121.999 c 2,77,-1
 1368 507.999 l 2,78,79
 1368 677.163 1368 677.163 1350.5 729.081 c 128,-1,80
 1333 781 1333 781 1300.5 806.999 c 128,-1,81
 1268 832.999 1268 832.999 1225 832.999 c 128,-1,82
 1182 832.999 1182 832.999 1158.5 825.999 c 128,-1,83
 1135 818.999 1135 818.999 1114 806.999 c 0,84,85
 1036.13 762.504 1036.13 762.504 978.001 666.998 c 1,0,1
EndSplineSet
Substitution2: "'smcp' Lowercase to Small Capitals in Latin lookup 1 subtable" m.sc
EndChar

StartChar: n
Encoding: 110 110 79
Width: 1206
GlyphClass: 2
Flags: HW
LayerCount: 2
Fore
SplineSet
37.999 0.000976562 m 1,0,1
 30.2181 23.3322 30.2181 23.3322 37.999 28 c 0,2,3
 64.999 44.0005 64.999 44.0005 93.499 49 c 128,-1,4
 121.999 53.9995 121.999 53.9995 145.499 60 c 0,5,6
 198.001 73.4044 198.001 73.4044 198 126 c 2,7,-1
 198 732 l 2,8,9
 198 781.549 198 781.549 104.5 793 c 0,10,11
 42.6212 800.577 42.6212 800.577 26.8108 806.789 c 128,-1,12
 11.0005 813 11.0005 813 11.0002 821.5 c 128,-1,13
 11 830 11 830 16 842 c 1,14,-1
 384 880 l 1,15,-1
 403.997 735.999 l 1,16,17
 465.946 825.053 465.946 825.053 584.497 876 c 0,18,19
 644.997 902 644.997 902 725.997 902 c 0,20,21
 890.997 902 890.997 902 974.997 787.5 c 128,-1,22
 1059 673 1059 673 1059 463 c 2,23,-1
 1059 117 l 2,24,25
 1059 72.0705 1059 72.0705 1110.5 56.502 c 0,26,27
 1132 50.0024 1132 50.0024 1157 45.502 c 128,-1,28
 1182 41.002 1182 41.002 1202 28.002 c 1,29,30
 1206 24.0015 1206 24.0015 1206 17.001 c 128,-1,31
 1206 10.0005 1206 10.0005 1202 0 c 1,32,-1
 697.997 0 l 1,33,34
 689.776 26.7148 689.776 26.7148 703.887 34.3577 c 128,-1,35
 717.997 42.0005 717.997 42.0005 735.497 46.501 c 128,-1,36
 752.998 51.001 752.998 51.001 773.498 55.501 c 128,-1,37
 793.999 60.001 793.999 60.001 811.499 67.501 c 0,38,39
 852.999 85.2862 852.999 85.2862 852.999 122.001 c 2,40,-1
 852.999 431.001 l 2,41,42
 852.999 521.001 852.999 521.001 850.499 595.001 c 128,-1,43
 847.999 669 847.999 669 830.498 722 c 0,44,45
 793.846 832.998 793.846 832.998 665.999 832.999 c 0,46,47
 575.996 832.999 575.996 832.999 480.999 737.999 c 0,48,49
 438.999 697 438.999 697 403.999 644 c 1,50,-1
 403.999 120 l 2,51,52
 403.999 66.2083 403.999 66.2083 497.999 52.5 c 0,53,54
 560.905 43.3274 560.905 43.3274 576.452 36.6642 c 0,55,56
 599.839 26.6406 599.839 26.6406 587.999 0.000976562 c 1,57,-1
 37.999 0.000976562 l 1,0,1
EndSplineSet
Substitution2: "'smcp' Lowercase to Small Capitals in Latin lookup 1 subtable" n.sc
EndChar

StartChar: o
Encoding: 111 111 80
Width: 1119
GlyphClass: 2
Flags: HW
LayerCount: 2
Fore
SplineSet
272 467.5 m 0,0,1
 272 370 272 370 296.498 293.002 c 128,-1,2
 320.998 216.002 320.998 216.002 360.998 165.002 c 0,3,4
 440.216 64.0009 440.216 64.0009 555.998 64.002 c 0,5,6
 664.646 64.002 664.646 64.002 740.498 153.002 c 0,7,8
 823.997 250.973 823.997 250.973 823.998 412.001 c 0,9,10
 823.998 622.8 823.998 622.8 735.998 740.501 c 0,11,12
 657.12 846 657.12 846 541.998 846.001 c 0,13,14
 433.224 846.001 433.224 846.001 355.999 751.501 c 0,15,16
 272.001 648.712 272.001 648.712 272 467.5 c 0,0,1
65.998 442.001 m 0,17,18
 65.998 556.001 65.998 556.001 107.498 642.503 c 128,-1,19
 148.999 729.003 148.999 729.003 216.498 786.503 c 128,-1,20
 283.998 844.002 283.998 844.002 370.498 873.002 c 128,-1,21
 456.999 902.001 456.999 902.001 546.998 902.002 c 128,-1,22
 636.998 902.002 636.998 902.002 723.998 873.002 c 128,-1,23
 810.998 844.002 810.998 844.002 878.998 786.002 c 0,24,25
 1030 657.205 1030 657.205 1030 442.002 c 0,26,27
 1030 225.706 1030 225.706 879.498 97.5029 c 0,28,29
 745.084 -16.9971 745.084 -16.9971 549.998 -16.9971 c 0,30,31
 353.589 -16.9971 353.589 -16.9971 216.998 98.502 c 0,32,33
 65.9971 226.186 65.9971 226.186 65.998 442.001 c 0,17,18
EndSplineSet
Substitution2: "'smcp' Lowercase to Small Capitals in Latin lookup 1 subtable" o.sc
EndChar

StartChar: p
Encoding: 112 112 81
Width: 1167
GlyphClass: 2
Flags: HW
LayerCount: 2
Fore
SplineSet
679 64 m 0,0,1
 895.001 64 895.001 64 895.001 444.001 c 0,2,3
 895.001 693.616 895.001 693.616 761.5 765.5 c 0,4,5
 716 790 716 790 658.5 790 c 0,6,7
 565.864 790 565.864 790 482 714 c 1,8,9
 444 681 444 681 413 638 c 1,10,-1
 413 258 l 1,11,12
 472.403 109.494 472.403 109.494 609.5 72.5 c 0,13,14
 641 63.9995 641 63.9995 679 64 c 0,0,1
209.001 708.001 m 1,15,16
 206.741 762.207 206.741 762.207 107.496 787.504 c 0,17,18
 43.9059 803.712 43.9059 803.712 27.4507 813.358 c 128,-1,19
 10.9956 823.004 10.9956 823.004 10.9958 831.004 c 128,-1,20
 10.9961 839.003 10.9961 839.003 14.9961 854.004 c 1,21,-1
 380.996 884.004 l 1,22,-1
 398.996 704.004 l 1,23,24
 521.398 902.006 521.398 902.006 700.999 902.004 c 0,25,26
 881.545 902.004 881.545 902.004 987.999 784.504 c 0,27,28
 1101 659.776 1101 659.776 1101 434.004 c 0,29,30
 1101 218.683 1101 218.683 983.499 98.0049 c 0,31,32
 871.526 -16.9941 871.526 -16.9941 682.999 -16.9951 c 0,33,34
 588.999 -16.9951 588.999 -16.9951 523.498 16.5049 c 128,-1,35
 457.998 50.0044 457.998 50.0044 410.998 126.005 c 1,36,-1
 411.998 -227.995 l 2,37,38
 411.998 -283.11 411.998 -283.11 510.498 -300.494 c 0,39,40
 576.374 -312.119 576.374 -312.119 592.687 -320.557 c 128,-1,41
 609 -328.994 609 -328.994 608.999 -337.994 c 128,-1,42
 608.999 -346.995 608.999 -346.995 604.999 -359.995 c 1,43,-1
 38.999 -359.995 l 1,44,45
 25.6003 -333.194 25.6003 -333.194 42.7999 -324.595 c 128,-1,46
 59.9995 -315.996 59.9995 -315.996 79 -310.996 c 128,-1,47
 98.0005 -305.997 98.0005 -305.997 121 -300.997 c 128,-1,48
 144 -295.998 144 -295.998 163 -287.998 c 0,49,50
 208.002 -269.052 208.002 -269.052 208.001 -227.999 c 2,51,-1
 209.001 708.001 l 1,15,16
EndSplineSet
Substitution2: "'smcp' Lowercase to Small Capitals in Latin lookup 1 subtable" p.sc
EndChar

StartChar: q
Encoding: 113 113 82
Width: 1167
GlyphClass: 2
Flags: HW
LayerCount: 2
Fore
SplineSet
796.998 833.996 m 1,0,1
 823.998 851.996 823.998 851.996 846.998 865.996 c 0,2,3
 933.934 918.915 933.934 918.915 943.998 892.496 c 0,4,5
 947.999 881.996 947.999 881.996 947.998 864.996 c 2,6,-1
 947.998 -228.004 l 2,7,8
 947.998 -282.09 947.998 -282.09 1035 -301.002 c 0,9,10
 1089.85 -312.924 1089.85 -312.924 1105.92 -320.962 c 0,11,12
 1130.4 -333.199 1130.4 -333.199 1117 -360 c 1,13,-1
 551 -360 l 1,14,15
 546.994 -346.982 546.994 -346.982 546.994 -337.992 c 128,-1,16
 546.994 -329.001 546.994 -329.001 561.494 -321.501 c 128,-1,17
 575.995 -314.001 575.995 -314.001 597.995 -309.501 c 128,-1,18
 619.996 -305.001 619.996 -305.001 645.495 -300.501 c 128,-1,19
 670.995 -296.001 670.995 -296.001 692.995 -288.001 c 0,20,21
 743.997 -269.456 743.997 -269.456 743.996 -228.002 c 2,22,-1
 743.996 155.998 l 1,23,24
 624.228 -17.0008 624.228 -17.0008 450.996 -17.002 c 0,25,26
 298.131 -17.002 298.131 -17.002 184.497 111.498 c 0,27,28
 65.9951 245.503 65.9951 245.503 65.9961 441.996 c 0,29,30
 65.9961 665.671 65.9961 665.671 184.996 788.996 c 0,31,32
 294.033 901.997 294.033 901.997 457.831 901.997 c 128,-1,33
 621.628 901.996 621.628 901.996 796.998 833.996 c 1,0,1
270.994 443.998 m 0,34,35
 270.994 357.998 270.994 357.998 289.994 290.497 c 128,-1,36
 308.995 222.997 308.995 222.997 340.494 179.497 c 0,37,38
 401.685 94.996 401.685 94.996 500.994 94.9971 c 0,39,40
 564.995 94.9971 564.995 94.9971 629.494 132.497 c 128,-1,41
 693.994 169.997 693.994 169.997 741.994 247.997 c 1,42,-1
 741.994 749.997 l 1,43,44
 655.381 832.999 655.381 832.999 492.994 832.998 c 0,45,46
 383.725 832.998 383.725 832.998 324.494 720.998 c 0,47,48
 270.993 619.83 270.993 619.83 270.994 443.998 c 0,34,35
EndSplineSet
Substitution2: "'smcp' Lowercase to Small Capitals in Latin lookup 1 subtable" q.sc
EndChar

StartChar: r
Encoding: 114 114 83
Width: 792
GlyphClass: 2
Flags: HW
LayerCount: 2
Fore
SplineSet
17.999 0.000976562 m 1,0,1
 10.5326 22.4002 10.5326 22.4002 17.999 28.001 c 1,2,3
 44.999 44.0015 44.999 44.0015 73.499 49.001 c 128,-1,4
 101.999 54.0005 101.999 54.0005 124.499 60.001 c 0,5,6
 176 73.7345 176 73.7345 175.999 126.001 c 2,7,-1
 175.999 738.001 l 2,8,9
 175.999 787.487 175.999 787.487 93.5 799.001 c 0,10,11
 37.6278 806.797 37.6278 806.797 24.3144 812.899 c 128,-1,12
 11.001 819.001 11.001 819.001 11.001 827.501 c 128,-1,13
 11.001 836.001 11.001 836.001 16.001 848.001 c 1,14,-1
 338.001 886.001 l 1,15,-1
 369.001 721.001 l 1,16,17
 409.417 807.341 409.417 807.341 489.001 858.501 c 0,18,19
 556.667 902.001 556.667 902.001 621.835 902.001 c 128,-1,20
 687.002 902.001 687.002 902.001 724.502 875.501 c 128,-1,21
 762.002 849 762.002 849 762.002 801.001 c 0,22,23
 762.002 734.517 762.002 734.517 711.502 708.501 c 0,24,25
 671.495 687.89 671.495 687.89 640.748 701.945 c 128,-1,26
 610 716 610 716 599.501 728.5 c 128,-1,27
 589.001 741 589.001 741 583.501 755.5 c 128,-1,28
 578 770 578 770 572.5 782.5 c 0,29,30
 559.959 810.998 559.959 810.998 539 810.999 c 0,31,32
 521.124 810.999 521.124 810.999 491.562 795 c 128,-1,33
 462 779 462 779 441.001 757.001 c 128,-1,34
 420.001 735 420.001 735 407.001 712.501 c 0,35,36
 382.001 669.233 382.001 669.233 382.001 636 c 2,37,-1
 382.001 120 l 2,38,39
 382.001 66.1958 382.001 66.1958 472 52.5 c 0,40,41
 531.875 43.3896 531.875 43.3896 546.937 36.6953 c 128,-1,42
 561.999 30.001 561.999 30.001 561.999 19.501 c 128,-1,43
 561.999 9.00098 561.999 9.00098 557.999 0.000976562 c 1,44,-1
 17.999 0.000976562 l 1,0,1
EndSplineSet
Substitution2: "'smcp' Lowercase to Small Capitals in Latin lookup 1 subtable" r.sc
EndChar

StartChar: s
Encoding: 115 115 84
Width: 828
GlyphClass: 2
Flags: HW
LayerCount: 2
Fore
SplineSet
90 64 m 1,0,-1
 101 290 l 1,1,2
 136.34 313.554 136.34 313.554 155.17 293.277 c 128,-1,3
 174 273 174 273 173.999 232.5 c 128,-1,4
 173.999 192 173.999 192 195.499 156.499 c 128,-1,5
 216.999 120.999 216.999 120.999 250.999 96.499 c 0,6,7
 319.692 47.0011 319.692 47.0011 409 47 c 0,8,9
 509.001 47 509.001 47 545.001 111.501 c 0,10,11
 557.001 133 557.001 133 557.001 161.5 c 128,-1,12
 557.001 190 557.001 190 547.001 211.5 c 0,13,14
 527.449 253.534 527.449 253.534 464.5 296.5 c 1,15,-1
 257 430 l 2,16,17
 179.995 479.004 179.995 479.004 143 536.996 c 128,-1,18
 106 594.997 106 594.997 106 667.497 c 128,-1,19
 106 739.997 106 739.997 130.5 783.497 c 128,-1,20
 155 826.997 155 826.997 195.5 852.997 c 0,21,22
 271.83 901.998 271.83 901.998 370.915 901.998 c 0,23,24
 537.729 901.997 537.729 901.997 663 849.997 c 1,25,-1
 679 625.997 l 1,26,27
 657.145 615.073 657.145 615.073 645.072 625.536 c 128,-1,28
 633 635.998 633 635.998 626 645.497 c 0,29,30
 610.566 666.44 610.566 666.44 604.782 694.218 c 128,-1,31
 598.999 721.997 598.999 721.997 574.999 751.497 c 128,-1,32
 550.999 780.998 550.999 780.998 518.499 801.997 c 0,33,34
 450.401 845.998 450.401 845.998 390.7 845.998 c 0,35,36
 267 845.997 267 845.997 266.999 746.998 c 0,37,38
 266.999 701.998 266.999 701.998 288.999 674.998 c 128,-1,39
 311 647.998 311 647.998 351.999 621.998 c 2,40,-1
 538.999 498.998 l 2,41,42
 735.999 370.191 735.999 370.191 735.999 221.999 c 0,43,44
 735.999 99.8252 735.999 99.8252 636.499 37.5 c 0,45,46
 549.49 -17.0011 549.49 -17.0011 383.692 -17.0005 c 128,-1,47
 217.895 -17 217.895 -17 90 64 c 1,0,-1
EndSplineSet
Substitution2: "'smcp' Lowercase to Small Capitals in Latin lookup 1 subtable" s.sc
EndChar

StartChar: t
Encoding: 116 116 85
Width: 696
GlyphClass: 2
Flags: HW
LayerCount: 2
Fore
SplineSet
643.005 101.001 m 0,0,1
 661.997 101.001 661.997 101.001 662.003 66.001 c 0,2,3
 662.003 65.0005 662.003 65.0005 652.003 52 c 128,-1,4
 642.002 38.9995 642.002 38.9995 620.002 23.5 c 0,5,6
 562.518 -16.9982 562.518 -16.9982 487.759 -16.9986 c 128,-1,7
 413 -16.999 413 -16.999 360.001 -1.49902 c 128,-1,8
 307.001 14.0005 307.001 14.0005 268.501 54.001 c 0,9,10
 185.999 139.717 185.999 139.717 186 334 c 2,11,-1
 186 809 l 1,12,-1
 43 809 l 1,13,-1
 43 838 l 1,14,15
 171.882 883.348 171.882 883.348 268.008 1001.5 c 1,16,-1
 309.508 1054 l 1,17,18
 349.075 1106 349.075 1106 363.007 1106 c 0,19,20
 387.008 1106 387.008 1106 387.007 1050 c 2,21,-1
 387.007 868.001 l 1,22,-1
 603.007 868.001 l 1,23,-1
 603.007 809.001 l 1,24,-1
 392.007 809.001 l 1,25,-1
 392.007 333.001 l 2,26,27
 392.007 172.46 392.007 172.46 410.007 130.231 c 128,-1,28
 428.007 88.0015 428.007 88.0015 451.007 76.001 c 128,-1,29
 474.006 64.001 474.006 64.001 507.007 64.001 c 128,-1,30
 540.007 64.001 540.007 64.001 564.007 70.001 c 128,-1,31
 588.007 76.001 588.007 76.001 605.007 82.501 c 128,-1,32
 622.006 89.0005 622.006 89.0005 631.506 95.001 c 128,-1,33
 641.005 101.001 641.005 101.001 643.005 101.001 c 0,0,1
EndSplineSet
Substitution2: "'smcp' Lowercase to Small Capitals in Latin lookup 1 subtable" t.sc
EndChar

StartChar: u
Encoding: 117 117 86
Width: 1175
GlyphClass: 2
Flags: HW
LayerCount: 2
Fore
SplineSet
983 184 m 2,0,1
 983 123.145 983 123.145 1074 98.499 c 0,2,3
 1132.53 82.6493 1132.53 82.6493 1148.76 71.8247 c 128,-1,4
 1165 61 1165 61 1165 49.5002 c 128,-1,5
 1165 38.0005 1165 38.0005 1160 28 c 1,6,-1
 810.001 -5 l 1,7,-1
 790.001 158 l 1,8,9
 699.369 24.8836 699.369 24.8836 554.501 -7.49902 c 0,10,11
 449.537 -30.9605 449.537 -30.9605 369.269 -3.98002 c 128,-1,12
 289.001 23.0005 289.001 23.0005 244.501 72.001 c 0,13,14
 146.999 179.362 146.999 179.362 147 406.001 c 2,15,-1
 147 721.001 l 2,16,17
 147 774.002 147 774.002 61.5 793.001 c 2,18,-1
 20 802.501 l 2,19,20
 -23.9992 812.922 -23.9992 812.922 -24 832.001 c 0,21,22
 -24 837 -24 837 -21 849 c 1,23,24
 7.00049 851 7.00049 851 35.5005 853.5 c 2,25,-1
 166 865 l 2,26,27
 248 872 248 872 353 880 c 1,28,-1
 353 408 l 2,29,30
 353 129.084 353 129.084 451.501 79 c 0,31,32
 481.001 64 481.001 64 514.001 64 c 128,-1,33
 547.001 64 547.001 64 582.501 72.5 c 128,-1,34
 618.001 81.0005 618.001 81.0005 652.501 99 c 0,35,36
 728.333 138.564 728.333 138.564 779.001 208 c 1,37,-1
 779.001 724 l 2,38,39
 779.001 774.476 779.001 774.476 692 791.5 c 128,-1,40
 604.998 808.522 604.998 808.522 604.999 834 c 2,41,-1
 604.999 840 l 2,42,43
 604.999 841 604.999 841 607.999 849 c 1,44,45
 640.999 852 640.999 852 667.499 854 c 128,-1,46
 694 856 694 856 728 859 c 2,47,-1
 797 865 l 2,48,49
 880 872 880 872 985 880 c 1,50,-1
 983 184 l 2,0,1
EndSplineSet
Substitution2: "'smcp' Lowercase to Small Capitals in Latin lookup 1 subtable" u.sc
EndChar

StartChar: v
Encoding: 118 118 87
Width: 948
GlyphClass: 2
Flags: HW
LayerCount: 2
Fore
SplineSet
928.002 867.997 m 1,0,1
 945.384 839.029 945.384 839.029 898.002 818.499 c 0,2,3
 870.151 806.431 870.151 806.431 843.077 801.216 c 128,-1,4
 816.002 796 816.002 796 804.502 790.5 c 128,-1,5
 793.001 785 793.001 785 784.501 775.5 c 0,6,7
 771.52 760.994 771.52 760.994 754 715 c 1,8,-1
 462 2 l 2,9,10
 456 -11.9995 456 -11.9995 434.5 -11.9998 c 128,-1,11
 413 -12 413 -12 408 2 c 2,12,-1
 81 776 l 2,13,14
 66.0273 808.939 66.0273 808.939 19.501 819 c 2,15,-1
 -18.999 827 l 2,16,17
 -38.9985 831 -38.9985 831 -55.998 845 c 1,18,-1
 -51.998 868 l 1,19,-1
 424.002 868 l 1,20,-1
 436.001 841.999 l 1,21,22
 436.001 825.735 436.001 825.735 407.501 819.867 c 128,-1,23
 379.001 814 379.001 814 360.502 810.999 c 128,-1,24
 342.002 807.999 342.002 807.999 324.002 803.999 c 0,25,26
 287.246 795.832 287.246 795.832 302.002 759.999 c 2,27,-1
 498.002 249.999 l 1,28,-1
 664.002 703.999 l 1,29,30
 688.089 765.94 688.089 765.94 656.501 786.999 c 0,31,32
 640.001 797.999 640.001 797.999 611.001 807.498 c 128,-1,33
 582.001 816.998 582.001 816.998 544.002 836.997 c 1,34,35
 533.668 841.13 533.668 841.13 544.002 867.997 c 1,36,-1
 928.002 867.997 l 1,0,1
EndSplineSet
Substitution2: "'smcp' Lowercase to Small Capitals in Latin lookup 1 subtable" v.sc
EndChar

StartChar: w
Encoding: 119 119 88
Width: 1364
GlyphClass: 2
Flags: HW
LayerCount: 2
Fore
SplineSet
905.997 867.997 m 1,0,1
 909.998 857.994 909.998 857.994 909.997 854.997 c 0,2,3
 909.997 837.998 909.997 837.998 892.997 831.997 c 128,-1,4
 875.998 825.997 875.998 825.997 855.497 821.997 c 128,-1,5
 834.997 817.997 834.997 817.997 817.997 809.997 c 0,6,7
 791.371 797.467 791.371 797.467 804.997 759.997 c 1,8,-1
 958.997 283.997 l 1,9,-1
 1104 757.997 l 2,10,11
 1106 761.998 1106 761.998 1106 765.998 c 2,12,-1
 1106 773.998 l 2,13,14
 1106 805.457 1106 805.457 1065.5 817.498 c 0,15,16
 1047 822.999 1047 822.999 1024 828.499 c 128,-1,17
 1001 834 1001 834 986.5 840.999 c 128,-1,18
 972 847.999 972 847.999 971.999 854.999 c 128,-1,19
 971.999 862 971.999 862 976.999 867.999 c 1,20,-1
 1337 867.999 l 1,21,22
 1348 864.999 1348 864.999 1348 860.999 c 0,23,24
 1348 847.236 1348 847.236 1304 834.499 c 2,25,-1
 1262.5 822.499 l 2,26,27
 1172.76 796.575 1172.76 796.575 1162 760 c 2,28,-1
 933 -3 l 1,29,30
 928 -16.0005 928 -16.0005 905 -16.0002 c 128,-1,31
 882 -16 882 -16 877 -3 c 2,32,-1
 646 642 l 1,33,-1
 428.996 -3.00293 l 2,34,35
 423.997 -17.0024 423.997 -17.0024 401.497 -17.0027 c 128,-1,36
 378.997 -17.0029 378.997 -17.0029 373.997 -3.00293 c 2,37,-1
 86.9971 762.997 l 2,38,39
 73.1723 799.863 73.1723 799.863 20.9971 818.497 c 0,40,41
 -0.00292969 825.997 -0.00292969 825.997 -21.0029 832.497 c 128,-1,42
 -42.0029 838.997 -42.0029 838.997 -56.0029 852.996 c 1,43,-1
 -52.0029 867.996 l 1,44,-1
 405.997 867.996 l 1,45,46
 409.998 858.996 409.998 858.996 409.997 854.996 c 0,47,48
 409.997 838.996 409.997 838.996 391.997 832.996 c 128,-1,49
 373.997 826.996 373.997 826.996 352.497 821.496 c 128,-1,50
 330.998 815.996 330.998 815.996 312.997 806.996 c 128,-1,51
 294.997 797.996 294.997 797.996 294.997 776.996 c 2,52,-1
 294.997 768.496 l 2,53,54
 294.997 764.997 294.997 764.997 296.997 759.997 c 2,55,-1
 462.997 282.997 l 1,56,-1
 619.997 717.997 l 1,57,-1
 587.997 790.997 l 2,58,59
 578.276 812.061 578.276 812.061 536.497 823.997 c 2,60,-1
 500.497 834.497 l 2,61,62
 481.998 839.998 481.998 839.998 466.997 847.997 c 1,63,64
 461.998 847.997 461.998 847.997 461.997 854.997 c 1,65,-1
 466.997 867.997 l 1,66,-1
 905.997 867.997 l 1,0,1
EndSplineSet
Substitution2: "'smcp' Lowercase to Small Capitals in Latin lookup 1 subtable" w.sc
EndChar

StartChar: x
Encoding: 120 120 89
Width: 1022
GlyphClass: 2
Flags: HW
LayerCount: 2
Fore
SplineSet
494.001 -0.00585938 m 1,0,1
 479.923 21.1164 479.923 21.1164 505.462 30.0555 c 128,-1,2
 531.001 38.9946 531.001 38.9946 555.002 45.9951 c 0,3,4
 619.001 64.6629 619.001 64.6629 619.002 83.9961 c 0,5,6
 619.002 92.9961 619.002 92.9961 614.002 100.996 c 2,7,-1
 450.002 366.996 l 1,8,-1
 280.002 88.9961 l 1,9,10
 262.29 68.7562 262.29 68.7562 281.146 60.3761 c 128,-1,11
 300.002 51.9961 300.002 51.9961 318.502 46.9961 c 2,12,-1
 357.502 35.9961 l 2,13,14
 396.002 24.7281 396.002 24.7281 396.002 11.9961 c 0,15,16
 396.002 9.99658 396.002 9.99658 393.002 -0.00390625 c 1,17,-1
 23.002 -0.00390625 l 1,18,19
 20.002 5.99609 20.002 5.99609 20.002 11.9958 c 128,-1,20
 20.002 17.9956 20.002 17.9956 27.002 22.4961 c 128,-1,21
 34.0024 26.9961 34.0024 26.9961 43.502 30.4961 c 0,22,23
 62.9365 37.6556 62.9365 37.6556 91.969 42.3266 c 0,24,25
 159.63 53.2124 159.63 53.2124 191.002 93.9971 c 1,26,-1
 415.002 419.997 l 1,27,-1
 181.002 758.997 l 2,28,29
 152.938 799.536 152.938 799.536 133.47 805.766 c 128,-1,30
 114.002 811.997 114.002 811.997 99.502 814.997 c 128,-1,31
 85.0015 817.997 85.0015 817.997 73.501 821.997 c 128,-1,32
 62.0005 825.998 62.0005 825.998 52.501 831.498 c 0,33,34
 30.0028 844.525 30.0028 844.525 30.002 854.998 c 0,35,36
 30.002 855.999 30.002 855.999 33.002 867.998 c 1,37,-1
 501.002 867.998 l 1,38,39
 504.002 858.998 504.002 858.998 504.002 853.998 c 0,40,41
 504.002 842.999 504.002 842.999 486.502 834.498 c 128,-1,42
 469.001 825.998 469.001 825.998 448.501 816.998 c 0,43,44
 392.999 792.632 392.999 792.632 393 774.997 c 0,45,46
 393 768.997 393 768.997 399 758.997 c 2,47,-1
 529 557.997 l 1,48,-1
 679 768.997 l 2,49,50
 685 777.997 685 777.997 685 786.997 c 0,51,52
 685 800.666 685 800.666 637.5 816.498 c 2,53,-1
 597 829.998 l 2,54,55
 560 842.332 560 842.332 560 855 c 0,56,57
 560 856 560 856 563 868 c 1,58,-1
 923 868 l 1,59,60
 924.999 863.002 924.999 863.002 924.999 858.995 c 2,61,-1
 924.999 852.995 l 2,62,63
 924.999 839.169 924.999 839.169 880.499 829.493 c 2,64,-1
 859.999 824.993 l 2,65,66
 822.999 815.993 822.999 815.993 801.499 804.493 c 128,-1,67
 780 792.993 780 792.993 760.999 766.993 c 2,68,-1
 565.999 497.993 l 1,69,-1
 838.999 95.9932 l 2,70,71
 856.999 68.9932 856.999 68.9932 877.499 59.4932 c 128,-1,72
 898 49.9937 898 49.9937 921.499 46.9937 c 128,-1,73
 944.999 43.9937 944.999 43.9937 956.499 40.4941 c 128,-1,74
 968 36.9946 968 36.9946 978 32.4941 c 0,75,76
 1002 21.6939 1002 21.6939 1002 11.9941 c 0,77,78
 1002 9.99463 1002 9.99463 999.001 -0.00585938 c 1,79,-1
 494.001 -0.00585938 l 1,0,1
EndSplineSet
Substitution2: "'smcp' Lowercase to Small Capitals in Latin lookup 1 subtable" x.sc
EndChar

StartChar: y
Encoding: 121 121 90
Width: 953
GlyphClass: 2
Flags: HW
LayerCount: 2
Fore
SplineSet
933.003 867.995 m 1,0,1
 945.515 847.143 945.515 847.143 932.259 837.57 c 128,-1,2
 919.003 827.997 919.003 827.997 905.503 822.997 c 0,3,4
 875.8 811.997 875.8 811.997 852.402 811.997 c 128,-1,5
 829.003 811.997 829.003 811.997 817.503 807.497 c 128,-1,6
 806.002 802.997 806.002 802.997 797.502 793.497 c 0,7,8
 785.183 779.731 785.183 779.731 767.001 731.998 c 2,9,-1
 598.001 298.998 l 1,10,-1
 373.501 -232.002 l 1,11,12
 298.185 -401.002 298.185 -401.002 159.999 -401.002 c 0,13,14
 65.0223 -401.002 65.0223 -401.002 30.999 -334.502 c 0,15,16
 6.9633 -287.522 6.9633 -287.522 28.999 -241.001 c 0,17,18
 57.4201 -180.999 57.4201 -180.999 132.998 -181.001 c 0,19,20
 176.798 -181.001 176.798 -181.001 207.998 -220.001 c 0,21,22
 219.998 -235.001 219.998 -235.001 231.498 -247.001 c 128,-1,23
 242.999 -259.001 242.999 -259.001 264.499 -259.001 c 128,-1,24
 285.999 -259.001 285.999 -259.001 301.999 -244.501 c 128,-1,25
 318 -230 318 -230 329.5 -209.5 c 128,-1,26
 341 -189 341 -189 348.5 -166 c 128,-1,27
 356 -143 356 -143 363 -125 c 2,28,-1
 414 13 l 1,29,-1
 81.0029 775.994 l 2,30,31
 65.8434 809.344 65.8434 809.344 20.001 818.996 c 2,32,-1
 -18.999 826.996 l 2,33,34
 -38.9985 830.997 -38.9985 830.997 -55.998 844.996 c 1,35,-1
 -51.998 867.996 l 1,36,-1
 446.002 867.996 l 1,37,-1
 458.001 841.995 l 1,38,39
 458.001 825.895 458.001 825.895 424.002 819.945 c 128,-1,40
 390.002 813.996 390.002 813.996 369.002 810.995 c 128,-1,41
 348.002 807.995 348.002 807.995 330.002 803.995 c 0,42,43
 293.246 795.828 293.246 795.828 308.002 759.995 c 2,44,-1
 509.002 249.995 l 1,45,-1
 669.002 699.995 l 2,46,47
 681.002 730.996 681.002 730.996 681.002 749.995 c 128,-1,48
 681.002 768.995 681.002 768.995 672.002 780.495 c 0,49,50
 655.751 801.261 655.751 801.261 604.503 817.995 c 2,51,-1
 549.003 836.995 l 2,52,53
 538.669 841.128 538.669 841.128 549.003 867.995 c 1,54,-1
 933.003 867.995 l 1,0,1
EndSplineSet
Substitution2: "'smcp' Lowercase to Small Capitals in Latin lookup 1 subtable" y.sc
EndChar

StartChar: z
Encoding: 122 122 91
Width: 926
GlyphClass: 2
Flags: HW
LayerCount: 2
Fore
SplineSet
817.997 262 m 1,0,-1
 839.997 259 l 1,1,-1
 827.997 -25 l 1,2,3
 822.998 -26.9995 822.998 -26.9995 819.498 -26.5 c 128,-1,4
 815.999 -26.0005 815.999 -26.0005 811.499 -26.0002 c 128,-1,5
 806.999 -26 806.999 -26 791.998 -22 c 2,6,-1
 758.498 -13 l 2,7,8
 710.392 0.000815413 710.392 0.000815413 692 0 c 2,9,-1
 87 0 l 1,10,-1
 80 14 l 1,11,-1
 578 792 l 1,12,13
 596.295 816.408 596.295 816.408 594.146 820.705 c 128,-1,14
 591.997 825.002 591.997 825.002 581.997 825.002 c 2,15,-1
 313.997 814.002 l 1,16,17
 266.997 814.002 266.997 814.002 250.996 798.002 c 0,18,19
 227.996 775.002 227.996 775.002 213.996 733.002 c 128,-1,20
 199.996 691.002 199.996 691.002 190.496 672.502 c 128,-1,21
 180.997 654.002 180.997 654.002 169.997 639.002 c 0,22,23
 145.798 606.002 145.798 606.002 131.897 606.002 c 0,24,25
 118.989 606.002 118.989 606.002 98.9961 610.003 c 1,26,-1
 145.996 883.003 l 1,27,28
 151.996 885.002 151.996 885.002 155.496 884.503 c 128,-1,29
 158.996 884.003 158.996 884.003 162.996 884.003 c 128,-1,30
 166.997 884.003 166.997 884.003 182.997 881.503 c 2,31,-1
 217.997 876.003 l 2,32,33
 268.67 868.002 268.67 868.002 285.998 868.003 c 2,34,-1
 804.998 868.003 l 1,35,36
 839.537 865.345 839.537 865.345 824.998 829.002 c 1,37,-1
 363.998 102.002 l 2,38,39
 340.798 67.2019 340.798 67.2019 360.498 47.502 c 0,40,41
 365.999 42.0015 365.999 42.0015 375.999 42.002 c 2,42,-1
 651.999 50.002 l 2,43,44
 698.379 51.9354 698.379 51.9354 712.689 71.9679 c 0,45,46
 732.768 100.075 732.768 100.075 748.383 161.038 c 128,-1,47
 763.999 222 763.999 222 783.998 242 c 128,-1,48
 803.998 262 803.998 262 817.997 262 c 1,0,-1
EndSplineSet
Substitution2: "'smcp' Lowercase to Small Capitals in Latin lookup 1 subtable" z.sc
EndChar

StartChar: braceleft
Encoding: 123 123 92
Width: 953
GlyphClass: 2
Flags: HW
LayerCount: 2
Fore
SplineSet
261 281 m 1,0,-1
 266 472 l 1,1,2
 266 609.078 266 609.078 252.5 649.039 c 0,3,4
 224.136 733.002 224.136 733.002 127 733.001 c 0,5,6
 98.9995 733.001 98.9995 733.001 86.5 748.001 c 128,-1,7
 74.0005 763.001 74.0005 763.001 74.0002 780.501 c 128,-1,8
 74 798 74 798 87.5 815 c 128,-1,9
 101 832 101 832 141.5 832 c 128,-1,10
 182 832 182 832 210.5 854 c 128,-1,11
 239 876 239 876 251.5 912.5 c 0,12,13
 266.001 954.845 266.001 954.845 266 1091 c 1,14,-1
 261.001 1282 l 1,15,16
 261.001 1424.57 261.001 1424.57 314.001 1484 c 0,17,18
 384.46 1563 384.46 1563 575 1563 c 0,19,20
 586.998 1563 586.998 1563 586.998 1514 c 128,-1,21
 586.999 1465 586.999 1465 574.999 1465 c 0,22,23
 453.418 1465 453.418 1465 433.5 1417.5 c 0,24,25
 420.974 1387.63 420.974 1387.63 433 1328.5 c 2,26,-1
 446.5 1263.5 l 2,27,28
 466 1171.2 466 1171.2 466 1106.6 c 128,-1,29
 466 1042 466 1042 456 997.499 c 128,-1,30
 446 952.999 446 952.999 429.5 919.999 c 0,31,32
 368.387 797.773 368.387 797.773 230 780.999 c 1,33,34
 411.92 758.949 411.92 758.949 456 564.999 c 0,35,36
 475.348 479.874 475.348 479.874 464.674 406.937 c 128,-1,37
 454 334 454 334 446.5 299.001 c 2,38,-1
 433 234.501 l 2,39,40
 427 205 427 205 427 183.001 c 128,-1,41
 427 161.001 427 161.001 433.5 145.501 c 128,-1,42
 440 130.001 440 130.001 456.999 119.501 c 0,43,44
 490.187 99.0019 490.187 99.0019 574.999 99.001 c 0,45,46
 588.999 99.001 588.999 99.001 590.998 83.501 c 128,-1,47
 592.998 68.0015 592.998 68.0015 592.998 49.001 c 128,-1,48
 592.998 30.0005 592.998 30.0005 590.998 15.001 c 128,-1,49
 588.999 0.000976562 588.999 0.000976562 574.999 0.000976562 c 0,50,51
 303.525 0.000976562 303.525 0.000976562 271 167.501 c 0,52,53
 261 219 261 219 261 281 c 1,0,-1
EndSplineSet
EndChar

StartChar: bar
Encoding: 124 124 93
Width: 510
GlyphClass: 2
Flags: HW
LayerCount: 2
Fore
SplineSet
254 1375 m 0,0,1
 330 1375 330 1375 330 1293 c 0,2,3
 322.397 83.8621 322.397 83.8621 327.001 24.001 c 1,4,5
 327.001 -51.0014 327.001 -51.0014 254 -51 c 0,6,7
 184.005 -51 184.005 -51 184 23.999 c 2,8,-1
 180 1125 l 1,9,-1
 180 1290 l 2,10,11
 180 1356.92 180 1356.92 227.5 1371 c 0,12,13
 241 1375 241 1375 254 1375 c 0,0,1
EndSplineSet
EndChar

StartChar: braceright
Encoding: 125 125 94
Width: 953
GlyphClass: 2
Flags: HW
LayerCount: 2
Fore
SplineSet
407 1282 m 1,0,-1
 402 1091 l 1,1,2
 402 954.846 402 954.846 415.5 915.424 c 0,3,4
 444.069 832.001 444.069 832.001 541.001 832.002 c 0,5,6
 567 832.002 567 832.002 580.501 815.002 c 128,-1,7
 594.001 798.002 594.001 798.002 594.001 780.503 c 128,-1,8
 594.001 763.003 594.001 763.003 581.501 748.003 c 128,-1,9
 569.001 733.003 569.001 733.003 527.501 733.003 c 128,-1,10
 486 733.003 486 733.003 457.501 711.003 c 128,-1,11
 429.001 689.002 429.001 689.002 416.501 652.002 c 0,12,13
 402 609.076 402 609.076 402.001 472.002 c 1,14,-1
 407.001 281.002 l 1,15,16
 407.001 138.429 407.001 138.429 354.001 79.0029 c 0,17,18
 283.542 0.00293308 283.542 0.00293308 93.002 0.00292969 c 0,19,20
 79.0024 0.00292969 79.0024 0.00292969 77.0029 15.0029 c 128,-1,21
 75.0034 30.0029 75.0034 30.0029 75.0029 49.0029 c 128,-1,22
 75.0029 68.0034 75.0029 68.0034 77.0029 83.5029 c 128,-1,23
 79.0024 99.0024 79.0024 99.0024 93.002 99.0029 c 0,24,25
 177.813 99.0029 177.813 99.0029 202.907 114.503 c 0,26,27
 241 138.032 241 138.032 241 171.517 c 128,-1,28
 241.001 205.002 241.001 205.002 235.001 234.503 c 2,29,-1
 221.501 299.003 l 2,30,31
 202.001 390.002 202.001 390.002 202.001 455.502 c 128,-1,32
 202.001 521.001 202.001 521.001 212.001 565.001 c 128,-1,33
 222.001 609 222.001 609 238.501 642.001 c 0,34,35
 299.614 764.227 299.614 764.227 438.001 781.001 c 1,36,37
 255.687 803.098 255.687 803.098 212.001 997.501 c 0,38,39
 192.783 1083.02 192.783 1083.02 203.392 1155.51 c 128,-1,40
 214.001 1228 214.001 1228 221.501 1263.5 c 2,41,-1
 235.001 1328.5 l 2,42,43
 241.001 1358 241.001 1358 241.001 1380 c 128,-1,44
 241.001 1402 241.001 1402 234.501 1417.5 c 128,-1,45
 228.001 1433 228.001 1433 211.002 1443.5 c 0,46,47
 176.192 1465 176.192 1465 93.002 1465 c 0,48,49
 81.002 1465 81.002 1465 81.002 1514 c 128,-1,50
 81.002 1563 81.002 1563 93.001 1563 c 0,51,52
 364.692 1563 364.692 1563 397 1395 c 0,53,54
 407 1343 407 1343 407 1282 c 1,0,-1
EndSplineSet
EndChar

StartChar: asciitilde
Encoding: 126 126 95
Width: 1707
GlyphClass: 2
Flags: HW
LayerCount: 2
Fore
SplineSet
1070 868.001 m 1,0,1
 1077 843.505 1077 843.505 1077 811.753 c 128,-1,2
 1077 780 1077 780 1065 755 c 128,-1,3
 1053 730 1053 730 1032 714.5 c 0,4,5
 992.03 684.999 992.03 684.999 942.015 684.999 c 0,6,7
 874.603 685 874.603 685 813.5 717.5 c 2,8,-1
 770 740 l 2,9,10
 750 750 750 750 735 750 c 0,11,12
 696.999 750 696.999 750 696.999 723.003 c 2,13,-1
 696.999 714.003 l 1,14,-1
 564.999 714.003 l 1,15,16
 580.994 849.962 580.994 849.962 671.5 873.002 c 0,17,18
 735.866 889.387 735.866 889.387 774.933 874.195 c 128,-1,19
 814 859.002 814 859.002 836.5 846.502 c 2,20,-1
 876.5 823.502 l 2,21,22
 894 813.002 894 813.002 905 813.002 c 0,23,24
 946 813.002 946 813.002 946 837.001 c 0,25,26
 946 848.001 946 848.001 938 868.001 c 1,27,-1
 1070 868.001 l 1,0,1
EndSplineSet
EndChar

StartChar: exclamdown
Encoding: 161 161 97
Width: 702
GlyphClass: 2
Flags: HW
LayerCount: 2
Fore
SplineSet
277 -5.42871 m 0,0,1
 303 -15.9272 303 -15.9272 343.5 -15.9275 c 128,-1,2
 384 -15.9277 384 -15.9277 410.501 -4.93164 c 128,-1,3
 437.001 6.06787 437.001 6.06787 452.001 25.0664 c 0,4,5
 481.374 62.2697 481.374 62.2697 473 125.061 c 1,6,-1
 448 288.05 l 1,7,8
 443 330.048 443 330.048 434.5 384.044 c 2,9,-1
 398 601.531 l 2,10,11
 382.617 691.259 382.617 691.259 371.501 777.021 c 0,12,13
 368.001 804.019 368.001 804.019 349.001 804.019 c 128,-1,14
 329.87 804.019 329.87 804.019 325.435 787.019 c 128,-1,15
 321.001 770.02 321.001 770.02 319.001 752.522 c 2,16,-1
 314.001 710.024 l 1,17,18
 306.001 652.028 306.001 652.028 296.001 590.532 c 2,19,-1
 258.501 366.546 l 2,20,21
 250 318.049 250 318.049 246 285.051 c 1,22,-1
 222 134.06 l 1,23,24
 205.72 23.3533 205.72 23.3533 277 -5.42871 c 0,0,1
228.001 1068 m 128,-1,26
 228.001 1042 228.001 1042 237.501 1019.5 c 128,-1,27
 247 997.006 247 997.006 263.001 980.007 c 128,-1,28
 279.001 963.007 279.001 963.007 301.002 953.508 c 128,-1,29
 323.002 944.008 323.002 944.008 349.002 944.009 c 128,-1,30
 375.001 944.009 375.001 944.009 398.001 953.508 c 128,-1,31
 421 963.007 421 963.007 437.501 980.007 c 128,-1,32
 454.001 997.006 454.001 997.006 463.501 1019.5 c 128,-1,33
 473 1042 473 1042 473.001 1068 c 128,-1,34
 473.001 1094 473.001 1094 463.501 1116 c 128,-1,35
 454.001 1138 454.001 1138 437.501 1154 c 128,-1,36
 421.001 1170 421.001 1170 398.001 1179.5 c 128,-1,37
 375.001 1189 375.001 1189 349.002 1189 c 128,-1,38
 323.002 1189 323.002 1189 301.002 1179.5 c 128,-1,39
 279.001 1170 279.001 1170 263.001 1154 c 128,-1,40
 247 1138 247 1138 237.501 1116 c 128,-1,25
 228.001 1094 228.001 1094 228.001 1068 c 128,-1,26
EndSplineSet
EndChar

StartChar: cent
Encoding: 162 162 98
Width: 932
GlyphClass: 2
Flags: HW
LayerCount: 2
Fore
SplineSet
689 736.5 m 128,-1,1
 699 757 699 757 699 780.504 c 128,-1,2
 699 804.007 699 804.007 670.501 823.007 c 128,-1,3
 642.001 842.007 642.001 842.007 598.001 847.007 c 1,4,-1
 598.001 95.0068 l 1,5,6
 702.297 98.1689 702.297 98.1689 830.002 131.008 c 0,7,8
 845.004 135.293 845.004 135.293 845.003 119.007 c 0,9,10
 845.003 115.006 845.003 115.006 845.503 105.507 c 128,-1,11
 846.002 96.0073 846.002 96.0073 840.003 90.0068 c 0,12,13
 749.292 7.18457 749.292 7.18457 598.002 -11.9932 c 1,14,-1
 598.002 -61.9932 l 2,15,16
 598.002 -252.617 598.002 -252.617 572.002 -270.493 c 0,17,18
 554.618 -282.446 554.618 -282.446 539.81 -274.22 c 128,-1,19
 525.002 -265.994 525.002 -265.994 519.002 -252.493 c 0,20,21
 506.003 -223.245 506.003 -223.245 506.002 -154.992 c 2,22,-1
 505.002 -15.9922 l 1,23,24
 312.405 -11.9385 312.405 -11.9385 190.502 111.008 c 0,25,26
 66.002 236.571 66.002 236.571 66.002 442.008 c 0,27,28
 66.002 646.362 66.002 646.362 204.001 771.006 c 0,29,30
 322.217 877.781 322.217 877.781 502.001 898.006 c 1,31,-1
 501.001 1138.01 l 1,32,33
 502.001 1187.01 502.001 1187.01 520.501 1204.01 c 128,-1,34
 539 1221.01 539 1221.01 551.5 1213.51 c 128,-1,35
 564 1206.01 564 1206.01 571.5 1202 c 128,-1,36
 579 1198 579 1198 585 1190 c 0,37,38
 597.999 1172.67 597.999 1172.67 598 1122 c 2,39,-1
 598 901.004 l 1,40,41
 786.017 891.108 786.017 891.108 854 784.503 c 0,42,43
 876 750.003 876 750.003 876 716.003 c 128,-1,44
 876 682.002 876 682.002 866.5 663.002 c 128,-1,45
 857 644.001 857 644.001 841 631.001 c 0,46,47
 807.767 603.999 807.767 603.999 769.884 604 c 128,-1,48
 732 604 732 604 705.5 625.5 c 128,-1,49
 679 647 679 647 679 681.5 c 128,-1,0
 679 716 679 716 689 736.5 c 128,-1,1
272.001 472.007 m 0,50,51
 272.001 315.006 272.001 315.006 330.001 217.507 c 128,-1,52
 388.001 120.007 388.001 120.007 505.001 100.007 c 1,53,-1
 502.001 837.007 l 1,54,55
 346.813 792.668 346.813 792.668 292.001 620.007 c 0,56,57
 272.001 557.007 272.001 557.007 272.001 472.007 c 0,50,51
EndSplineSet
EndChar

StartChar: sterling
Encoding: 163 163 99
Width: 1073
GlyphClass: 2
Flags: HW
LayerCount: 2
Fore
SplineSet
654 666.001 m 1,0,1
 660.002 641.993 660.002 641.993 660.001 610.997 c 128,-1,2
 660.001 580.001 660.001 580.001 654 574 c 1,3,-1
 426 574 l 1,4,-1
 441 364 l 1,5,6
 427.994 181.928 427.994 181.928 336.494 78.001 c 0,7,8
 258.137 -10.9979 258.137 -10.9979 155.994 -10.999 c 0,9,10
 80.2421 -10.999 80.2421 -10.999 32.9932 43.001 c 0,11,12
 -10.0058 92.1426 -10.0058 92.1426 -10.0068 160 c 0,13,14
 -10.0068 261.211 -10.0068 261.211 79.9922 297.5 c 0,15,16
 110.993 310 110.993 310 169.493 310 c 0,17,18
 261.208 310 261.208 310 437.993 234.999 c 1,19,-1
 562.493 183.499 l 1,20,21
 699.527 128.45 699.527 128.45 783.494 199.499 c 0,22,23
 810.765 222.574 810.765 222.574 828.879 255.787 c 128,-1,24
 846.994 288.999 846.994 288.999 854.494 300.499 c 0,25,26
 865.413 317.242 865.413 317.242 889.994 306.999 c 1,27,28
 887.995 278.999 887.995 278.999 885.995 244.499 c 128,-1,29
 883.996 209.999 883.996 209.999 877.496 174.499 c 128,-1,30
 870.997 138.999 870.997 138.999 858.497 105.999 c 128,-1,31
 845.998 72.999 845.998 72.999 821.997 46.999 c 0,32,33
 768.457 -11.0019 768.457 -11.0019 670.997 -11.001 c 0,34,35
 564.284 -11.001 564.284 -11.001 383 96.999 c 1,36,-1
 294 148.999 l 1,37,38
 195.999 205 195.999 205 161 204.999 c 128,-1,39
 126 204.999 126 204.999 113 190.499 c 128,-1,40
 99.9995 175.999 99.9995 175.999 99.9998 156.999 c 128,-1,41
 100 138 100 138 115 121.499 c 128,-1,42
 130 104.999 130 104.999 157.5 104.999 c 128,-1,43
 185 104.999 185 104.999 210 112.499 c 128,-1,44
 235 119.999 235 119.999 255 135.999 c 0,45,46
 299.998 171.999 299.998 171.999 299.999 236.001 c 2,47,-1
 299.999 247.501 l 2,48,49
 299.999 253.001 299.999 253.001 298.999 258.001 c 2,50,-1
 226.999 574.001 l 1,51,52
 144.999 574.001 144.999 574.001 111.499 582.501 c 128,-1,53
 77.9995 591.001 77.9995 591.001 77.999 621.001 c 0,54,55
 77.999 646.83 77.999 646.83 97.9998 654.417 c 0,56,57
 128.542 666.002 128.542 666.002 210 666.003 c 1,58,-1
 201 842.003 l 2,59,60
 200 848.003 200 848.003 200 853.503 c 2,61,-1
 200 865.003 l 2,62,63
 200 1031.57 200 1031.57 319.5 1126.5 c 0,64,65
 424.615 1210 424.615 1210 572 1210 c 0,66,67
 687.502 1210 687.502 1210 767.001 1157 c 0,68,69
 852 1100.34 852 1100.34 852.001 1005 c 0,70,71
 852.001 962.586 852.001 962.586 829 938.793 c 0,72,73
 751.931 859.069 751.931 859.069 684.499 926.499 c 0,74,75
 656.999 953.999 656.999 953.999 656.999 983.499 c 128,-1,76
 656.999 1013 656.999 1013 666.999 1033.5 c 128,-1,77
 677 1054 677 1054 676.999 1084 c 128,-1,78
 676.999 1114 676.999 1114 648.999 1139 c 128,-1,79
 620.999 1164 620.999 1164 587.999 1164 c 128,-1,80
 554.999 1164 554.999 1164 524.999 1148.5 c 128,-1,81
 494.999 1133 494.999 1133 470.499 1100 c 0,82,83
 415.001 1025.25 415.001 1025.25 415 887.001 c 2,84,-1
 415 867.501 l 2,85,86
 415 858.001 415 858.001 416 848.001 c 2,87,-1
 426 666.001 l 1,88,-1
 654 666.001 l 1,0,1
EndSplineSet
EndChar

StartChar: currency
Encoding: 164 164 100
Width: 932
GlyphClass: 2
Flags: HW
LayerCount: 2
Fore
SplineSet
288.001 1048 m 1,0,1
 363.789 1088 363.789 1088 458.364 1088 c 128,-1,2
 552.94 1088 552.94 1088 624.996 1053 c 1,3,-1
 728.996 1203 l 2,4,5
 745.819 1229 745.819 1229 774.908 1229 c 0,6,7
 832.997 1229 832.997 1229 832.996 1173 c 0,8,9
 832.996 1149.64 832.996 1149.64 814.997 1130 c 1,10,-1
 705.997 995.001 l 1,11,12
 792.999 907.999 792.999 907.999 792.999 777.689 c 128,-1,13
 792.998 647.379 792.998 647.379 711.997 562.001 c 1,14,15
 757.998 502.001 757.998 502.001 785.497 472.001 c 2,16,-1
 826.997 426.001 l 2,17,18
 867.852 379.307 867.852 379.307 830.497 346.999 c 0,19,20
 811.998 330.999 811.998 330.999 789.498 330.999 c 0,21,22
 758.873 330.999 758.873 330.999 748.935 345.499 c 2,23,-1
 635.997 502.999 l 1,24,25
 563.996 462.997 563.996 462.997 467.527 462.998 c 128,-1,26
 371.058 462.999 371.058 462.999 299 497.999 c 1,27,-1
 195 347.999 l 1,28,29
 177.531 321.001 177.531 321.001 147.766 321.001 c 0,30,31
 90.003 320.999 90.003 320.999 90.002 374.999 c 0,32,33
 90.002 398.999 90.002 398.999 109.002 420.999 c 2,34,-1
 218.002 555.999 l 1,35,36
 131 643.001 131 643.001 131.001 773.311 c 128,-1,37
 131.001 903.621 131.001 903.621 212.002 988.999 c 1,38,39
 181.001 1029 181.001 1029 159.001 1055 c 2,40,-1
 97.001 1125 l 2,41,42
 75.001 1149.44 75.001 1149.44 75.001 1168.72 c 128,-1,43
 75.001 1188 75.001 1188 93.501 1204 c 128,-1,44
 112 1220 112 1220 134.5 1220 c 0,45,46
 165.125 1220 165.125 1220 177.001 1201 c 1,47,-1
 288.001 1048 l 1,0,1
368.998 579.501 m 0,48,49
 406.998 562 406.998 562 452.5 562.001 c 128,-1,50
 498.002 562.001 498.002 562.001 535 575.5 c 128,-1,51
 572 589 572 589 600.5 614 c 0,52,53
 664.001 669.704 664.001 669.704 664 758 c 0,54,55
 664 921.443 664 921.443 551.499 975.5 c 0,56,57
 471.502 1013.94 471.502 1013.94 385.999 979.5 c 0,58,59
 309.966 948.875 309.966 948.875 275.499 876 c 128,-1,60
 241.025 803.114 241.025 803.114 269.999 700.5 c 0,61,62
 294.473 613.823 294.473 613.823 368.998 579.501 c 0,48,49
EndSplineSet
EndChar

StartChar: yen
Encoding: 165 165 101
Width: 1324
GlyphClass: 2
Flags: HW
LayerCount: 2
Fore
SplineSet
558 303 m 1,0,-1
 558 394.991 l 1,1,2
 496 393.991 496 393.991 443.001 391.991 c 128,-1,3
 390.001 389.992 390.001 389.992 351.001 393.491 c 0,4,5
 267.001 401.029 267.001 401.029 267.001 451.991 c 0,6,7
 267.001 473.992 267.001 473.992 294.502 478.993 c 0,8,9
 338.498 486.993 338.498 486.993 481.001 486.993 c 2,10,-1
 558.001 486.993 l 1,11,-1
 558.001 529.993 l 1,12,-1
 278.001 1029.99 l 2,13,14
 267.023 1049.76 267.023 1049.76 163.501 1102.49 c 2,15,-1
 115.001 1127.49 l 2,16,17
 63.9992 1154.15 63.9992 1154.15 63.9996 1157.57 c 128,-1,18
 64 1160.99 64 1160.99 68 1175.99 c 1,19,-1
 694 1175.99 l 1,20,21
 703.175 1150.77 703.175 1150.77 686.588 1141.88 c 128,-1,22
 670 1132.99 670 1132.99 649 1125.99 c 128,-1,23
 628 1118.99 628 1118.99 603.5 1112.49 c 128,-1,24
 579 1105.99 579 1105.99 558 1098.49 c 0,25,26
 509.001 1080.99 509.001 1080.99 509 1058.99 c 0,27,28
 509 1049.99 509 1049.99 514 1039.99 c 2,29,-1
 744 629.994 l 1,30,-1
 958 1039.99 l 2,31,32
 964 1049.99 964 1049.99 964 1063.99 c 128,-1,33
 964 1078 964 1078 943.5 1088 c 128,-1,34
 923 1098 923 1098 894 1105.5 c 0,35,36
 805.319 1128.43 805.319 1128.43 790.659 1139.71 c 128,-1,37
 776 1151 776 1151 776 1155.99 c 128,-1,38
 776 1160.99 776 1160.99 780 1176 c 1,39,-1
 1276 1176 l 1,40,41
 1284.14 1153.61 1284.14 1153.61 1272.57 1146.3 c 128,-1,42
 1261 1139 1261 1139 1247 1133.5 c 0,43,44
 1225.64 1125.1 1225.64 1125.1 1180.32 1117.55 c 128,-1,45
 1135 1110 1135 1110 1098 1094 c 128,-1,46
 1061 1078 1061 1078 1039 1040 c 2,47,-1
 773 579.997 l 1,48,-1
 773 486.997 l 1,49,-1
 1002 486.997 l 2,50,51
 1072.07 486.997 1072.07 486.997 1091.5 460.497 c 0,52,53
 1097 452.997 1097 452.997 1104.5 440.497 c 128,-1,54
 1112 427.998 1112 427.998 1090 409.498 c 128,-1,55
 1068 390.999 1068 390.999 1018 389.998 c 1,56,-1
 773.001 392.998 l 1,57,-1
 773.001 304.998 l 1,58,-1
 1029 306.998 l 2,59,60
 1074.36 306.998 1074.36 306.998 1089.18 292.997 c 128,-1,61
 1104 278.997 1104 278.997 1105.5 269.497 c 128,-1,62
 1107 259.998 1107 259.998 1102 251.998 c 128,-1,63
 1097 243.999 1097 243.999 1093 236.498 c 128,-1,64
 1089 228.998 1089 228.998 1081 222.998 c 0,65,66
 1063.67 209.999 1063.67 209.999 1013 209.998 c 2,67,-1
 773.001 209.998 l 1,68,-1
 773.001 123.998 l 2,69,70
 773.001 64.4562 773.001 64.4562 889.501 52.999 c 0,71,72
 962.891 45.7802 962.891 45.7802 984.446 38.3896 c 128,-1,73
 1006 30.999 1006 30.999 1006 16.999 c 0,74,75
 1006 12.9985 1006 12.9985 1002 -0.00195312 c 1,76,-1
 332.001 -0.00195312 l 1,77,78
 317.051 29.9014 317.051 29.9014 339.026 38.9505 c 128,-1,79
 361 47.9995 361 47.9995 387 50.5 c 128,-1,80
 413 53.0005 413 53.0005 442.5 55 c 128,-1,81
 472 56.9995 472 56.9995 498 64 c 0,82,83
 557.998 80.1548 557.998 80.1548 557.999 130 c 2,84,-1
 557.999 210 l 1,85,-1
 480.999 210 l 2,86,87
 290.376 210 290.376 210 272.499 236 c 0,88,89
 260.546 253.384 260.546 253.384 268.772 268.192 c 128,-1,90
 276.999 283 276.999 283 290.499 289 c 0,91,92
 319.747 301.999 319.747 301.999 388 302 c 2,93,-1
 558 303 l 1,0,-1
EndSplineSet
EndChar

StartChar: brokenbar
Encoding: 166 166 102
Width: 510
GlyphClass: 2
Flags: HW
LayerCount: 2
Fore
SplineSet
254 1375 m 0,0,1
 330 1375 330 1375 330 1293 c 1,2,-1
 326.002 1117 l 2,3,4
 320.531 920.134 320.531 920.134 327.001 836.002 c 1,5,6
 327.001 761 327.001 761 254 761.001 c 0,7,8
 184.005 761.001 184.005 761.001 184 836 c 2,9,-1
 180 1290 l 2,10,11
 180 1356.92 180 1356.92 227.5 1371 c 0,12,13
 241 1375 241 1375 254 1375 c 0,0,1
254.002 557.001 m 0,14,15
 330.002 557.001 330.002 557.001 330.002 475.001 c 1,16,-1
 326.005 298.999 l 1,17,18
 320.534 102.132 320.534 102.132 327.004 18 c 1,19,20
 327.004 -57.0024 327.004 -57.0024 254.003 -57.001 c 0,21,22
 184.008 -57.001 184.008 -57.001 184.003 17.998 c 0,23,24
 184.003 53.0566 184.003 53.0566 180.002 277 c 1,25,-1
 180.002 472 l 2,26,27
 180.002 538.925 180.002 538.925 227.502 553.001 c 0,28,29
 241.002 557.001 241.002 557.001 254.002 557.001 c 0,14,15
EndSplineSet
EndChar

StartChar: section
Encoding: 167 167 103
Width: 891
GlyphClass: 2
Flags: HW
LayerCount: 2
Fore
SplineSet
745.003 631.002 m 0,0,1
 745.003 516.526 745.003 516.526 652.004 451.002 c 1,2,3
 752.045 380.705 752.045 380.705 764.003 298.502 c 0,4,5
 787.189 139.121 787.189 139.121 676.003 52.502 c 0,6,7
 586.792 -16.998 586.792 -16.998 448.003 -16.998 c 0,8,9
 306.615 -16.998 306.615 -16.998 170.502 31.502 c 0,10,11
 127.002 47.0015 127.002 47.0015 99.002 67.001 c 1,12,-1
 110.002 280.001 l 1,13,14
 145.962 306.968 145.962 306.968 172.5 276.5 c 0,15,16
 186 261 186 261 186 213 c 128,-1,17
 186 165 186 165 207 128 c 128,-1,18
 228 90.9995 228 90.9995 264.5 70 c 0,19,20
 328.807 33.0011 328.807 33.0011 458.999 33 c 0,21,22
 541.218 33 541.218 33 602 77.5 c 0,23,24
 663 122.161 663 122.161 663 184 c 0,25,26
 663 238.682 663 238.682 617.5 274.5 c 0,27,28
 594 293 594 293 557.5 312.5 c 2,29,-1
 294 456 l 2,30,31
 116.004 553.999 116.004 553.999 116.005 701.004 c 0,32,33
 116.005 822.494 116.005 822.494 222.005 889.002 c 1,34,35
 137.006 965.905 137.006 965.905 137.005 1061 c 0,36,37
 137.005 1154.97 137.005 1154.97 210.005 1216.5 c 0,38,39
 285.34 1280 285.34 1280 402.004 1280 c 0,40,41
 502.011 1280 502.011 1280 578.009 1261 c 128,-1,42
 654.006 1242 654.006 1242 675.006 1232 c 1,43,-1
 689.006 1044 l 1,44,45
 651.156 1034.54 651.156 1034.54 625.506 1083.5 c 0,46,47
 620.005 1094 620.005 1094 615.005 1119 c 128,-1,48
 610.005 1144 610.005 1144 587.005 1169.5 c 128,-1,49
 564.005 1195 564.005 1195 533.005 1209.5 c 0,50,51
 480.629 1234 480.629 1234 399.816 1234 c 128,-1,52
 319.003 1234 319.003 1234 271.004 1201.5 c 128,-1,53
 223.004 1169 223.004 1169 223.004 1107.5 c 128,-1,54
 223.004 1046 223.004 1046 314.004 1002 c 1,55,-1
 569.004 868.002 l 1,56,57
 722.728 788.49 722.728 788.49 739.503 697.002 c 0,58,59
 745.003 667.002 745.003 667.002 745.003 631.002 c 0,0,1
597.006 484.004 m 1,60,61
 648.004 526.135 648.004 526.135 648.005 579.004 c 0,62,63
 648.005 629.299 648.005 629.299 605.005 663.504 c 0,64,65
 583.004 681.004 583.004 681.004 548.505 699.504 c 2,66,-1
 303.005 833.004 l 2,67,68
 292.996 838.008 292.996 838.008 284.006 844.001 c 128,-1,69
 275.006 850.001 275.006 850.001 266.006 855.001 c 1,70,71
 208.006 819.788 208.006 819.788 208.006 751.003 c 0,72,73
 208.006 685.504 208.006 685.504 305.006 637.004 c 1,74,-1
 579.006 494.004 l 1,75,-1
 597.006 484.004 l 1,60,61
EndSplineSet
EndChar

StartChar: dieresis
Encoding: 168 168 104
Width: 1707
GlyphClass: 2
Flags: HW
LayerCount: 2
Fore
SplineSet
458 205 m 128,-1,1
 458 228 458 228 466.5 248.5 c 128,-1,2
 475 269 475 269 489.501 284 c 128,-1,3
 504.001 299 504.001 299 524.001 307.5 c 128,-1,4
 544 316 544 316 567 316 c 128,-1,5
 590 316 590 316 610.5 307.5 c 128,-1,6
 631 299 631 299 646 284 c 128,-1,7
 661 269 661 269 669.5 248.5 c 128,-1,8
 678 228 678 228 678 205 c 128,-1,9
 678 182 678 182 669.5 162.001 c 128,-1,10
 661 142.001 661 142.001 646 127.501 c 128,-1,11
 631 113 631 113 610.5 104.5 c 128,-1,12
 590 95.9995 590 95.9995 567 96 c 128,-1,13
 544 96 544 96 524.001 104.5 c 128,-1,14
 504.001 113 504.001 113 489.501 127.501 c 128,-1,15
 475 142.001 475 142.001 466.5 162.001 c 128,-1,0
 458 182 458 182 458 205 c 128,-1,1
1014 205 m 128,-1,17
 1014 228 1014 228 1022.5 248.5 c 128,-1,18
 1031 269 1031 269 1045.5 284 c 128,-1,19
 1060 299 1060 299 1080 307.5 c 128,-1,20
 1100 316 1100 316 1123 316 c 128,-1,21
 1146 316 1146 316 1166.5 307.5 c 128,-1,22
 1187 299 1187 299 1202 284 c 128,-1,23
 1217 269 1217 269 1225.5 248.5 c 128,-1,24
 1234 228 1234 228 1234 205 c 128,-1,25
 1234 182 1234 182 1225.5 162.001 c 128,-1,26
 1217 142.001 1217 142.001 1202 127.501 c 128,-1,27
 1187 113 1187 113 1166.5 104.5 c 128,-1,28
 1146 95.9995 1146 95.9995 1123 96 c 128,-1,29
 1100 96 1100 96 1080 104.5 c 128,-1,30
 1060 113 1060 113 1045.5 127.501 c 128,-1,31
 1031 142.001 1031 142.001 1022.5 162.001 c 128,-1,16
 1014 182 1014 182 1014 205 c 128,-1,17
EndSplineSet
EndChar

StartChar: copyright
Encoding: 169 169 105
Width: 1393
GlyphClass: 2
Flags: HW
LayerCount: 2
Fore
SplineSet
180 620 m 0,0,1
 180 507 180 507 217.001 398.004 c 128,-1,2
 254.001 289.003 254.001 289.003 325.001 210.003 c 0,3,4
 475.988 42.001 475.988 42.001 740.001 42.002 c 0,5,6
 942.265 42.002 942.265 42.002 1083 187.002 c 0,7,8
 1226 334.335 1226 334.335 1226 546 c 0,9,10
 1226 798.501 1226 798.501 1092 959.5 c 0,11,12
 946.766 1134 946.766 1134 685.001 1134 c 0,13,14
 450.988 1134 450.988 1134 310 982 c 0,15,16
 180 841.845 180 841.845 180 620 c 0,0,1
52.0012 588.504 m 0,17,18
 52.001 685.003 52.001 685.003 78.001 768.004 c 128,-1,19
 104 851.003 104 851.003 149.001 919.003 c 128,-1,20
 194.001 987.002 194.001 987.002 256.001 1040 c 128,-1,21
 318 1093 318 1093 389.501 1129.5 c 0,22,23
 535.444 1204 535.444 1204 697.001 1204 c 0,24,25
 947.594 1204 947.594 1204 1136 1047.5 c 0,26,27
 1263.62 941.499 1263.62 941.499 1315 774.502 c 0,28,29
 1341 690.002 1341 690.002 1341 568.002 c 128,-1,30
 1341 446.002 1341 446.002 1290.5 331.502 c 128,-1,31
 1240 217.002 1240 217.002 1152.5 137.003 c 0,32,33
 972.032 -27.9951 972.032 -27.9951 696.001 -27.9961 c 0,34,35
 447.509 -27.9961 447.509 -27.9961 258.001 134.004 c 0,36,37
 52.0019 310.1 52.0019 310.1 52.0012 588.504 c 0,17,18
1013 807.007 m 1,38,39
 1001 804.009 1001 804.009 992.501 804.008 c 128,-1,40
 983.999 804.008 983.999 804.008 973.499 819.008 c 128,-1,41
 962.999 834.008 962.999 834.008 953.499 854.008 c 128,-1,42
 944 874.007 944 874.007 936 893.508 c 128,-1,43
 928 913.008 928 913.008 921 923.008 c 1,44,45
 861.211 994.008 861.211 994.008 708.001 994.008 c 0,46,47
 590.301 994.008 590.301 994.008 509.501 889.508 c 0,48,49
 428 784.101 428 784.101 428.001 634.007 c 0,50,51
 428.001 460.672 428.001 460.672 516.001 358.006 c 0,52,53
 603.43 256.004 603.43 256.004 751.001 256.005 c 0,54,55
 859.932 256.005 859.932 256.005 941.498 279.508 c 2,56,-1
 1010 300.008 l 1,57,-1
 1011 300.008 l 2,58,59
 1017 300.008 1017 300.008 1019 291.508 c 128,-1,60
 1021 283.007 1021 283.007 1008.5 270.007 c 128,-1,61
 995.999 257.006 995.999 257.006 965.499 235.507 c 128,-1,62
 935 214.007 935 214.007 895.999 197.507 c 0,63,64
 809.724 161.006 809.724 161.006 713.862 161.006 c 128,-1,65
 618 161.007 618 161.007 538 192.007 c 128,-1,66
 458 223.007 458 223.007 399.5 280.007 c 0,67,68
 275 401.315 275 401.315 275 601.006 c 0,69,70
 275 796.926 275 796.926 419.5 923.506 c 0,71,72
 551.355 1039.01 551.355 1039.01 729.999 1039.01 c 0,73,74
 829.741 1039.01 829.741 1039.01 992.999 992.007 c 1,75,-1
 1013 807.007 l 1,38,39
EndSplineSet
EndChar

StartChar: ordfeminine
Encoding: 170 170 106
Width: 793
GlyphClass: 2
Flags: HW
LayerCount: 2
Fore
SplineSet
479.001 344 m 1,0,1
 359.004 234 359.004 234 242 234 c 0,2,3
 128.954 234 128.954 234 89.999 297.998 c 0,4,5
 75.9995 320.998 75.9995 320.998 75.9993 361.998 c 128,-1,6
 75.999 402.999 75.999 402.999 93.499 434.998 c 128,-1,7
 111 466.998 111 466.998 140.999 487.498 c 0,8,9
 187.066 518.978 187.066 518.978 294.499 539.5 c 2,10,-1
 384.999 556.5 l 2,11,12
 431 565 431 565 474 580 c 1,13,-1
 474 674 l 2,14,15
 474 764.768 474 764.768 458 797.385 c 0,16,17
 426.793 860.999 426.793 860.999 346 861 c 0,18,19
 282.186 861 282.186 861 241.998 826.996 c 0,20,21
 228.998 815.997 228.998 815.997 228.998 801.997 c 128,-1,22
 228.998 787.998 228.998 787.998 235.998 771.997 c 128,-1,23
 242.999 755.997 242.999 755.997 242.998 728.497 c 128,-1,24
 242.998 700.998 242.998 700.998 223.498 683.998 c 128,-1,25
 203.998 666.999 203.998 666.999 184.498 666.998 c 128,-1,26
 164.999 666.998 164.999 666.998 150.999 672.498 c 128,-1,27
 137 677.999 137 677.999 126 687.999 c 0,28,29
 100.999 710.729 100.999 710.729 101 753.364 c 128,-1,30
 101 796 101 796 131 826.499 c 128,-1,31
 161 856.999 161 856.999 203 873.499 c 0,32,33
 275.545 901.999 275.545 901.999 351.273 901.999 c 128,-1,34
 427 901.999 427 901.999 476.001 887.999 c 128,-1,35
 525.001 874 525.001 874 558.001 842 c 0,36,37
 624.001 778.001 624.001 778.001 624.001 629.999 c 2,38,-1
 624.001 340.999 l 2,39,40
 624.001 318 624.001 318 641.001 310.999 c 128,-1,41
 658 303.999 658 303.999 678.501 301.999 c 128,-1,42
 699.001 300 699.001 300 716.001 298.499 c 128,-1,43
 733 296.999 733 296.999 733.001 284.999 c 0,44,45
 733.001 247.657 733.001 247.657 630.001 237 c 0,46,47
 601.001 234 601.001 234 575.001 234 c 128,-1,48
 549.001 234 549.001 234 531.501 244 c 128,-1,49
 514 254 514 254 502.001 269.5 c 0,50,51
 479 299.209 479 299.209 479.001 344 c 1,0,1
232.994 362.997 m 0,52,53
 232.994 293.997 232.994 293.997 304.995 293.997 c 0,54,55
 350.137 293.997 350.137 293.997 401.567 323.997 c 128,-1,56
 452.996 353.997 452.996 353.997 473.996 370.996 c 1,57,-1
 473.996 555.996 l 1,58,59
 308.838 505.02 308.838 505.02 278.416 482.509 c 128,-1,60
 247.994 459.998 247.994 459.998 240.494 433.497 c 128,-1,61
 232.994 406.997 232.994 406.997 232.994 362.997 c 0,52,53
EndSplineSet
EndChar

StartChar: guillemotleft
Encoding: 171 171 107
Width: 958
GlyphClass: 2
Flags: HW
LayerCount: 2
Fore
SplineSet
818.999 919.999 m 0,0,1
 877.998 919.999 877.998 919.999 877.999 860.999 c 0,2,3
 877.999 844.332 877.999 844.332 849.999 806.999 c 2,4,-1
 606.999 494.999 l 1,5,-1
 839.999 165.999 l 2,6,7
 858.086 139.688 858.086 139.688 859.043 115.344 c 128,-1,8
 860 90.9995 860 90.9995 855.5 75.5 c 128,-1,9
 851 60.0005 851 60.0005 829 60 c 128,-1,10
 807 60 807 60 791.499 66.999 c 128,-1,11
 776 73.9995 776 73.9995 753 100.999 c 2,12,-1
 406 494.999 l 1,13,-1
 797 905.499 l 2,14,15
 811 920 811 920 818.999 919.999 c 0,0,1
478.999 919.998 m 0,16,17
 537.998 919.998 537.998 919.998 537.999 860.998 c 0,18,19
 537.999 844.331 537.999 844.331 509.999 806.998 c 2,20,-1
 266.999 494.998 l 1,21,-1
 499.999 165.998 l 2,22,23
 519.999 138.724 519.999 138.724 519.999 114.861 c 128,-1,24
 519.999 90.9985 519.999 90.9985 515.499 75.499 c 128,-1,25
 510.999 59.9995 510.999 59.9995 488.999 59.999 c 128,-1,26
 466.999 59.999 466.999 59.999 451.499 66.998 c 128,-1,27
 436 73.9985 436 73.9985 413 100.998 c 2,28,-1
 66 494.998 l 1,29,-1
 457 905.498 l 2,30,31
 471 919.999 471 919.999 478.999 919.998 c 0,16,17
EndSplineSet
EndChar

StartChar: logicalnot
Encoding: 172 172 108
Width: 1287
GlyphClass: 2
Flags: HW
LayerCount: 2
Fore
SplineSet
671.998 635 m 2,0,1
 322.934 635 322.934 635 193 630 c 1,2,3
 117.998 630 117.998 630 117.999 703 c 0,4,5
 117.999 772.995 117.999 772.995 192.998 773 c 1,6,-1
 388.499 770 l 2,7,8
 421 770 421 770 443 771 c 2,9,-1
 1090 777 l 2,10,11
 1160.15 777 1160.15 777 1179.5 729.5 c 0,12,13
 1185 716 1185 716 1185 703 c 2,14,-1
 1197 277 l 1,15,16
 1197 222.826 1197 222.826 1166.5 206 c 0,17,18
 1152 198 1152 198 1126.5 198 c 128,-1,19
 1101 198 1101 198 1085.5 206.5 c 128,-1,20
 1070 215 1070 215 1061.5 226 c 0,21,22
 1047 244.763 1047 244.763 1047 266.881 c 128,-1,23
 1047 288.999 1047 288.999 1047.5 322.498 c 2,24,-1
 1048.5 391.498 l 2,25,26
 1049 426.999 1049 426.999 1049 459.499 c 128,-1,27
 1049 492 1049 492 1048 514 c 2,28,-1
 1047 635 l 1,29,-1
 671.998 635 l 2,0,1
EndSplineSet
EndChar

StartChar: uni00AD
Encoding: 173 173 109
Width: 1022
GlyphClass: 2
Flags: HW
LayerCount: 2
Fore
SplineSet
694 486 m 2,0,1
 743.872 486 743.872 486 753.936 474.5 c 0,2,3
 767 459.572 767 459.572 767 430.786 c 128,-1,4
 767 402 767 402 766 391 c 128,-1,5
 765 380 765 380 757.999 375.001 c 0,6,7
 748.196 368 748.196 368 693.999 368.001 c 2,8,-1
 349.999 368.001 l 2,9,10
 296.999 368.001 296.999 368.001 288.499 376.5 c 0,11,12
 276.999 388 276.999 388 276.999 416.5 c 128,-1,13
 276.999 445 276.999 445 277.999 455.999 c 128,-1,14
 279 466.999 279 466.999 286 473.999 c 0,15,16
 298.002 486.001 298.002 486.001 346 486 c 2,17,-1
 694 486 l 2,0,1
EndSplineSet
EndChar

StartChar: registered
Encoding: 174 174 110
Width: 1393
GlyphClass: 2
Flags: HW
LayerCount: 2
Fore
SplineSet
180 620 m 0,0,1
 180 507 180 507 217.001 398.004 c 128,-1,2
 254.001 289.003 254.001 289.003 325.001 210.003 c 0,3,4
 475.988 42.001 475.988 42.001 740.001 42.002 c 0,5,6
 942.265 42.002 942.265 42.002 1083 187.002 c 0,7,8
 1226 334.335 1226 334.335 1226 546 c 0,9,10
 1226 798.501 1226 798.501 1092 959.5 c 0,11,12
 946.766 1134 946.766 1134 685.001 1134 c 0,13,14
 450.988 1134 450.988 1134 310 982 c 0,15,16
 180 841.845 180 841.845 180 620 c 0,0,1
52.0012 588.504 m 0,17,18
 52.001 685.003 52.001 685.003 78.001 768.004 c 128,-1,19
 104 851.003 104 851.003 149.001 919.003 c 128,-1,20
 194.001 987.002 194.001 987.002 256.001 1040 c 128,-1,21
 318 1093 318 1093 389.501 1129.5 c 0,22,23
 535.444 1204 535.444 1204 697.001 1204 c 0,24,25
 947.594 1204 947.594 1204 1136 1047.5 c 0,26,27
 1263.62 941.499 1263.62 941.499 1315 774.502 c 0,28,29
 1341 690.002 1341 690.002 1341 568.002 c 128,-1,30
 1341 446.002 1341 446.002 1290.5 331.502 c 128,-1,31
 1240 217.002 1240 217.002 1152.5 137.003 c 0,32,33
 972.032 -27.9951 972.032 -27.9951 696.001 -27.9961 c 0,34,35
 447.509 -27.9961 447.509 -27.9961 258.001 134.004 c 0,36,37
 52.0019 310.1 52.0019 310.1 52.0012 588.504 c 0,17,18
355 985.006 m 0,38,39
 355 988.508 355 988.508 357.999 996.007 c 1,40,-1
 610.999 996.007 l 2,41,42
 946.099 996.007 946.099 996.007 1013 874.007 c 0,43,44
 1030 843.006 1030 843.006 1030 798.507 c 128,-1,45
 1030 754.007 1030 754.007 1009 721.007 c 128,-1,46
 987.999 688.007 987.999 688.007 954.499 666.007 c 0,47,48
 892.208 625.098 892.208 625.098 800 618.006 c 1,49,-1
 992 268.006 l 2,50,51
 996 259.006 996 259.006 1010.5 258.006 c 128,-1,52
 1025 257.005 1025 257.005 1040 255.506 c 0,53,54
 1079 251.606 1079 251.606 1079 218.005 c 1,55,-1
 862.001 218.005 l 1,56,-1
 736.501 475.005 l 1,57,58
 705.001 544.005 705.001 544.005 681.001 610.005 c 1,59,-1
 612.001 618.005 l 1,60,-1
 612 300.004 l 2,61,62
 612 274.004 612 274.004 630 265.004 c 128,-1,63
 648 256.004 648 256.004 669 252.504 c 2,64,-1
 708 246.004 l 2,65,66
 726 243.004 726 243.004 726 229.004 c 2,67,-1
 726 225.004 l 2,68,69
 726 223.004 726 223.004 724 218.005 c 1,70,-1
 358 218.005 l 1,71,72
 354 222.005 354 222.005 354 230.005 c 0,73,74
 354 246.005 354 246.005 372 249.005 c 128,-1,75
 390 252.005 390 252.005 412 254.505 c 128,-1,76
 434 257.005 434 257.005 452 266.005 c 128,-1,77
 470 275.005 470 275.005 470 303.005 c 2,78,-1
 470 892.005 l 2,79,80
 470 930.283 470 930.283 412.5 949.005 c 0,81,82
 391 956.005 391 956.005 373 963.006 c 128,-1,83
 355 970.006 355 970.006 355 985.006 c 0,38,39
612 644.004 m 1,84,85
 767.937 650.241 767.937 650.241 812.969 674.122 c 128,-1,86
 858 698.003 858 698.003 872.5 727.504 c 128,-1,87
 887 757.004 887 757.004 887 805.504 c 128,-1,88
 887 854.003 887 854.003 867 884.004 c 128,-1,89
 847 914.004 847 914.004 810.501 930.004 c 0,90,91
 751.194 956.003 751.194 956.003 612 956.004 c 1,92,-1
 612 644.004 l 1,84,85
EndSplineSet
EndChar

StartChar: macron
Encoding: 175 175 111
Width: 1022
GlyphClass: 2
Flags: HW
LayerCount: 2
Fore
SplineSet
694 213 m 2,0,1
 743.872 213 743.872 213 753.936 201.5 c 0,2,3
 767 186.572 767 186.572 767 157.786 c 128,-1,4
 767 129 767 129 766 118 c 128,-1,5
 765 107 765 107 757.999 102.001 c 0,6,7
 748.196 95 748.196 95 693.999 95.001 c 2,8,-1
 349.999 95.001 l 2,9,10
 296.999 95.001 296.999 95.001 288.499 103.5 c 0,11,12
 276.999 115 276.999 115 276.999 143.5 c 128,-1,13
 276.999 172 276.999 172 277.999 182.999 c 128,-1,14
 279 193.999 279 193.999 286 200.999 c 0,15,16
 298.002 213.001 298.002 213.001 346 213 c 2,17,-1
 694 213 l 2,0,1
EndSplineSet
EndChar

StartChar: degree
Encoding: 176 176 112
Width: 702
GlyphClass: 2
Flags: HW
LayerCount: 2
Fore
SplineSet
169 909 m 128,-1,1
 153 944 153 944 153 982.5 c 128,-1,2
 153 1021 153 1021 168.502 1056 c 128,-1,3
 184.001 1091 184.001 1091 211.501 1118 c 128,-1,4
 239 1145 239 1145 275.5 1161.5 c 128,-1,5
 312 1178 312 1178 354 1178 c 128,-1,6
 396 1178 396 1178 432.5 1161.5 c 128,-1,7
 469 1145 469 1145 495.5 1118 c 128,-1,8
 522 1091 522 1091 537.5 1056 c 128,-1,9
 553 1021 553 1021 553 984 c 128,-1,10
 553 947 553 947 537.5 912 c 128,-1,11
 522 877 522 877 495.5 850 c 128,-1,12
 469 823 469 823 432.5 807 c 128,-1,13
 396 791 396 791 354 791 c 128,-1,14
 312 791 312 791 275.5 806 c 128,-1,15
 239 821 239 821 212 847.5 c 128,-1,0
 185 874 185 874 169 909 c 128,-1,1
246.002 1027 m 128,-1,17
 237.002 1007 237.002 1007 237.002 984.499 c 128,-1,18
 237.002 961.998 237.002 961.998 246.002 940.998 c 128,-1,19
 255.002 919.998 255.002 919.998 271.002 904.498 c 128,-1,20
 287.002 888.999 287.002 888.999 308.502 879.998 c 128,-1,21
 330.001 870.998 330.001 870.998 354.002 870.998 c 128,-1,22
 378.002 870.998 378.002 870.998 399.502 880.498 c 128,-1,23
 421.001 889.998 421.001 889.998 437.002 905.998 c 128,-1,24
 453.002 921.999 453.002 921.999 462.002 942.499 c 128,-1,25
 471.002 963 471.002 963 471.002 985 c 128,-1,26
 471.002 1007 471.002 1007 462.002 1027 c 128,-1,27
 453.002 1047 453.002 1047 437.002 1063 c 128,-1,28
 421.001 1079 421.001 1079 399.502 1088.5 c 128,-1,29
 378.002 1098 378.002 1098 354.002 1098 c 128,-1,30
 330.002 1098 330.002 1098 308.502 1088.5 c 128,-1,31
 287.002 1079 287.002 1079 271.002 1063 c 128,-1,16
 255.001 1047 255.001 1047 246.002 1027 c 128,-1,17
EndSplineSet
EndChar

StartChar: plusminus
Encoding: 177 177 113
Width: 705
GlyphClass: 2
Flags: HW
LayerCount: 2
Fore
SplineSet
404 498 m 1,0,-1
 533.995 497.997 l 2,1,2
 643.281 497.997 643.281 497.997 651.995 467.498 c 0,3,4
 654.995 456.998 654.995 456.998 654.995 440.998 c 128,-1,5
 654.995 424.999 654.995 424.999 652.495 415.499 c 128,-1,6
 649.995 406 649.995 406 637.995 401.499 c 0,7,8
 620.659 394.998 620.659 394.998 533.995 394.999 c 2,9,-1
 403.995 394.999 l 1,10,-1
 403.995 263.999 l 2,11,12
 403.995 154.713 403.995 154.713 373.496 145.999 c 0,13,14
 362.996 142.999 362.996 142.999 346.996 142.999 c 128,-1,15
 330.997 142.999 330.997 142.999 321.497 145.499 c 128,-1,16
 311.998 148 311.998 148 307.497 159.999 c 0,17,18
 300.996 177.335 300.996 177.335 300.997 263.999 c 2,19,-1
 300.997 394.999 l 1,20,-1
 170.997 394.999 l 2,21,22
 87.7225 394.999 87.7225 394.999 71.3598 402.499 c 128,-1,23
 54.9971 410 54.9971 410 52.4971 420 c 128,-1,24
 49.9966 430 49.9966 430 49.9968 446.5 c 128,-1,25
 49.9971 463 49.9971 463 52.4971 472.5 c 128,-1,26
 54.9976 482 54.9976 482 66.498 487.5 c 0,27,28
 88.4556 498.002 88.4556 498.002 167.998 498.001 c 2,29,-1
 300.998 498.001 l 1,30,-1
 300.998 627.001 l 2,31,32
 300.998 710.275 300.998 710.275 308.498 726.638 c 128,-1,33
 315.999 743.001 315.999 743.001 325.999 745.501 c 128,-1,34
 336 748.001 336 748.001 352.499 748.001 c 128,-1,35
 368.999 748.001 368.999 748.001 378.499 745.501 c 128,-1,36
 387.999 743 387.999 743 393.499 731.5 c 0,37,38
 404.001 709.543 404.001 709.543 404 630 c 2,39,-1
 404 498 l 1,0,-1
EndSplineSet
EndChar

StartChar: twosuperior
Encoding: 178 178 114
Width: 782
GlyphClass: 2
Flags: HW
LayerCount: 2
Fore
SplineSet
265.504 383.999 m 2,0,1
 142.963 383.999 142.963 383.999 59.0039 381.999 c 1,2,-1
 48.0039 421.999 l 1,3,-1
 258.004 693.999 l 2,4,5
 348.243 810.649 348.243 810.649 373.123 862.324 c 0,6,7
 417.003 953.458 417.003 953.458 417.003 1043.23 c 128,-1,8
 417.004 1133 417.004 1133 382.504 1180 c 128,-1,9
 348.004 1227 348.004 1227 297.504 1227 c 0,10,11
 192.846 1227 192.846 1227 73.0039 1158 c 1,12,13
 67.0039 1153 67.0039 1153 55.5037 1150.5 c 128,-1,14
 44.0034 1148 44.0034 1148 42.0039 1163 c 1,15,16
 37.0842 1181.04 37.0842 1181.04 47.0029 1186 c 1,17,18
 107.996 1265.29 107.996 1265.29 229.002 1290.5 c 0,19,20
 265.002 1298 265.002 1298 322.502 1298 c 128,-1,21
 380.001 1298 380.001 1298 436.502 1278 c 128,-1,22
 493.002 1258 493.002 1258 529.002 1223.5 c 0,23,24
 598.002 1157.38 598.002 1157.38 598.002 1065.19 c 128,-1,25
 598.002 973.001 598.002 973.001 567.002 911.002 c 128,-1,26
 536.001 849.002 536.001 849.002 481.001 785.002 c 128,-1,27
 426 721.001 426 721.001 351.5 646.501 c 128,-1,28
 277 572 277 572 190 469 c 1,29,-1
 452 492 l 1,30,31
 495.764 494.189 495.764 494.189 509.384 504.094 c 0,32,33
 531.585 520.241 531.585 520.241 539.795 553.62 c 128,-1,34
 548.004 586.999 548.004 586.999 553.504 602.499 c 128,-1,35
 559.004 617.999 559.004 617.999 565.504 630.498 c 0,36,37
 579.803 657.998 579.803 657.998 592.004 657.998 c 0,38,39
 595.006 657.998 595.006 657.998 607.004 654.999 c 1,40,-1
 590.004 382.999 l 1,41,42
 585.004 381.999 585.004 381.999 582.004 381.999 c 2,43,-1
 576.004 381.999 l 1,44,-1
 475.505 382.999 l 1,45,-1
 265.504 383.999 l 2,0,1
EndSplineSet
EndChar

StartChar: threesuperior
Encoding: 179 179 115
Width: 918
GlyphClass: 2
Flags: HW
LayerCount: 2
Fore
SplineSet
359 915.999 m 1,0,-1
 390 916.999 l 1,1,2
 521.506 916.999 521.506 916.999 598.501 833.499 c 0,3,4
 669.003 757.039 669.003 757.039 669.002 639.999 c 0,5,6
 669.002 535.498 669.002 535.498 583.002 458.499 c 0,7,8
 486.392 371.999 486.392 371.999 321 371.999 c 0,9,10
 159.187 371.999 159.187 371.999 82.999 444.501 c 0,11,12
 51.9985 474.001 51.9985 474.001 51.9988 513.501 c 128,-1,13
 51.999 553 51.999 553 75.499 576.501 c 128,-1,14
 98.9995 600.001 98.9995 600.001 121 600.001 c 128,-1,15
 143 600.001 143 600.001 155.5 594.001 c 128,-1,16
 168 588.001 168 588.001 177.499 578.501 c 0,17,18
 212.347 543.653 212.347 543.653 190.499 498.501 c 0,19,20
 182.999 483.001 182.999 483.001 182.999 470.001 c 128,-1,21
 182.999 457.001 182.999 457.001 196.499 446.501 c 128,-1,22
 209.999 436.001 209.999 436.001 228.999 429.001 c 0,23,24
 322.403 394.587 322.403 394.587 396.502 434.996 c 0,25,26
 504.002 493.632 504.002 493.632 504.002 636.996 c 0,27,28
 504.002 791.11 504.002 791.11 403.002 844.496 c 0,29,30
 342.921 876.253 342.921 876.253 244.002 853.996 c 1,31,-1
 210.002 891.996 l 1,32,33
 340.002 953.996 340.002 953.996 405.002 1007.5 c 128,-1,34
 470.001 1061 470.001 1061 470.002 1117 c 0,35,36
 470.002 1224 470.002 1224 365.001 1224 c 0,37,38
 282.392 1224 282.392 1224 167.003 1157 c 1,39,40
 161.003 1151 161.003 1151 149.503 1149 c 128,-1,41
 138.002 1147 138.002 1147 136.003 1161 c 1,42,43
 131.083 1179.04 131.083 1179.04 141.002 1184 c 1,44,45
 200.84 1261.79 200.84 1261.79 314.5 1286.5 c 0,46,47
 349 1294 349 1294 391 1294 c 128,-1,48
 433 1294 433 1294 471.5 1277.5 c 128,-1,49
 510 1261 510 1261 535.5 1235.5 c 0,50,51
 587.001 1184 587.001 1184 587 1122 c 0,52,53
 587 1018.02 587 1018.02 455.5 951.498 c 0,54,55
 413 929.999 413 929.999 359 915.999 c 1,0,-1
EndSplineSet
EndChar

StartChar: acute
Encoding: 180 180 116
Width: 1350
GlyphClass: 2
Flags: HW
LayerCount: 2
Fore
SplineSet
575.001 39 m 0,0,1
 532.999 39 532.999 39 533 68.5 c 128,-1,2
 533 98 533 98 567 123 c 2,3,-1
 694 216.5 l 1,4,-1
 780.5 284 l 1,5,6
 835.211 328.404 835.211 328.404 870.5 365 c 2,7,-1
 894 389.5 l 2,8,9
 934.48 432.002 934.48 432.002 977.001 432.001 c 0,10,11
 1007.4 432.001 1007.4 432.001 1024.2 408.001 c 0,12,13
 1053 366.859 1053 366.859 1053 336.93 c 0,14,15
 1053 285 1053 285 1037 275 c 128,-1,16
 1021 265 1021 265 989.501 249.5 c 2,17,-1
 768.001 142 l 1,18,19
 686.221 101.11 686.221 101.11 667.111 86.5549 c 128,-1,20
 648.001 72 648.001 72 636.001 65 c 128,-1,21
 624.001 57.9995 624.001 57.9995 612.501 52 c 0,22,23
 587.586 39.0012 587.586 39.0012 575.001 39 c 0,0,1
EndSplineSet
EndChar

StartChar: mu
Encoding: 181 181 117
AltUni2: 0003bc.ffffffff.0
Width: 1182
GlyphClass: 2
Flags: HW
LayerCount: 2
Fore
SplineSet
-16 -284 m 1,0,1
 -26.3592 -257.062 -26.3592 -257.062 -10.6793 -251.032 c 128,-1,2
 5.00049 -245.002 5.00049 -245.002 24.5 -241.503 c 128,-1,3
 44 -238.003 44 -238.003 67 -235.003 c 128,-1,4
 89.9995 -232.003 89.9995 -232.003 109.5 -225.503 c 0,5,6
 155.001 -210.337 155.001 -210.337 155 -174.003 c 2,7,-1
 154 720.997 l 2,8,9
 154 773.999 154 773.999 68.5 792.997 c 2,10,-1
 27 802.497 l 2,11,12
 -16.9992 812.918 -16.9992 812.918 -17 831.997 c 0,13,14
 -17 836.996 -17 836.996 -14 848.996 c 1,15,16
 14.0005 850.996 14.0005 850.996 42.5005 853.496 c 2,17,-1
 173 864.996 l 2,18,19
 255 871.997 255 871.997 360 879.996 c 1,20,-1
 360 387.996 l 2,21,22
 360 127.789 360 127.789 459.001 79.9951 c 0,23,24
 488 65.9956 488 65.9956 521.001 65.9951 c 128,-1,25
 554.001 65.9951 554.001 65.9951 589.501 74.4951 c 128,-1,26
 625.001 82.9956 625.001 82.9956 659.501 100.496 c 0,27,28
 735.797 139.198 735.797 139.198 786.001 207.998 c 1,29,-1
 786.001 723.998 l 2,30,31
 786.001 774.474 786.001 774.474 699 791.498 c 128,-1,32
 611.998 808.521 611.998 808.521 611.999 833.998 c 2,33,-1
 611.999 839.998 l 2,34,35
 611.999 840.999 611.999 840.999 614.999 848.998 c 1,36,37
 647.999 851.998 647.999 851.998 674.499 853.998 c 128,-1,38
 701 855.998 701 855.998 735 858.998 c 2,39,-1
 804 864.998 l 2,40,41
 887 871.999 887 871.999 992 879.998 c 1,42,-1
 992 141.998 l 2,43,44
 992 92.4782 992 92.4782 1080 80.998 c 128,-1,45
 1168 69.5194 1168 69.5194 1168 50 c 0,46,47
 1168 45.0005 1168 45.0005 1163 32 c 1,48,-1
 809 -18 l 1,49,-1
 789 136 l 1,50,51
 661.386 -14.6562 661.386 -14.6562 481 -17 c 1,52,53
 408.411 -19.3427 408.411 -19.3427 360 21 c 1,54,-1
 360 -334 l 1,55,-1
 -16 -284 l 1,0,1
EndSplineSet
EndChar

StartChar: paragraph
Encoding: 182 182 118
Width: 1238
GlyphClass: 2
Flags: HW
LayerCount: 2
Fore
SplineSet
758 488 m 1,0,1
 370.453 488 370.453 488 280.503 673.999 c 0,2,3
 251.002 735 251.002 735 251.003 815 c 128,-1,4
 251.003 895 251.003 895 274.003 953 c 128,-1,5
 297.002 1011 297.002 1011 338.002 1051 c 128,-1,6
 379.001 1091 379.001 1091 435.001 1116 c 128,-1,7
 491 1141 491 1141 558.001 1155 c 0,8,9
 668.077 1178 668.077 1178 851.002 1178 c 2,10,-1
 1285 1178 l 1,11,12
 1289 1163 1289 1163 1289 1154.5 c 0,13,14
 1289 1137.5 1289 1137.5 1233 1122.5 c 2,15,-1
 1181 1109 l 1,16,17
 1073 1082 1073 1082 1073 1022 c 2,18,-1
 1073 130.002 l 2,19,20
 1073 62.6329 1073 62.6329 1166.5 55.002 c 0,21,22
 1228.05 49.9789 1228.05 49.9789 1244.02 41.9897 c 0,23,24
 1269.6 29.2001 1269.6 29.2001 1255 0 c 1,25,-1
 953.002 0 l 1,26,-1
 954.002 1058 l 1,27,-1
 874.002 1058 l 1,28,-1
 874.002 0 l 1,29,-1
 555.002 0 l 1,30,31
 551.001 13.0005 551.001 13.0005 551.002 17.001 c 0,32,33
 551.002 38.2836 551.002 38.2836 589.501 44.142 c 128,-1,34
 628 50.0005 628 50.0005 654.501 53.001 c 128,-1,35
 681.001 56.001 681.001 56.001 704.001 63.001 c 0,36,37
 757.999 79.4367 757.999 79.4367 758 124 c 2,38,-1
 758 488 l 1,0,1
EndSplineSet
EndChar

StartChar: periodcentered
Encoding: 183 183 119
Width: 702
GlyphClass: 2
Flags: HW
LayerCount: 2
Fore
SplineSet
210 698 m 128,-1,1
 198 725 198 725 198 754 c 128,-1,2
 198 783 198 783 209.998 810 c 128,-1,3
 221.998 837 221.998 837 242.498 857.5 c 128,-1,4
 262.999 878 262.999 878 290.999 890.5 c 128,-1,5
 319 903 319 903 350.999 903 c 128,-1,6
 382.999 903 382.999 903 410.999 890.5 c 128,-1,7
 439 878 439 878 459.5 857.5 c 128,-1,8
 480 837 480 837 492 810 c 128,-1,9
 504 783 504 783 504 755 c 128,-1,10
 504 727 504 727 492 700.499 c 128,-1,11
 480 673.999 480 673.999 459.5 652.999 c 128,-1,12
 439 631.999 439 631.999 410.999 619.499 c 128,-1,13
 382.999 607 382.999 607 350.999 606.999 c 128,-1,14
 319 606.999 319 606.999 291.5 618.499 c 128,-1,15
 264 630 264 630 243 650.5 c 128,-1,0
 222 671 222 671 210 698 c 128,-1,1
EndSplineSet
EndChar

